ISO-10303-21;
HEADER;
/* Generated by software containing ST-Developer
 * from STEP Tools, Inc. (www.steptools.com) 
 */

FILE_DESCRIPTION(
/* description */ (''),
/* implementation_level */ '2;1');

FILE_NAME(
/* name */ 'Raised_Base.step',
/* time_stamp */ '2026-08-25T10:24:18+02:00',
/* author */ (''),
/* organization */ (''),
/* preprocessor_version */ 'ST-DEVELOPER v20.1',
/* originating_system */ 'Autodesk Translation Framework v15.8.0.0',
/* authorisation */ '');

FILE_SCHEMA (('AUTOMOTIVE_DESIGN { 1 0 10303 214 3 1 1 }'));
ENDSEC;

DATA;
#10=MECHANICAL_DESIGN_GEOMETRIC_PRESENTATION_REPRESENTATION('',(#13),#1545);
#11=SHAPE_REPRESENTATION_RELATIONSHIP('SRR','None',#1552,#12);
#12=ADVANCED_BREP_SHAPE_REPRESENTATION('',(#14),#1544);
#13=STYLED_ITEM('',(#1561),#14);
#14=MANIFOLD_SOLID_BREP('Base',#969);
#15=FACE_BOUND('',#124,.T.);
#16=FACE_BOUND('',#126,.T.);
#17=FACE_BOUND('',#130,.T.);
#18=FACE_BOUND('',#133,.T.);
#19=FACE_BOUND('',#134,.T.);
#20=FACE_BOUND('',#135,.T.);
#21=FACE_BOUND('',#136,.T.);
#22=FACE_BOUND('',#147,.T.);
#23=FACE_BOUND('',#148,.T.);
#24=FACE_BOUND('',#149,.T.);
#25=FACE_BOUND('',#150,.T.);
#26=FACE_BOUND('',#168,.T.);
#27=FACE_BOUND('',#169,.T.);
#28=FACE_BOUND('',#170,.T.);
#29=FACE_BOUND('',#172,.T.);
#30=FACE_BOUND('',#173,.T.);
#31=FACE_BOUND('',#174,.T.);
#32=FACE_BOUND('',#177,.T.);
#33=FACE_BOUND('',#178,.T.);
#34=FACE_BOUND('',#179,.T.);
#35=FACE_BOUND('',#180,.T.);
#36=FACE_BOUND('',#182,.T.);
#37=FACE_BOUND('',#183,.T.);
#38=FACE_BOUND('',#184,.T.);
#39=FACE_BOUND('',#185,.T.);
#40=PLANE('',#998);
#41=PLANE('',#1002);
#42=PLANE('',#1007);
#43=PLANE('',#1010);
#44=PLANE('',#1011);
#45=PLANE('',#1012);
#46=PLANE('',#1013);
#47=PLANE('',#1014);
#48=PLANE('',#1015);
#49=PLANE('',#1016);
#50=PLANE('',#1017);
#51=PLANE('',#1018);
#52=PLANE('',#1019);
#53=PLANE('',#1020);
#54=PLANE('',#1021);
#55=PLANE('',#1022);
#56=PLANE('',#1023);
#57=PLANE('',#1024);
#58=PLANE('',#1025);
#59=PLANE('',#1026);
#60=PLANE('',#1027);
#61=PLANE('',#1028);
#62=PLANE('',#1029);
#63=PLANE('',#1030);
#64=PLANE('',#1031);
#65=PLANE('',#1032);
#66=PLANE('',#1033);
#67=PLANE('',#1034);
#68=PLANE('',#1035);
#69=PLANE('',#1036);
#70=PLANE('',#1037);
#71=PLANE('',#1038);
#72=PLANE('',#1039);
#73=PLANE('',#1040);
#74=PLANE('',#1041);
#75=FACE_OUTER_BOUND('',#118,.T.);
#76=FACE_OUTER_BOUND('',#119,.T.);
#77=FACE_OUTER_BOUND('',#120,.T.);
#78=FACE_OUTER_BOUND('',#121,.T.);
#79=FACE_OUTER_BOUND('',#122,.T.);
#80=FACE_OUTER_BOUND('',#123,.T.);
#81=FACE_OUTER_BOUND('',#125,.T.);
#82=FACE_OUTER_BOUND('',#127,.T.);
#83=FACE_OUTER_BOUND('',#128,.T.);
#84=FACE_OUTER_BOUND('',#129,.T.);
#85=FACE_OUTER_BOUND('',#131,.T.);
#86=FACE_OUTER_BOUND('',#132,.T.);
#87=FACE_OUTER_BOUND('',#137,.T.);
#88=FACE_OUTER_BOUND('',#138,.T.);
#89=FACE_OUTER_BOUND('',#139,.T.);
#90=FACE_OUTER_BOUND('',#140,.T.);
#91=FACE_OUTER_BOUND('',#141,.T.);
#92=FACE_OUTER_BOUND('',#142,.T.);
#93=FACE_OUTER_BOUND('',#143,.T.);
#94=FACE_OUTER_BOUND('',#144,.T.);
#95=FACE_OUTER_BOUND('',#145,.T.);
#96=FACE_OUTER_BOUND('',#146,.T.);
#97=FACE_OUTER_BOUND('',#151,.T.);
#98=FACE_OUTER_BOUND('',#152,.T.);
#99=FACE_OUTER_BOUND('',#153,.T.);
#100=FACE_OUTER_BOUND('',#154,.T.);
#101=FACE_OUTER_BOUND('',#155,.T.);
#102=FACE_OUTER_BOUND('',#156,.T.);
#103=FACE_OUTER_BOUND('',#157,.T.);
#104=FACE_OUTER_BOUND('',#158,.T.);
#105=FACE_OUTER_BOUND('',#159,.T.);
#106=FACE_OUTER_BOUND('',#160,.T.);
#107=FACE_OUTER_BOUND('',#161,.T.);
#108=FACE_OUTER_BOUND('',#162,.T.);
#109=FACE_OUTER_BOUND('',#163,.T.);
#110=FACE_OUTER_BOUND('',#164,.T.);
#111=FACE_OUTER_BOUND('',#165,.T.);
#112=FACE_OUTER_BOUND('',#166,.T.);
#113=FACE_OUTER_BOUND('',#167,.T.);
#114=FACE_OUTER_BOUND('',#171,.T.);
#115=FACE_OUTER_BOUND('',#175,.T.);
#116=FACE_OUTER_BOUND('',#176,.T.);
#117=FACE_OUTER_BOUND('',#181,.T.);
#118=EDGE_LOOP('',(#654,#655,#656,#657));
#119=EDGE_LOOP('',(#658,#659,#660,#661));
#120=EDGE_LOOP('',(#662,#663,#664,#665));
#121=EDGE_LOOP('',(#666,#667,#668,#669));
#122=EDGE_LOOP('',(#670,#671,#672,#673));
#123=EDGE_LOOP('',(#674,#675,#676,#677,#678,#679,#680,#681));
#124=EDGE_LOOP('',(#682,#683,#684,#685));
#125=EDGE_LOOP('',(#686,#687,#688,#689));
#126=EDGE_LOOP('',(#690,#691,#692,#693));
#127=EDGE_LOOP('',(#694,#695,#696,#697));
#128=EDGE_LOOP('',(#698,#699,#700,#701));
#129=EDGE_LOOP('',(#702,#703,#704,#705));
#130=EDGE_LOOP('',(#706,#707,#708,#709));
#131=EDGE_LOOP('',(#710,#711,#712,#713));
#132=EDGE_LOOP('',(#714,#715,#716,#717));
#133=EDGE_LOOP('',(#718,#719,#720));
#134=EDGE_LOOP('',(#721,#722,#723));
#135=EDGE_LOOP('',(#724,#725,#726));
#136=EDGE_LOOP('',(#727,#728,#729));
#137=EDGE_LOOP('',(#730,#731,#732,#733));
#138=EDGE_LOOP('',(#734,#735,#736,#737));
#139=EDGE_LOOP('',(#738,#739,#740,#741));
#140=EDGE_LOOP('',(#742,#743,#744,#745));
#141=EDGE_LOOP('',(#746,#747,#748,#749));
#142=EDGE_LOOP('',(#750,#751,#752,#753));
#143=EDGE_LOOP('',(#754,#755,#756,#757));
#144=EDGE_LOOP('',(#758,#759,#760,#761));
#145=EDGE_LOOP('',(#762,#763,#764,#765));
#146=EDGE_LOOP('',(#766,#767,#768,#769,#770,#771,#772,#773,#774,#775,#776,
#777));
#147=EDGE_LOOP('',(#778));
#148=EDGE_LOOP('',(#779));
#149=EDGE_LOOP('',(#780));
#150=EDGE_LOOP('',(#781));
#151=EDGE_LOOP('',(#782,#783,#784,#785));
#152=EDGE_LOOP('',(#786,#787,#788,#789));
#153=EDGE_LOOP('',(#790,#791,#792,#793));
#154=EDGE_LOOP('',(#794,#795,#796,#797));
#155=EDGE_LOOP('',(#798,#799,#800,#801));
#156=EDGE_LOOP('',(#802,#803,#804,#805));
#157=EDGE_LOOP('',(#806,#807,#808,#809));
#158=EDGE_LOOP('',(#810,#811,#812,#813));
#159=EDGE_LOOP('',(#814,#815,#816,#817));
#160=EDGE_LOOP('',(#818,#819,#820,#821));
#161=EDGE_LOOP('',(#822,#823,#824,#825));
#162=EDGE_LOOP('',(#826,#827,#828,#829));
#163=EDGE_LOOP('',(#830,#831,#832,#833));
#164=EDGE_LOOP('',(#834,#835,#836,#837));
#165=EDGE_LOOP('',(#838,#839,#840,#841));
#166=EDGE_LOOP('',(#842,#843,#844,#845));
#167=EDGE_LOOP('',(#846,#847,#848,#849,#850,#851,#852,#853,#854,#855,#856));
#168=EDGE_LOOP('',(#857,#858,#859));
#169=EDGE_LOOP('',(#860,#861,#862));
#170=EDGE_LOOP('',(#863,#864,#865));
#171=EDGE_LOOP('',(#866,#867,#868,#869,#870,#871,#872,#873,#874,#875,#876));
#172=EDGE_LOOP('',(#877,#878,#879));
#173=EDGE_LOOP('',(#880,#881,#882));
#174=EDGE_LOOP('',(#883,#884,#885));
#175=EDGE_LOOP('',(#886,#887,#888,#889));
#176=EDGE_LOOP('',(#890,#891,#892,#893));
#177=EDGE_LOOP('',(#894,#895,#896));
#178=EDGE_LOOP('',(#897,#898,#899));
#179=EDGE_LOOP('',(#900,#901,#902));
#180=EDGE_LOOP('',(#903,#904,#905));
#181=EDGE_LOOP('',(#906,#907,#908,#909,#910,#911,#912,#913));
#182=EDGE_LOOP('',(#914));
#183=EDGE_LOOP('',(#915));
#184=EDGE_LOOP('',(#916));
#185=EDGE_LOOP('',(#917));
#186=LINE('',#1283,#302);
#187=LINE('',#1289,#303);
#188=LINE('',#1295,#304);
#189=LINE('',#1301,#305);
#190=LINE('',#1308,#306);
#191=LINE('',#1311,#307);
#192=LINE('',#1314,#308);
#193=LINE('',#1318,#309);
#194=LINE('',#1322,#310);
#195=LINE('',#1325,#311);
#196=LINE('',#1328,#312);
#197=LINE('',#1330,#313);
#198=LINE('',#1332,#314);
#199=LINE('',#1333,#315);
#200=LINE('',#1336,#316);
#201=LINE('',#1337,#317);
#202=LINE('',#1340,#318);
#203=LINE('',#1342,#319);
#204=LINE('',#1344,#320);
#205=LINE('',#1345,#321);
#206=LINE('',#1349,#322);
#207=LINE('',#1354,#323);
#208=LINE('',#1355,#324);
#209=LINE('',#1358,#325);
#210=LINE('',#1359,#326);
#211=LINE('',#1362,#327);
#212=LINE('',#1364,#328);
#213=LINE('',#1366,#329);
#214=LINE('',#1367,#330);
#215=LINE('',#1371,#331);
#216=LINE('',#1373,#332);
#217=LINE('',#1376,#333);
#218=LINE('',#1378,#334);
#219=LINE('',#1379,#335);
#220=LINE('',#1382,#336);
#221=LINE('',#1384,#337);
#222=LINE('',#1385,#338);
#223=LINE('',#1388,#339);
#224=LINE('',#1390,#340);
#225=LINE('',#1391,#341);
#226=LINE('',#1394,#342);
#227=LINE('',#1396,#343);
#228=LINE('',#1397,#344);
#229=LINE('',#1401,#345);
#230=LINE('',#1402,#346);
#231=LINE('',#1403,#347);
#232=LINE('',#1406,#348);
#233=LINE('',#1407,#349);
#234=LINE('',#1411,#350);
#235=LINE('',#1412,#351);
#236=LINE('',#1413,#352);
#237=LINE('',#1416,#353);
#238=LINE('',#1417,#354);
#239=LINE('',#1421,#355);
#240=LINE('',#1422,#356);
#241=LINE('',#1423,#357);
#242=LINE('',#1426,#358);
#243=LINE('',#1427,#359);
#244=LINE('',#1431,#360);
#245=LINE('',#1432,#361);
#246=LINE('',#1433,#362);
#247=LINE('',#1436,#363);
#248=LINE('',#1437,#364);
#249=LINE('',#1439,#365);
#250=LINE('',#1441,#366);
#251=LINE('',#1443,#367);
#252=LINE('',#1445,#368);
#253=LINE('',#1447,#369);
#254=LINE('',#1449,#370);
#255=LINE('',#1450,#371);
#256=LINE('',#1451,#372);
#257=LINE('',#1453,#373);
#258=LINE('',#1457,#374);
#259=LINE('',#1459,#375);
#260=LINE('',#1461,#376);
#261=LINE('',#1462,#377);
#262=LINE('',#1465,#378);
#263=LINE('',#1467,#379);
#264=LINE('',#1468,#380);
#265=LINE('',#1471,#381);
#266=LINE('',#1473,#382);
#267=LINE('',#1474,#383);
#268=LINE('',#1476,#384);
#269=LINE('',#1477,#385);
#270=LINE('',#1481,#386);
#271=LINE('',#1483,#387);
#272=LINE('',#1485,#388);
#273=LINE('',#1486,#389);
#274=LINE('',#1489,#390);
#275=LINE('',#1491,#391);
#276=LINE('',#1492,#392);
#277=LINE('',#1496,#393);
#278=LINE('',#1498,#394);
#279=LINE('',#1500,#395);
#280=LINE('',#1501,#396);
#281=LINE('',#1504,#397);
#282=LINE('',#1506,#398);
#283=LINE('',#1507,#399);
#284=LINE('',#1509,#400);
#285=LINE('',#1510,#401);
#286=LINE('',#1514,#402);
#287=LINE('',#1515,#403);
#288=LINE('',#1516,#404);
#289=LINE('',#1518,#405);
#290=LINE('',#1519,#406);
#291=LINE('',#1521,#407);
#292=LINE('',#1525,#408);
#293=LINE('',#1526,#409);
#294=LINE('',#1527,#410);
#295=LINE('',#1529,#411);
#296=LINE('',#1530,#412);
#297=LINE('',#1532,#413);
#298=LINE('',#1533,#414);
#299=LINE('',#1535,#415);
#300=LINE('',#1538,#416);
#301=LINE('',#1540,#417);
#302=VECTOR('',#1048,2.5);
#303=VECTOR('',#1055,2.5);
#304=VECTOR('',#1062,2.5);
#305=VECTOR('',#1069,2.5);
#306=VECTOR('',#1076,1.);
#307=VECTOR('',#1079,1.);
#308=VECTOR('',#1082,1.);
#309=VECTOR('',#1085,1.);
#310=VECTOR('',#1088,1.);
#311=VECTOR('',#1091,1.);
#312=VECTOR('',#1092,1.);
#313=VECTOR('',#1093,1.);
#314=VECTOR('',#1094,1.);
#315=VECTOR('',#1095,1.);
#316=VECTOR('',#1098,1.);
#317=VECTOR('',#1099,1.);
#318=VECTOR('',#1100,1.);
#319=VECTOR('',#1101,1.);
#320=VECTOR('',#1102,1.);
#321=VECTOR('',#1103,1.);
#322=VECTOR('',#1108,1.);
#323=VECTOR('',#1113,1.);
#324=VECTOR('',#1114,1.);
#325=VECTOR('',#1117,1.);
#326=VECTOR('',#1118,1.);
#327=VECTOR('',#1119,1.);
#328=VECTOR('',#1120,1.);
#329=VECTOR('',#1121,1.);
#330=VECTOR('',#1122,1.);
#331=VECTOR('',#1127,1.);
#332=VECTOR('',#1130,1.);
#333=VECTOR('',#1131,1.);
#334=VECTOR('',#1132,1.);
#335=VECTOR('',#1133,1.);
#336=VECTOR('',#1134,1.);
#337=VECTOR('',#1135,1.);
#338=VECTOR('',#1136,1.);
#339=VECTOR('',#1137,1.);
#340=VECTOR('',#1138,1.);
#341=VECTOR('',#1139,1.);
#342=VECTOR('',#1140,1.);
#343=VECTOR('',#1141,1.);
#344=VECTOR('',#1142,1.);
#345=VECTOR('',#1145,1.);
#346=VECTOR('',#1146,1.);
#347=VECTOR('',#1147,1.);
#348=VECTOR('',#1150,1.);
#349=VECTOR('',#1151,1.);
#350=VECTOR('',#1154,1.);
#351=VECTOR('',#1155,1.);
#352=VECTOR('',#1156,1.);
#353=VECTOR('',#1159,1.);
#354=VECTOR('',#1160,1.);
#355=VECTOR('',#1163,1.);
#356=VECTOR('',#1164,1.);
#357=VECTOR('',#1165,1.);
#358=VECTOR('',#1168,1.);
#359=VECTOR('',#1169,1.);
#360=VECTOR('',#1172,1.);
#361=VECTOR('',#1173,1.);
#362=VECTOR('',#1174,1.);
#363=VECTOR('',#1177,1.);
#364=VECTOR('',#1178,1.);
#365=VECTOR('',#1181,1.);
#366=VECTOR('',#1184,1.);
#367=VECTOR('',#1185,1.);
#368=VECTOR('',#1186,1.);
#369=VECTOR('',#1187,1.);
#370=VECTOR('',#1188,1.);
#371=VECTOR('',#1189,1.);
#372=VECTOR('',#1190,1.);
#373=VECTOR('',#1193,1.);
#374=VECTOR('',#1196,1.);
#375=VECTOR('',#1197,1.);
#376=VECTOR('',#1198,1.);
#377=VECTOR('',#1199,1.);
#378=VECTOR('',#1202,1.);
#379=VECTOR('',#1203,1.);
#380=VECTOR('',#1204,1.);
#381=VECTOR('',#1207,1.);
#382=VECTOR('',#1208,1.);
#383=VECTOR('',#1209,1.);
#384=VECTOR('',#1212,1.);
#385=VECTOR('',#1213,1.);
#386=VECTOR('',#1216,1.);
#387=VECTOR('',#1217,1.);
#388=VECTOR('',#1218,1.);
#389=VECTOR('',#1219,1.);
#390=VECTOR('',#1222,1.);
#391=VECTOR('',#1223,1.);
#392=VECTOR('',#1224,1.);
#393=VECTOR('',#1227,1.);
#394=VECTOR('',#1228,1.);
#395=VECTOR('',#1229,1.);
#396=VECTOR('',#1230,1.);
#397=VECTOR('',#1233,1.);
#398=VECTOR('',#1234,1.);
#399=VECTOR('',#1235,1.);
#400=VECTOR('',#1238,1.);
#401=VECTOR('',#1239,1.);
#402=VECTOR('',#1242,1.);
#403=VECTOR('',#1243,1.);
#404=VECTOR('',#1244,1.);
#405=VECTOR('',#1247,1.);
#406=VECTOR('',#1248,1.);
#407=VECTOR('',#1251,1.);
#408=VECTOR('',#1254,1.);
#409=VECTOR('',#1255,1.);
#410=VECTOR('',#1256,1.);
#411=VECTOR('',#1259,1.);
#412=VECTOR('',#1260,1.);
#413=VECTOR('',#1263,1.);
#414=VECTOR('',#1264,1.);
#415=VECTOR('',#1267,1.);
#416=VECTOR('',#1272,1.);
#417=VECTOR('',#1275,1.);
#418=CIRCLE('',#984,2.5);
#419=CIRCLE('',#985,2.5);
#420=CIRCLE('',#987,2.5);
#421=CIRCLE('',#988,2.5);
#422=CIRCLE('',#990,2.5);
#423=CIRCLE('',#991,2.5);
#424=CIRCLE('',#993,2.5);
#425=CIRCLE('',#994,2.5);
#426=CIRCLE('',#996,10.);
#427=CIRCLE('',#997,10.);
#428=CIRCLE('',#999,10.);
#429=CIRCLE('',#1000,10.);
#430=CIRCLE('',#1001,10.);
#431=CIRCLE('',#1004,10.);
#432=CIRCLE('',#1006,10.);
#433=CIRCLE('',#1009,10.);
#434=VERTEX_POINT('',#1280);
#435=VERTEX_POINT('',#1282);
#436=VERTEX_POINT('',#1286);
#437=VERTEX_POINT('',#1288);
#438=VERTEX_POINT('',#1292);
#439=VERTEX_POINT('',#1294);
#440=VERTEX_POINT('',#1298);
#441=VERTEX_POINT('',#1300);
#442=VERTEX_POINT('',#1304);
#443=VERTEX_POINT('',#1305);
#444=VERTEX_POINT('',#1307);
#445=VERTEX_POINT('',#1309);
#446=VERTEX_POINT('',#1313);
#447=VERTEX_POINT('',#1315);
#448=VERTEX_POINT('',#1317);
#449=VERTEX_POINT('',#1319);
#450=VERTEX_POINT('',#1321);
#451=VERTEX_POINT('',#1323);
#452=VERTEX_POINT('',#1326);
#453=VERTEX_POINT('',#1327);
#454=VERTEX_POINT('',#1329);
#455=VERTEX_POINT('',#1331);
#456=VERTEX_POINT('',#1335);
#457=VERTEX_POINT('',#1338);
#458=VERTEX_POINT('',#1339);
#459=VERTEX_POINT('',#1341);
#460=VERTEX_POINT('',#1343);
#461=VERTEX_POINT('',#1347);
#462=VERTEX_POINT('',#1351);
#463=VERTEX_POINT('',#1352);
#464=VERTEX_POINT('',#1357);
#465=VERTEX_POINT('',#1360);
#466=VERTEX_POINT('',#1361);
#467=VERTEX_POINT('',#1363);
#468=VERTEX_POINT('',#1365);
#469=VERTEX_POINT('',#1369);
#470=VERTEX_POINT('',#1374);
#471=VERTEX_POINT('',#1375);
#472=VERTEX_POINT('',#1377);
#473=VERTEX_POINT('',#1380);
#474=VERTEX_POINT('',#1381);
#475=VERTEX_POINT('',#1383);
#476=VERTEX_POINT('',#1386);
#477=VERTEX_POINT('',#1387);
#478=VERTEX_POINT('',#1389);
#479=VERTEX_POINT('',#1392);
#480=VERTEX_POINT('',#1393);
#481=VERTEX_POINT('',#1395);
#482=VERTEX_POINT('',#1399);
#483=VERTEX_POINT('',#1400);
#484=VERTEX_POINT('',#1405);
#485=VERTEX_POINT('',#1409);
#486=VERTEX_POINT('',#1410);
#487=VERTEX_POINT('',#1415);
#488=VERTEX_POINT('',#1419);
#489=VERTEX_POINT('',#1420);
#490=VERTEX_POINT('',#1425);
#491=VERTEX_POINT('',#1429);
#492=VERTEX_POINT('',#1430);
#493=VERTEX_POINT('',#1435);
#494=VERTEX_POINT('',#1442);
#495=VERTEX_POINT('',#1444);
#496=VERTEX_POINT('',#1446);
#497=VERTEX_POINT('',#1448);
#498=VERTEX_POINT('',#1455);
#499=VERTEX_POINT('',#1456);
#500=VERTEX_POINT('',#1458);
#501=VERTEX_POINT('',#1460);
#502=VERTEX_POINT('',#1464);
#503=VERTEX_POINT('',#1466);
#504=VERTEX_POINT('',#1470);
#505=VERTEX_POINT('',#1472);
#506=VERTEX_POINT('',#1479);
#507=VERTEX_POINT('',#1480);
#508=VERTEX_POINT('',#1482);
#509=VERTEX_POINT('',#1484);
#510=VERTEX_POINT('',#1488);
#511=VERTEX_POINT('',#1490);
#512=VERTEX_POINT('',#1494);
#513=VERTEX_POINT('',#1495);
#514=VERTEX_POINT('',#1497);
#515=VERTEX_POINT('',#1499);
#516=VERTEX_POINT('',#1503);
#517=VERTEX_POINT('',#1505);
#518=VERTEX_POINT('',#1512);
#519=VERTEX_POINT('',#1513);
#520=VERTEX_POINT('',#1523);
#521=VERTEX_POINT('',#1524);
#522=EDGE_CURVE('',#434,#434,#418,.T.);
#523=EDGE_CURVE('',#434,#435,#186,.T.);
#524=EDGE_CURVE('',#435,#435,#419,.T.);
#525=EDGE_CURVE('',#436,#436,#420,.T.);
#526=EDGE_CURVE('',#436,#437,#187,.T.);
#527=EDGE_CURVE('',#437,#437,#421,.T.);
#528=EDGE_CURVE('',#438,#438,#422,.T.);
#529=EDGE_CURVE('',#438,#439,#188,.T.);
#530=EDGE_CURVE('',#439,#439,#423,.T.);
#531=EDGE_CURVE('',#440,#440,#424,.T.);
#532=EDGE_CURVE('',#440,#441,#189,.T.);
#533=EDGE_CURVE('',#441,#441,#425,.T.);
#534=EDGE_CURVE('',#442,#443,#426,.T.);
#535=EDGE_CURVE('',#443,#444,#190,.T.);
#536=EDGE_CURVE('',#444,#445,#427,.T.);
#537=EDGE_CURVE('',#445,#442,#191,.T.);
#538=EDGE_CURVE('',#444,#446,#192,.T.);
#539=EDGE_CURVE('',#447,#446,#428,.T.);
#540=EDGE_CURVE('',#447,#448,#193,.T.);
#541=EDGE_CURVE('',#449,#448,#429,.T.);
#542=EDGE_CURVE('',#449,#450,#194,.T.);
#543=EDGE_CURVE('',#451,#450,#430,.T.);
#544=EDGE_CURVE('',#451,#445,#195,.T.);
#545=EDGE_CURVE('',#452,#453,#196,.T.);
#546=EDGE_CURVE('',#453,#454,#197,.T.);
#547=EDGE_CURVE('',#454,#455,#198,.T.);
#548=EDGE_CURVE('',#455,#452,#199,.T.);
#549=EDGE_CURVE('',#456,#443,#200,.T.);
#550=EDGE_CURVE('',#446,#456,#201,.T.);
#551=EDGE_CURVE('',#457,#458,#202,.T.);
#552=EDGE_CURVE('',#459,#457,#203,.T.);
#553=EDGE_CURVE('',#459,#460,#204,.T.);
#554=EDGE_CURVE('',#458,#460,#205,.T.);
#555=EDGE_CURVE('',#456,#461,#431,.T.);
#556=EDGE_CURVE('',#461,#447,#206,.T.);
#557=EDGE_CURVE('',#462,#463,#432,.T.);
#558=EDGE_CURVE('',#463,#451,#207,.T.);
#559=EDGE_CURVE('',#450,#462,#208,.T.);
#560=EDGE_CURVE('',#464,#449,#209,.T.);
#561=EDGE_CURVE('',#462,#464,#210,.T.);
#562=EDGE_CURVE('',#465,#466,#211,.T.);
#563=EDGE_CURVE('',#467,#465,#212,.T.);
#564=EDGE_CURVE('',#467,#468,#213,.T.);
#565=EDGE_CURVE('',#466,#468,#214,.T.);
#566=EDGE_CURVE('',#469,#464,#433,.T.);
#567=EDGE_CURVE('',#448,#469,#215,.T.);
#568=EDGE_CURVE('',#469,#461,#216,.T.);
#569=EDGE_CURVE('',#470,#471,#217,.T.);
#570=EDGE_CURVE('',#471,#472,#218,.T.);
#571=EDGE_CURVE('',#470,#472,#219,.T.);
#572=EDGE_CURVE('',#473,#474,#220,.T.);
#573=EDGE_CURVE('',#474,#475,#221,.T.);
#574=EDGE_CURVE('',#475,#473,#222,.T.);
#575=EDGE_CURVE('',#476,#477,#223,.T.);
#576=EDGE_CURVE('',#477,#478,#224,.T.);
#577=EDGE_CURVE('',#478,#476,#225,.T.);
#578=EDGE_CURVE('',#479,#480,#226,.T.);
#579=EDGE_CURVE('',#479,#481,#227,.T.);
#580=EDGE_CURVE('',#481,#480,#228,.T.);
#581=EDGE_CURVE('',#482,#483,#229,.T.);
#582=EDGE_CURVE('',#480,#482,#230,.T.);
#583=EDGE_CURVE('',#483,#481,#231,.T.);
#584=EDGE_CURVE('',#484,#483,#232,.T.);
#585=EDGE_CURVE('',#484,#479,#233,.T.);
#586=EDGE_CURVE('',#485,#486,#234,.T.);
#587=EDGE_CURVE('',#476,#486,#235,.T.);
#588=EDGE_CURVE('',#485,#478,#236,.T.);
#589=EDGE_CURVE('',#485,#487,#237,.T.);
#590=EDGE_CURVE('',#487,#477,#238,.T.);
#591=EDGE_CURVE('',#488,#489,#239,.T.);
#592=EDGE_CURVE('',#473,#488,#240,.T.);
#593=EDGE_CURVE('',#489,#475,#241,.T.);
#594=EDGE_CURVE('',#490,#489,#242,.T.);
#595=EDGE_CURVE('',#490,#474,#243,.T.);
#596=EDGE_CURVE('',#491,#492,#244,.T.);
#597=EDGE_CURVE('',#472,#492,#245,.T.);
#598=EDGE_CURVE('',#491,#471,#246,.T.);
#599=EDGE_CURVE('',#491,#493,#247,.T.);
#600=EDGE_CURVE('',#493,#470,#248,.T.);
#601=EDGE_CURVE('',#484,#482,#249,.T.);
#602=EDGE_CURVE('',#486,#467,#250,.T.);
#603=EDGE_CURVE('',#465,#494,#251,.T.);
#604=EDGE_CURVE('',#494,#495,#252,.T.);
#605=EDGE_CURVE('',#496,#495,#253,.T.);
#606=EDGE_CURVE('',#496,#497,#254,.T.);
#607=EDGE_CURVE('',#497,#459,#255,.T.);
#608=EDGE_CURVE('',#457,#487,#256,.T.);
#609=EDGE_CURVE('',#488,#490,#257,.T.);
#610=EDGE_CURVE('',#498,#499,#258,.T.);
#611=EDGE_CURVE('',#500,#498,#259,.T.);
#612=EDGE_CURVE('',#501,#500,#260,.T.);
#613=EDGE_CURVE('',#499,#501,#261,.T.);
#614=EDGE_CURVE('',#502,#499,#262,.T.);
#615=EDGE_CURVE('',#503,#501,#263,.T.);
#616=EDGE_CURVE('',#502,#503,#264,.T.);
#617=EDGE_CURVE('',#504,#495,#265,.T.);
#618=EDGE_CURVE('',#505,#494,#266,.T.);
#619=EDGE_CURVE('',#504,#505,#267,.T.);
#620=EDGE_CURVE('',#504,#496,#268,.T.);
#621=EDGE_CURVE('',#497,#505,#269,.T.);
#622=EDGE_CURVE('',#506,#507,#270,.T.);
#623=EDGE_CURVE('',#508,#506,#271,.T.);
#624=EDGE_CURVE('',#509,#508,#272,.T.);
#625=EDGE_CURVE('',#507,#509,#273,.T.);
#626=EDGE_CURVE('',#510,#507,#274,.T.);
#627=EDGE_CURVE('',#511,#509,#275,.T.);
#628=EDGE_CURVE('',#510,#511,#276,.T.);
#629=EDGE_CURVE('',#512,#513,#277,.T.);
#630=EDGE_CURVE('',#514,#513,#278,.T.);
#631=EDGE_CURVE('',#515,#514,#279,.T.);
#632=EDGE_CURVE('',#512,#515,#280,.T.);
#633=EDGE_CURVE('',#512,#516,#281,.T.);
#634=EDGE_CURVE('',#517,#515,#282,.T.);
#635=EDGE_CURVE('',#516,#517,#283,.T.);
#636=EDGE_CURVE('',#514,#517,#284,.T.);
#637=EDGE_CURVE('',#513,#516,#285,.T.);
#638=EDGE_CURVE('',#518,#519,#286,.T.);
#639=EDGE_CURVE('',#518,#453,#287,.T.);
#640=EDGE_CURVE('',#519,#452,#288,.T.);
#641=EDGE_CURVE('',#458,#519,#289,.T.);
#642=EDGE_CURVE('',#518,#460,#290,.T.);
#643=EDGE_CURVE('',#493,#492,#291,.T.);
#644=EDGE_CURVE('',#520,#521,#292,.T.);
#645=EDGE_CURVE('',#521,#455,#293,.T.);
#646=EDGE_CURVE('',#520,#454,#294,.T.);
#647=EDGE_CURVE('',#521,#468,#295,.T.);
#648=EDGE_CURVE('',#466,#520,#296,.T.);
#649=EDGE_CURVE('',#506,#510,#297,.T.);
#650=EDGE_CURVE('',#508,#511,#298,.T.);
#651=EDGE_CURVE('',#503,#500,#299,.T.);
#652=EDGE_CURVE('',#502,#498,#300,.T.);
#653=EDGE_CURVE('',#442,#463,#301,.T.);
#654=ORIENTED_EDGE('',*,*,#522,.F.);
#655=ORIENTED_EDGE('',*,*,#523,.T.);
#656=ORIENTED_EDGE('',*,*,#524,.F.);
#657=ORIENTED_EDGE('',*,*,#523,.F.);
#658=ORIENTED_EDGE('',*,*,#525,.F.);
#659=ORIENTED_EDGE('',*,*,#526,.T.);
#660=ORIENTED_EDGE('',*,*,#527,.F.);
#661=ORIENTED_EDGE('',*,*,#526,.F.);
#662=ORIENTED_EDGE('',*,*,#528,.F.);
#663=ORIENTED_EDGE('',*,*,#529,.T.);
#664=ORIENTED_EDGE('',*,*,#530,.F.);
#665=ORIENTED_EDGE('',*,*,#529,.F.);
#666=ORIENTED_EDGE('',*,*,#531,.F.);
#667=ORIENTED_EDGE('',*,*,#532,.T.);
#668=ORIENTED_EDGE('',*,*,#533,.F.);
#669=ORIENTED_EDGE('',*,*,#532,.F.);
#670=ORIENTED_EDGE('',*,*,#534,.T.);
#671=ORIENTED_EDGE('',*,*,#535,.T.);
#672=ORIENTED_EDGE('',*,*,#536,.T.);
#673=ORIENTED_EDGE('',*,*,#537,.T.);
#674=ORIENTED_EDGE('',*,*,#536,.F.);
#675=ORIENTED_EDGE('',*,*,#538,.T.);
#676=ORIENTED_EDGE('',*,*,#539,.F.);
#677=ORIENTED_EDGE('',*,*,#540,.T.);
#678=ORIENTED_EDGE('',*,*,#541,.F.);
#679=ORIENTED_EDGE('',*,*,#542,.T.);
#680=ORIENTED_EDGE('',*,*,#543,.F.);
#681=ORIENTED_EDGE('',*,*,#544,.T.);
#682=ORIENTED_EDGE('',*,*,#545,.T.);
#683=ORIENTED_EDGE('',*,*,#546,.T.);
#684=ORIENTED_EDGE('',*,*,#547,.T.);
#685=ORIENTED_EDGE('',*,*,#548,.T.);
#686=ORIENTED_EDGE('',*,*,#535,.F.);
#687=ORIENTED_EDGE('',*,*,#549,.F.);
#688=ORIENTED_EDGE('',*,*,#550,.F.);
#689=ORIENTED_EDGE('',*,*,#538,.F.);
#690=ORIENTED_EDGE('',*,*,#551,.F.);
#691=ORIENTED_EDGE('',*,*,#552,.F.);
#692=ORIENTED_EDGE('',*,*,#553,.T.);
#693=ORIENTED_EDGE('',*,*,#554,.F.);
#694=ORIENTED_EDGE('',*,*,#555,.T.);
#695=ORIENTED_EDGE('',*,*,#556,.T.);
#696=ORIENTED_EDGE('',*,*,#539,.T.);
#697=ORIENTED_EDGE('',*,*,#550,.T.);
#698=ORIENTED_EDGE('',*,*,#557,.T.);
#699=ORIENTED_EDGE('',*,*,#558,.T.);
#700=ORIENTED_EDGE('',*,*,#543,.T.);
#701=ORIENTED_EDGE('',*,*,#559,.T.);
#702=ORIENTED_EDGE('',*,*,#559,.F.);
#703=ORIENTED_EDGE('',*,*,#542,.F.);
#704=ORIENTED_EDGE('',*,*,#560,.F.);
#705=ORIENTED_EDGE('',*,*,#561,.F.);
#706=ORIENTED_EDGE('',*,*,#562,.F.);
#707=ORIENTED_EDGE('',*,*,#563,.F.);
#708=ORIENTED_EDGE('',*,*,#564,.T.);
#709=ORIENTED_EDGE('',*,*,#565,.F.);
#710=ORIENTED_EDGE('',*,*,#566,.T.);
#711=ORIENTED_EDGE('',*,*,#560,.T.);
#712=ORIENTED_EDGE('',*,*,#541,.T.);
#713=ORIENTED_EDGE('',*,*,#567,.T.);
#714=ORIENTED_EDGE('',*,*,#556,.F.);
#715=ORIENTED_EDGE('',*,*,#568,.F.);
#716=ORIENTED_EDGE('',*,*,#567,.F.);
#717=ORIENTED_EDGE('',*,*,#540,.F.);
#718=ORIENTED_EDGE('',*,*,#569,.T.);
#719=ORIENTED_EDGE('',*,*,#570,.T.);
#720=ORIENTED_EDGE('',*,*,#571,.F.);
#721=ORIENTED_EDGE('',*,*,#572,.T.);
#722=ORIENTED_EDGE('',*,*,#573,.T.);
#723=ORIENTED_EDGE('',*,*,#574,.T.);
#724=ORIENTED_EDGE('',*,*,#575,.T.);
#725=ORIENTED_EDGE('',*,*,#576,.T.);
#726=ORIENTED_EDGE('',*,*,#577,.T.);
#727=ORIENTED_EDGE('',*,*,#578,.F.);
#728=ORIENTED_EDGE('',*,*,#579,.T.);
#729=ORIENTED_EDGE('',*,*,#580,.T.);
#730=ORIENTED_EDGE('',*,*,#581,.F.);
#731=ORIENTED_EDGE('',*,*,#582,.F.);
#732=ORIENTED_EDGE('',*,*,#580,.F.);
#733=ORIENTED_EDGE('',*,*,#583,.F.);
#734=ORIENTED_EDGE('',*,*,#584,.T.);
#735=ORIENTED_EDGE('',*,*,#583,.T.);
#736=ORIENTED_EDGE('',*,*,#579,.F.);
#737=ORIENTED_EDGE('',*,*,#585,.F.);
#738=ORIENTED_EDGE('',*,*,#586,.T.);
#739=ORIENTED_EDGE('',*,*,#587,.F.);
#740=ORIENTED_EDGE('',*,*,#577,.F.);
#741=ORIENTED_EDGE('',*,*,#588,.F.);
#742=ORIENTED_EDGE('',*,*,#589,.F.);
#743=ORIENTED_EDGE('',*,*,#588,.T.);
#744=ORIENTED_EDGE('',*,*,#576,.F.);
#745=ORIENTED_EDGE('',*,*,#590,.F.);
#746=ORIENTED_EDGE('',*,*,#591,.F.);
#747=ORIENTED_EDGE('',*,*,#592,.F.);
#748=ORIENTED_EDGE('',*,*,#574,.F.);
#749=ORIENTED_EDGE('',*,*,#593,.F.);
#750=ORIENTED_EDGE('',*,*,#594,.T.);
#751=ORIENTED_EDGE('',*,*,#593,.T.);
#752=ORIENTED_EDGE('',*,*,#573,.F.);
#753=ORIENTED_EDGE('',*,*,#595,.F.);
#754=ORIENTED_EDGE('',*,*,#596,.T.);
#755=ORIENTED_EDGE('',*,*,#597,.F.);
#756=ORIENTED_EDGE('',*,*,#570,.F.);
#757=ORIENTED_EDGE('',*,*,#598,.F.);
#758=ORIENTED_EDGE('',*,*,#599,.F.);
#759=ORIENTED_EDGE('',*,*,#598,.T.);
#760=ORIENTED_EDGE('',*,*,#569,.F.);
#761=ORIENTED_EDGE('',*,*,#600,.F.);
#762=ORIENTED_EDGE('',*,*,#582,.T.);
#763=ORIENTED_EDGE('',*,*,#601,.F.);
#764=ORIENTED_EDGE('',*,*,#585,.T.);
#765=ORIENTED_EDGE('',*,*,#578,.T.);
#766=ORIENTED_EDGE('',*,*,#587,.T.);
#767=ORIENTED_EDGE('',*,*,#602,.T.);
#768=ORIENTED_EDGE('',*,*,#563,.T.);
#769=ORIENTED_EDGE('',*,*,#603,.T.);
#770=ORIENTED_EDGE('',*,*,#604,.T.);
#771=ORIENTED_EDGE('',*,*,#605,.F.);
#772=ORIENTED_EDGE('',*,*,#606,.T.);
#773=ORIENTED_EDGE('',*,*,#607,.T.);
#774=ORIENTED_EDGE('',*,*,#552,.T.);
#775=ORIENTED_EDGE('',*,*,#608,.T.);
#776=ORIENTED_EDGE('',*,*,#590,.T.);
#777=ORIENTED_EDGE('',*,*,#575,.F.);
#778=ORIENTED_EDGE('',*,*,#522,.T.);
#779=ORIENTED_EDGE('',*,*,#525,.T.);
#780=ORIENTED_EDGE('',*,*,#528,.T.);
#781=ORIENTED_EDGE('',*,*,#531,.T.);
#782=ORIENTED_EDGE('',*,*,#592,.T.);
#783=ORIENTED_EDGE('',*,*,#609,.T.);
#784=ORIENTED_EDGE('',*,*,#595,.T.);
#785=ORIENTED_EDGE('',*,*,#572,.F.);
#786=ORIENTED_EDGE('',*,*,#610,.F.);
#787=ORIENTED_EDGE('',*,*,#611,.F.);
#788=ORIENTED_EDGE('',*,*,#612,.F.);
#789=ORIENTED_EDGE('',*,*,#613,.F.);
#790=ORIENTED_EDGE('',*,*,#614,.T.);
#791=ORIENTED_EDGE('',*,*,#613,.T.);
#792=ORIENTED_EDGE('',*,*,#615,.F.);
#793=ORIENTED_EDGE('',*,*,#616,.F.);
#794=ORIENTED_EDGE('',*,*,#617,.T.);
#795=ORIENTED_EDGE('',*,*,#604,.F.);
#796=ORIENTED_EDGE('',*,*,#618,.F.);
#797=ORIENTED_EDGE('',*,*,#619,.F.);
#798=ORIENTED_EDGE('',*,*,#620,.F.);
#799=ORIENTED_EDGE('',*,*,#619,.T.);
#800=ORIENTED_EDGE('',*,*,#621,.F.);
#801=ORIENTED_EDGE('',*,*,#606,.F.);
#802=ORIENTED_EDGE('',*,*,#622,.F.);
#803=ORIENTED_EDGE('',*,*,#623,.F.);
#804=ORIENTED_EDGE('',*,*,#624,.F.);
#805=ORIENTED_EDGE('',*,*,#625,.F.);
#806=ORIENTED_EDGE('',*,*,#626,.T.);
#807=ORIENTED_EDGE('',*,*,#625,.T.);
#808=ORIENTED_EDGE('',*,*,#627,.F.);
#809=ORIENTED_EDGE('',*,*,#628,.F.);
#810=ORIENTED_EDGE('',*,*,#629,.T.);
#811=ORIENTED_EDGE('',*,*,#630,.F.);
#812=ORIENTED_EDGE('',*,*,#631,.F.);
#813=ORIENTED_EDGE('',*,*,#632,.F.);
#814=ORIENTED_EDGE('',*,*,#633,.F.);
#815=ORIENTED_EDGE('',*,*,#632,.T.);
#816=ORIENTED_EDGE('',*,*,#634,.F.);
#817=ORIENTED_EDGE('',*,*,#635,.F.);
#818=ORIENTED_EDGE('',*,*,#635,.T.);
#819=ORIENTED_EDGE('',*,*,#636,.F.);
#820=ORIENTED_EDGE('',*,*,#630,.T.);
#821=ORIENTED_EDGE('',*,*,#637,.T.);
#822=ORIENTED_EDGE('',*,*,#638,.F.);
#823=ORIENTED_EDGE('',*,*,#639,.T.);
#824=ORIENTED_EDGE('',*,*,#545,.F.);
#825=ORIENTED_EDGE('',*,*,#640,.F.);
#826=ORIENTED_EDGE('',*,*,#638,.T.);
#827=ORIENTED_EDGE('',*,*,#641,.F.);
#828=ORIENTED_EDGE('',*,*,#554,.T.);
#829=ORIENTED_EDGE('',*,*,#642,.F.);
#830=ORIENTED_EDGE('',*,*,#600,.T.);
#831=ORIENTED_EDGE('',*,*,#571,.T.);
#832=ORIENTED_EDGE('',*,*,#597,.T.);
#833=ORIENTED_EDGE('',*,*,#643,.F.);
#834=ORIENTED_EDGE('',*,*,#644,.T.);
#835=ORIENTED_EDGE('',*,*,#645,.T.);
#836=ORIENTED_EDGE('',*,*,#547,.F.);
#837=ORIENTED_EDGE('',*,*,#646,.F.);
#838=ORIENTED_EDGE('',*,*,#565,.T.);
#839=ORIENTED_EDGE('',*,*,#647,.F.);
#840=ORIENTED_EDGE('',*,*,#644,.F.);
#841=ORIENTED_EDGE('',*,*,#648,.F.);
#842=ORIENTED_EDGE('',*,*,#623,.T.);
#843=ORIENTED_EDGE('',*,*,#649,.T.);
#844=ORIENTED_EDGE('',*,*,#628,.T.);
#845=ORIENTED_EDGE('',*,*,#650,.F.);
#846=ORIENTED_EDGE('',*,*,#646,.T.);
#847=ORIENTED_EDGE('',*,*,#546,.F.);
#848=ORIENTED_EDGE('',*,*,#639,.F.);
#849=ORIENTED_EDGE('',*,*,#642,.T.);
#850=ORIENTED_EDGE('',*,*,#553,.F.);
#851=ORIENTED_EDGE('',*,*,#607,.F.);
#852=ORIENTED_EDGE('',*,*,#621,.T.);
#853=ORIENTED_EDGE('',*,*,#618,.T.);
#854=ORIENTED_EDGE('',*,*,#603,.F.);
#855=ORIENTED_EDGE('',*,*,#562,.T.);
#856=ORIENTED_EDGE('',*,*,#648,.T.);
#857=ORIENTED_EDGE('',*,*,#651,.F.);
#858=ORIENTED_EDGE('',*,*,#615,.T.);
#859=ORIENTED_EDGE('',*,*,#612,.T.);
#860=ORIENTED_EDGE('',*,*,#650,.T.);
#861=ORIENTED_EDGE('',*,*,#627,.T.);
#862=ORIENTED_EDGE('',*,*,#624,.T.);
#863=ORIENTED_EDGE('',*,*,#634,.T.);
#864=ORIENTED_EDGE('',*,*,#631,.T.);
#865=ORIENTED_EDGE('',*,*,#636,.T.);
#866=ORIENTED_EDGE('',*,*,#647,.T.);
#867=ORIENTED_EDGE('',*,*,#564,.F.);
#868=ORIENTED_EDGE('',*,*,#602,.F.);
#869=ORIENTED_EDGE('',*,*,#586,.F.);
#870=ORIENTED_EDGE('',*,*,#589,.T.);
#871=ORIENTED_EDGE('',*,*,#608,.F.);
#872=ORIENTED_EDGE('',*,*,#551,.T.);
#873=ORIENTED_EDGE('',*,*,#641,.T.);
#874=ORIENTED_EDGE('',*,*,#640,.T.);
#875=ORIENTED_EDGE('',*,*,#548,.F.);
#876=ORIENTED_EDGE('',*,*,#645,.F.);
#877=ORIENTED_EDGE('',*,*,#643,.T.);
#878=ORIENTED_EDGE('',*,*,#596,.F.);
#879=ORIENTED_EDGE('',*,*,#599,.T.);
#880=ORIENTED_EDGE('',*,*,#591,.T.);
#881=ORIENTED_EDGE('',*,*,#594,.F.);
#882=ORIENTED_EDGE('',*,*,#609,.F.);
#883=ORIENTED_EDGE('',*,*,#581,.T.);
#884=ORIENTED_EDGE('',*,*,#584,.F.);
#885=ORIENTED_EDGE('',*,*,#601,.T.);
#886=ORIENTED_EDGE('',*,*,#611,.T.);
#887=ORIENTED_EDGE('',*,*,#652,.F.);
#888=ORIENTED_EDGE('',*,*,#616,.T.);
#889=ORIENTED_EDGE('',*,*,#651,.T.);
#890=ORIENTED_EDGE('',*,*,#537,.F.);
#891=ORIENTED_EDGE('',*,*,#544,.F.);
#892=ORIENTED_EDGE('',*,*,#558,.F.);
#893=ORIENTED_EDGE('',*,*,#653,.F.);
#894=ORIENTED_EDGE('',*,*,#637,.F.);
#895=ORIENTED_EDGE('',*,*,#629,.F.);
#896=ORIENTED_EDGE('',*,*,#633,.T.);
#897=ORIENTED_EDGE('',*,*,#610,.T.);
#898=ORIENTED_EDGE('',*,*,#614,.F.);
#899=ORIENTED_EDGE('',*,*,#652,.T.);
#900=ORIENTED_EDGE('',*,*,#617,.F.);
#901=ORIENTED_EDGE('',*,*,#620,.T.);
#902=ORIENTED_EDGE('',*,*,#605,.T.);
#903=ORIENTED_EDGE('',*,*,#622,.T.);
#904=ORIENTED_EDGE('',*,*,#626,.F.);
#905=ORIENTED_EDGE('',*,*,#649,.F.);
#906=ORIENTED_EDGE('',*,*,#534,.F.);
#907=ORIENTED_EDGE('',*,*,#653,.T.);
#908=ORIENTED_EDGE('',*,*,#557,.F.);
#909=ORIENTED_EDGE('',*,*,#561,.T.);
#910=ORIENTED_EDGE('',*,*,#566,.F.);
#911=ORIENTED_EDGE('',*,*,#568,.T.);
#912=ORIENTED_EDGE('',*,*,#555,.F.);
#913=ORIENTED_EDGE('',*,*,#549,.T.);
#914=ORIENTED_EDGE('',*,*,#524,.T.);
#915=ORIENTED_EDGE('',*,*,#527,.T.);
#916=ORIENTED_EDGE('',*,*,#530,.T.);
#917=ORIENTED_EDGE('',*,*,#533,.T.);
#918=CYLINDRICAL_SURFACE('',#983,2.5);
#919=CYLINDRICAL_SURFACE('',#986,2.5);
#920=CYLINDRICAL_SURFACE('',#989,2.5);
#921=CYLINDRICAL_SURFACE('',#992,2.5);
#922=CYLINDRICAL_SURFACE('',#995,10.);
#923=CYLINDRICAL_SURFACE('',#1003,10.);
#924=CYLINDRICAL_SURFACE('',#1005,10.);
#925=CYLINDRICAL_SURFACE('',#1008,10.);
#926=ADVANCED_FACE('',(#75),#918,.F.);
#927=ADVANCED_FACE('',(#76),#919,.F.);
#928=ADVANCED_FACE('',(#77),#920,.F.);
#929=ADVANCED_FACE('',(#78),#921,.F.);
#930=ADVANCED_FACE('',(#79),#922,.T.);
#931=ADVANCED_FACE('',(#80,#15),#40,.T.);
#932=ADVANCED_FACE('',(#81,#16),#41,.T.);
#933=ADVANCED_FACE('',(#82),#923,.T.);
#934=ADVANCED_FACE('',(#83),#924,.T.);
#935=ADVANCED_FACE('',(#84,#17),#42,.T.);
#936=ADVANCED_FACE('',(#85),#925,.T.);
#937=ADVANCED_FACE('',(#86,#18,#19,#20,#21),#43,.T.);
#938=ADVANCED_FACE('',(#87),#44,.T.);
#939=ADVANCED_FACE('',(#88),#45,.T.);
#940=ADVANCED_FACE('',(#89),#46,.T.);
#941=ADVANCED_FACE('',(#90),#47,.T.);
#942=ADVANCED_FACE('',(#91),#48,.T.);
#943=ADVANCED_FACE('',(#92),#49,.T.);
#944=ADVANCED_FACE('',(#93),#50,.T.);
#945=ADVANCED_FACE('',(#94),#51,.T.);
#946=ADVANCED_FACE('',(#95),#52,.T.);
#947=ADVANCED_FACE('',(#96,#22,#23,#24,#25),#53,.F.);
#948=ADVANCED_FACE('',(#97),#54,.T.);
#949=ADVANCED_FACE('',(#98),#55,.T.);
#950=ADVANCED_FACE('',(#99),#56,.T.);
#951=ADVANCED_FACE('',(#100),#57,.T.);
#952=ADVANCED_FACE('',(#101),#58,.T.);
#953=ADVANCED_FACE('',(#102),#59,.T.);
#954=ADVANCED_FACE('',(#103),#60,.T.);
#955=ADVANCED_FACE('',(#104),#61,.T.);
#956=ADVANCED_FACE('',(#105),#62,.T.);
#957=ADVANCED_FACE('',(#106),#63,.T.);
#958=ADVANCED_FACE('',(#107),#64,.T.);
#959=ADVANCED_FACE('',(#108),#65,.T.);
#960=ADVANCED_FACE('',(#109),#66,.T.);
#961=ADVANCED_FACE('',(#110),#67,.T.);
#962=ADVANCED_FACE('',(#111),#68,.T.);
#963=ADVANCED_FACE('',(#112),#69,.T.);
#964=ADVANCED_FACE('',(#113,#26,#27,#28),#70,.T.);
#965=ADVANCED_FACE('',(#114,#29,#30,#31),#71,.T.);
#966=ADVANCED_FACE('',(#115),#72,.T.);
#967=ADVANCED_FACE('',(#116,#32,#33,#34,#35),#73,.T.);
#968=ADVANCED_FACE('',(#117,#36,#37,#38,#39),#74,.T.);
#969=CLOSED_SHELL('',(#926,#927,#928,#929,#930,#931,#932,#933,#934,#935,
#936,#937,#938,#939,#940,#941,#942,#943,#944,#945,#946,#947,#948,#949,#950,
#951,#952,#953,#954,#955,#956,#957,#958,#959,#960,#961,#962,#963,#964,#965,
#966,#967,#968));
#970=DERIVED_UNIT_ELEMENT(#972,1.);
#971=DERIVED_UNIT_ELEMENT(#1547,-3.);
#972=(
MASS_UNIT()
NAMED_UNIT(*)
SI_UNIT(.KILO.,.GRAM.)
);
#973=DERIVED_UNIT((#970,#971));
#974=MEASURE_REPRESENTATION_ITEM('density measure',
POSITIVE_RATIO_MEASURE(7850.),#973);
#975=PROPERTY_DEFINITION_REPRESENTATION(#980,#977);
#976=PROPERTY_DEFINITION_REPRESENTATION(#981,#978);
#977=REPRESENTATION('material name',(#979),#1544);
#978=REPRESENTATION('density',(#974),#1544);
#979=DESCRIPTIVE_REPRESENTATION_ITEM('A\X\E7o','A\X\E7o');
#980=PROPERTY_DEFINITION('material property','material name',#1554);
#981=PROPERTY_DEFINITION('material property','density of part',#1554);
#982=AXIS2_PLACEMENT_3D('',#1278,#1042,#1043);
#983=AXIS2_PLACEMENT_3D('',#1279,#1044,#1045);
#984=AXIS2_PLACEMENT_3D('',#1281,#1046,#1047);
#985=AXIS2_PLACEMENT_3D('',#1284,#1049,#1050);
#986=AXIS2_PLACEMENT_3D('',#1285,#1051,#1052);
#987=AXIS2_PLACEMENT_3D('',#1287,#1053,#1054);
#988=AXIS2_PLACEMENT_3D('',#1290,#1056,#1057);
#989=AXIS2_PLACEMENT_3D('',#1291,#1058,#1059);
#990=AXIS2_PLACEMENT_3D('',#1293,#1060,#1061);
#991=AXIS2_PLACEMENT_3D('',#1296,#1063,#1064);
#992=AXIS2_PLACEMENT_3D('',#1297,#1065,#1066);
#993=AXIS2_PLACEMENT_3D('',#1299,#1067,#1068);
#994=AXIS2_PLACEMENT_3D('',#1302,#1070,#1071);
#995=AXIS2_PLACEMENT_3D('',#1303,#1072,#1073);
#996=AXIS2_PLACEMENT_3D('',#1306,#1074,#1075);
#997=AXIS2_PLACEMENT_3D('',#1310,#1077,#1078);
#998=AXIS2_PLACEMENT_3D('',#1312,#1080,#1081);
#999=AXIS2_PLACEMENT_3D('',#1316,#1083,#1084);
#1000=AXIS2_PLACEMENT_3D('',#1320,#1086,#1087);
#1001=AXIS2_PLACEMENT_3D('',#1324,#1089,#1090);
#1002=AXIS2_PLACEMENT_3D('',#1334,#1096,#1097);
#1003=AXIS2_PLACEMENT_3D('',#1346,#1104,#1105);
#1004=AXIS2_PLACEMENT_3D('',#1348,#1106,#1107);
#1005=AXIS2_PLACEMENT_3D('',#1350,#1109,#1110);
#1006=AXIS2_PLACEMENT_3D('',#1353,#1111,#1112);
#1007=AXIS2_PLACEMENT_3D('',#1356,#1115,#1116);
#1008=AXIS2_PLACEMENT_3D('',#1368,#1123,#1124);
#1009=AXIS2_PLACEMENT_3D('',#1370,#1125,#1126);
#1010=AXIS2_PLACEMENT_3D('',#1372,#1128,#1129);
#1011=AXIS2_PLACEMENT_3D('',#1398,#1143,#1144);
#1012=AXIS2_PLACEMENT_3D('',#1404,#1148,#1149);
#1013=AXIS2_PLACEMENT_3D('',#1408,#1152,#1153);
#1014=AXIS2_PLACEMENT_3D('',#1414,#1157,#1158);
#1015=AXIS2_PLACEMENT_3D('',#1418,#1161,#1162);
#1016=AXIS2_PLACEMENT_3D('',#1424,#1166,#1167);
#1017=AXIS2_PLACEMENT_3D('',#1428,#1170,#1171);
#1018=AXIS2_PLACEMENT_3D('',#1434,#1175,#1176);
#1019=AXIS2_PLACEMENT_3D('',#1438,#1179,#1180);
#1020=AXIS2_PLACEMENT_3D('',#1440,#1182,#1183);
#1021=AXIS2_PLACEMENT_3D('',#1452,#1191,#1192);
#1022=AXIS2_PLACEMENT_3D('',#1454,#1194,#1195);
#1023=AXIS2_PLACEMENT_3D('',#1463,#1200,#1201);
#1024=AXIS2_PLACEMENT_3D('',#1469,#1205,#1206);
#1025=AXIS2_PLACEMENT_3D('',#1475,#1210,#1211);
#1026=AXIS2_PLACEMENT_3D('',#1478,#1214,#1215);
#1027=AXIS2_PLACEMENT_3D('',#1487,#1220,#1221);
#1028=AXIS2_PLACEMENT_3D('',#1493,#1225,#1226);
#1029=AXIS2_PLACEMENT_3D('',#1502,#1231,#1232);
#1030=AXIS2_PLACEMENT_3D('',#1508,#1236,#1237);
#1031=AXIS2_PLACEMENT_3D('',#1511,#1240,#1241);
#1032=AXIS2_PLACEMENT_3D('',#1517,#1245,#1246);
#1033=AXIS2_PLACEMENT_3D('',#1520,#1249,#1250);
#1034=AXIS2_PLACEMENT_3D('',#1522,#1252,#1253);
#1035=AXIS2_PLACEMENT_3D('',#1528,#1257,#1258);
#1036=AXIS2_PLACEMENT_3D('',#1531,#1261,#1262);
#1037=AXIS2_PLACEMENT_3D('',#1534,#1265,#1266);
#1038=AXIS2_PLACEMENT_3D('',#1536,#1268,#1269);
#1039=AXIS2_PLACEMENT_3D('',#1537,#1270,#1271);
#1040=AXIS2_PLACEMENT_3D('',#1539,#1273,#1274);
#1041=AXIS2_PLACEMENT_3D('',#1541,#1276,#1277);
#1042=DIRECTION('axis',(0.,0.,1.));
#1043=DIRECTION('refdir',(1.,0.,0.));
#1044=DIRECTION('center_axis',(0.,1.,0.));
#1045=DIRECTION('ref_axis',(1.,0.,0.));
#1046=DIRECTION('center_axis',(0.,1.,0.));
#1047=DIRECTION('ref_axis',(1.,0.,0.));
#1048=DIRECTION('',(0.,1.,0.));
#1049=DIRECTION('center_axis',(0.,-1.,0.));
#1050=DIRECTION('ref_axis',(1.,0.,0.));
#1051=DIRECTION('center_axis',(0.,1.,0.));
#1052=DIRECTION('ref_axis',(1.,0.,0.));
#1053=DIRECTION('center_axis',(0.,1.,0.));
#1054=DIRECTION('ref_axis',(1.,0.,0.));
#1055=DIRECTION('',(0.,1.,0.));
#1056=DIRECTION('center_axis',(0.,-1.,0.));
#1057=DIRECTION('ref_axis',(1.,0.,0.));
#1058=DIRECTION('center_axis',(0.,1.,0.));
#1059=DIRECTION('ref_axis',(1.,0.,0.));
#1060=DIRECTION('center_axis',(0.,1.,0.));
#1061=DIRECTION('ref_axis',(1.,0.,0.));
#1062=DIRECTION('',(0.,1.,0.));
#1063=DIRECTION('center_axis',(0.,-1.,0.));
#1064=DIRECTION('ref_axis',(1.,0.,0.));
#1065=DIRECTION('center_axis',(0.,1.,0.));
#1066=DIRECTION('ref_axis',(1.,0.,0.));
#1067=DIRECTION('center_axis',(0.,1.,0.));
#1068=DIRECTION('ref_axis',(1.,0.,0.));
#1069=DIRECTION('',(0.,1.,0.));
#1070=DIRECTION('center_axis',(0.,-1.,0.));
#1071=DIRECTION('ref_axis',(1.,0.,0.));
#1072=DIRECTION('center_axis',(0.,1.,0.));
#1073=DIRECTION('ref_axis',(-0.707106781186547,0.,0.707106781186547));
#1074=DIRECTION('center_axis',(0.,-1.,0.));
#1075=DIRECTION('ref_axis',(-0.707106781186547,0.,0.707106781186547));
#1076=DIRECTION('',(0.,-1.,0.));
#1077=DIRECTION('center_axis',(0.,1.,0.));
#1078=DIRECTION('ref_axis',(-0.707106781186547,0.,0.707106781186547));
#1079=DIRECTION('',(0.,1.,0.));
#1080=DIRECTION('center_axis',(0.,-1.,0.));
#1081=DIRECTION('ref_axis',(0.,0.,-1.));
#1082=DIRECTION('',(0.,0.,-1.));
#1083=DIRECTION('center_axis',(0.,1.,0.));
#1084=DIRECTION('ref_axis',(-0.707106781186547,0.,-0.707106781186547));
#1085=DIRECTION('',(1.,0.,0.));
#1086=DIRECTION('center_axis',(0.,1.,0.));
#1087=DIRECTION('ref_axis',(0.707106781186547,0.,-0.707106781186547));
#1088=DIRECTION('',(0.,0.,1.));
#1089=DIRECTION('center_axis',(0.,1.,0.));
#1090=DIRECTION('ref_axis',(0.707106781186547,0.,0.707106781186547));
#1091=DIRECTION('',(-1.,0.,0.));
#1092=DIRECTION('',(6.76707367390572E-17,0.,1.));
#1093=DIRECTION('',(1.,0.,0.));
#1094=DIRECTION('',(0.,0.,-1.));
#1095=DIRECTION('',(-1.,0.,8.53747453653806E-17));
#1096=DIRECTION('center_axis',(-1.,0.,0.));
#1097=DIRECTION('ref_axis',(0.,0.,1.));
#1098=DIRECTION('',(0.,0.,1.));
#1099=DIRECTION('',(0.,1.,0.));
#1100=DIRECTION('',(0.,-1.,0.));
#1101=DIRECTION('',(0.,0.,-1.));
#1102=DIRECTION('',(0.,-1.,0.));
#1103=DIRECTION('',(0.,0.,1.));
#1104=DIRECTION('center_axis',(0.,1.,0.));
#1105=DIRECTION('ref_axis',(-0.707106781186547,0.,-0.707106781186547));
#1106=DIRECTION('center_axis',(0.,-1.,0.));
#1107=DIRECTION('ref_axis',(-0.707106781186547,0.,-0.707106781186547));
#1108=DIRECTION('',(0.,-1.,0.));
#1109=DIRECTION('center_axis',(0.,1.,0.));
#1110=DIRECTION('ref_axis',(0.707106781186547,0.,0.707106781186547));
#1111=DIRECTION('center_axis',(0.,-1.,0.));
#1112=DIRECTION('ref_axis',(0.707106781186547,0.,0.707106781186547));
#1113=DIRECTION('',(0.,-1.,0.));
#1114=DIRECTION('',(0.,1.,0.));
#1115=DIRECTION('center_axis',(1.,0.,0.));
#1116=DIRECTION('ref_axis',(0.,0.,-1.));
#1117=DIRECTION('',(0.,-1.,0.));
#1118=DIRECTION('',(0.,0.,-1.));
#1119=DIRECTION('',(0.,-1.,0.));
#1120=DIRECTION('',(0.,0.,1.));
#1121=DIRECTION('',(0.,-1.,0.));
#1122=DIRECTION('',(0.,0.,-1.));
#1123=DIRECTION('center_axis',(0.,1.,0.));
#1124=DIRECTION('ref_axis',(0.707106781186547,0.,-0.707106781186547));
#1125=DIRECTION('center_axis',(0.,-1.,0.));
#1126=DIRECTION('ref_axis',(0.707106781186547,0.,-0.707106781186547));
#1127=DIRECTION('',(0.,1.,0.));
#1128=DIRECTION('center_axis',(0.,0.,-1.));
#1129=DIRECTION('ref_axis',(-1.,0.,0.));
#1130=DIRECTION('',(-1.,0.,0.));
#1131=DIRECTION('',(-0.61683317483023,0.787093917159102,0.));
#1132=DIRECTION('',(-0.61683317483023,-0.787093917159102,0.));
#1133=DIRECTION('',(-1.,0.,0.));
#1134=DIRECTION('',(0.,-1.,0.));
#1135=DIRECTION('',(0.61683317483023,0.787093917159102,0.));
#1136=DIRECTION('',(-0.61683317483023,0.787093917159102,0.));
#1137=DIRECTION('',(-1.,0.,0.));
#1138=DIRECTION('',(0.61683317483023,-0.787093917159102,0.));
#1139=DIRECTION('',(0.61683317483023,0.787093917159102,0.));
#1140=DIRECTION('',(0.,-1.,0.));
#1141=DIRECTION('',(-0.61683317483023,-0.787093917159102,0.));
#1142=DIRECTION('',(0.61683317483023,-0.787093917159102,0.));
#1143=DIRECTION('center_axis',(0.787093917159102,0.61683317483023,0.));
#1144=DIRECTION('ref_axis',(0.61683317483023,-0.787093917159102,0.));
#1145=DIRECTION('',(-0.61683317483023,0.787093917159102,0.));
#1146=DIRECTION('',(0.,0.,1.));
#1147=DIRECTION('',(0.,0.,-1.));
#1148=DIRECTION('center_axis',(0.787093917159102,-0.61683317483023,0.));
#1149=DIRECTION('ref_axis',(-0.61683317483023,-0.787093917159102,0.));
#1150=DIRECTION('',(-0.61683317483023,-0.787093917159102,0.));
#1151=DIRECTION('',(0.,0.,-1.));
#1152=DIRECTION('center_axis',(-0.787093917159102,0.61683317483023,0.));
#1153=DIRECTION('ref_axis',(0.61683317483023,0.787093917159102,0.));
#1154=DIRECTION('',(0.61683317483023,0.787093917159102,0.));
#1155=DIRECTION('',(0.,0.,1.));
#1156=DIRECTION('',(0.,0.,-1.));
#1157=DIRECTION('center_axis',(0.787093917159102,0.61683317483023,0.));
#1158=DIRECTION('ref_axis',(0.61683317483023,-0.787093917159102,0.));
#1159=DIRECTION('',(-0.61683317483023,0.787093917159102,0.));
#1160=DIRECTION('',(0.,0.,-1.));
#1161=DIRECTION('center_axis',(-0.787093917159102,-0.61683317483023,0.));
#1162=DIRECTION('ref_axis',(-0.61683317483023,0.787093917159102,0.));
#1163=DIRECTION('',(0.61683317483023,-0.787093917159102,0.));
#1164=DIRECTION('',(0.,0.,1.));
#1165=DIRECTION('',(0.,0.,-1.));
#1166=DIRECTION('center_axis',(-0.787093917159102,0.61683317483023,0.));
#1167=DIRECTION('ref_axis',(0.61683317483023,0.787093917159102,0.));
#1168=DIRECTION('',(0.61683317483023,0.787093917159102,0.));
#1169=DIRECTION('',(0.,0.,-1.));
#1170=DIRECTION('center_axis',(0.787093917159102,-0.61683317483023,0.));
#1171=DIRECTION('ref_axis',(-0.61683317483023,-0.787093917159102,0.));
#1172=DIRECTION('',(-0.61683317483023,-0.787093917159102,0.));
#1173=DIRECTION('',(0.,0.,1.));
#1174=DIRECTION('',(0.,0.,-1.));
#1175=DIRECTION('center_axis',(-0.787093917159102,-0.61683317483023,0.));
#1176=DIRECTION('ref_axis',(-0.61683317483023,0.787093917159102,0.));
#1177=DIRECTION('',(0.61683317483023,-0.787093917159102,0.));
#1178=DIRECTION('',(0.,0.,-1.));
#1179=DIRECTION('center_axis',(-1.,0.,0.));
#1180=DIRECTION('ref_axis',(0.,0.,-1.));
#1181=DIRECTION('',(0.,-1.,0.));
#1182=DIRECTION('center_axis',(0.,1.,0.));
#1183=DIRECTION('ref_axis',(1.,0.,0.));
#1184=DIRECTION('',(1.,0.,0.));
#1185=DIRECTION('',(-1.,0.,0.));
#1186=DIRECTION('',(0.,0.,1.));
#1187=DIRECTION('',(1.,0.,0.));
#1188=DIRECTION('',(0.,0.,-1.));
#1189=DIRECTION('',(-1.,0.,0.));
#1190=DIRECTION('',(1.,0.,0.));
#1191=DIRECTION('center_axis',(1.,0.,0.));
#1192=DIRECTION('ref_axis',(0.,0.,1.));
#1193=DIRECTION('',(0.,-1.,0.));
#1194=DIRECTION('center_axis',(0.787093917159102,0.61683317483023,0.));
#1195=DIRECTION('ref_axis',(0.61683317483023,-0.787093917159102,0.));
#1196=DIRECTION('',(-0.61683317483023,0.787093917159102,0.));
#1197=DIRECTION('',(0.,0.,1.));
#1198=DIRECTION('',(0.61683317483023,-0.787093917159102,0.));
#1199=DIRECTION('',(0.,0.,-1.));
#1200=DIRECTION('center_axis',(0.787093917159102,-0.61683317483023,0.));
#1201=DIRECTION('ref_axis',(-0.61683317483023,-0.787093917159102,0.));
#1202=DIRECTION('',(-0.61683317483023,-0.787093917159102,0.));
#1203=DIRECTION('',(-0.61683317483023,-0.787093917159102,0.));
#1204=DIRECTION('',(0.,0.,-1.));
#1205=DIRECTION('center_axis',(-0.787093917159102,0.61683317483023,0.));
#1206=DIRECTION('ref_axis',(0.61683317483023,0.787093917159102,0.));
#1207=DIRECTION('',(0.61683317483023,0.787093917159102,0.));
#1208=DIRECTION('',(0.61683317483023,0.787093917159102,0.));
#1209=DIRECTION('',(0.,0.,-1.));
#1210=DIRECTION('center_axis',(0.787093917159102,0.61683317483023,0.));
#1211=DIRECTION('ref_axis',(0.61683317483023,-0.787093917159102,0.));
#1212=DIRECTION('',(-0.61683317483023,0.787093917159102,0.));
#1213=DIRECTION('',(0.61683317483023,-0.787093917159102,0.));
#1214=DIRECTION('center_axis',(-0.787093917159102,-0.61683317483023,0.));
#1215=DIRECTION('ref_axis',(-0.61683317483023,0.787093917159102,0.));
#1216=DIRECTION('',(0.61683317483023,-0.787093917159102,0.));
#1217=DIRECTION('',(0.,0.,1.));
#1218=DIRECTION('',(-0.61683317483023,0.787093917159102,0.));
#1219=DIRECTION('',(0.,0.,-1.));
#1220=DIRECTION('center_axis',(-0.787093917159102,0.61683317483023,0.));
#1221=DIRECTION('ref_axis',(0.61683317483023,0.787093917159102,0.));
#1222=DIRECTION('',(0.61683317483023,0.787093917159102,0.));
#1223=DIRECTION('',(0.61683317483023,0.787093917159102,0.));
#1224=DIRECTION('',(0.,0.,-1.));
#1225=DIRECTION('center_axis',(0.787093917159102,-0.61683317483023,0.));
#1226=DIRECTION('ref_axis',(-0.61683317483023,-0.787093917159102,0.));
#1227=DIRECTION('',(-0.61683317483023,-0.787093917159102,0.));
#1228=DIRECTION('',(0.,0.,1.));
#1229=DIRECTION('',(-0.61683317483023,-0.787093917159102,0.));
#1230=DIRECTION('',(0.,0.,-1.));
#1231=DIRECTION('center_axis',(-0.787093917159102,-0.61683317483023,0.));
#1232=DIRECTION('ref_axis',(-0.61683317483023,0.787093917159102,0.));
#1233=DIRECTION('',(0.61683317483023,-0.787093917159102,0.));
#1234=DIRECTION('',(-0.61683317483023,0.787093917159102,0.));
#1235=DIRECTION('',(0.,0.,-1.));
#1236=DIRECTION('center_axis',(0.,1.,0.));
#1237=DIRECTION('ref_axis',(1.,0.,0.));
#1238=DIRECTION('',(1.,0.,0.));
#1239=DIRECTION('',(1.,0.,0.));
#1240=DIRECTION('center_axis',(1.,0.,-6.76707367390572E-17));
#1241=DIRECTION('ref_axis',(6.76707367390572E-17,0.,1.));
#1242=DIRECTION('',(-6.76707367390572E-17,0.,-1.));
#1243=DIRECTION('',(0.,-1.,0.));
#1244=DIRECTION('',(0.,-1.,0.));
#1245=DIRECTION('center_axis',(0.,1.,0.));
#1246=DIRECTION('ref_axis',(1.,0.,0.));
#1247=DIRECTION('',(1.,0.,0.));
#1248=DIRECTION('',(-1.,0.,0.));
#1249=DIRECTION('center_axis',(0.,1.,0.));
#1250=DIRECTION('ref_axis',(1.,0.,0.));
#1251=DIRECTION('',(-1.,0.,8.53747453653806E-17));
#1252=DIRECTION('center_axis',(-1.,0.,0.));
#1253=DIRECTION('ref_axis',(0.,0.,-1.));
#1254=DIRECTION('',(0.,0.,-1.));
#1255=DIRECTION('',(0.,-1.,0.));
#1256=DIRECTION('',(0.,-1.,0.));
#1257=DIRECTION('center_axis',(0.,1.,0.));
#1258=DIRECTION('ref_axis',(1.,0.,0.));
#1259=DIRECTION('',(1.,0.,0.));
#1260=DIRECTION('',(-1.,0.,0.));
#1261=DIRECTION('center_axis',(1.,0.,0.));
#1262=DIRECTION('ref_axis',(0.,0.,1.));
#1263=DIRECTION('',(0.,-1.,0.));
#1264=DIRECTION('',(0.,-1.,0.));
#1265=DIRECTION('center_axis',(0.,0.,-1.));
#1266=DIRECTION('ref_axis',(1.,0.,0.));
#1267=DIRECTION('',(0.,-1.,0.));
#1268=DIRECTION('center_axis',(0.,0.,1.));
#1269=DIRECTION('ref_axis',(-1.,0.,0.));
#1270=DIRECTION('center_axis',(-1.,0.,0.));
#1271=DIRECTION('ref_axis',(0.,0.,-1.));
#1272=DIRECTION('',(0.,-1.,0.));
#1273=DIRECTION('center_axis',(0.,0.,1.));
#1274=DIRECTION('ref_axis',(1.,0.,0.));
#1275=DIRECTION('',(1.,0.,0.));
#1276=DIRECTION('center_axis',(0.,1.,0.));
#1277=DIRECTION('ref_axis',(0.,0.,1.));
#1278=CARTESIAN_POINT('',(0.,0.,0.));
#1279=CARTESIAN_POINT('Origin',(-26.7766841965432,0.,-35.202725075907));
#1280=CARTESIAN_POINT('',(-29.2766841965432,0.,-35.202725075907));
#1281=CARTESIAN_POINT('Origin',(-26.7766841965432,0.,-35.202725075907));
#1282=CARTESIAN_POINT('',(-29.2766841965432,20.,-35.202725075907));
#1283=CARTESIAN_POINT('',(-29.2766841965432,0.,-35.202725075907));
#1284=CARTESIAN_POINT('Origin',(-26.7766841965432,20.,-35.202725075907));
#1285=CARTESIAN_POINT('Origin',(-26.8039174501007,0.,28.2979266889531));
#1286=CARTESIAN_POINT('',(-29.3039174501007,0.,28.2979266889531));
#1287=CARTESIAN_POINT('Origin',(-26.8039174501007,0.,28.2979266889531));
#1288=CARTESIAN_POINT('',(-29.3039174501007,20.,28.2979266889531));
#1289=CARTESIAN_POINT('',(-29.3039174501007,0.,28.2979266889531));
#1290=CARTESIAN_POINT('Origin',(-26.8039174501007,20.,28.2979266889531));
#1291=CARTESIAN_POINT('Origin',(42.981343924054,0.,-31.1712691212045));
#1292=CARTESIAN_POINT('',(40.481343924054,0.,-31.1712691212045));
#1293=CARTESIAN_POINT('Origin',(42.981343924054,0.,-31.1712691212045));
#1294=CARTESIAN_POINT('',(40.481343924054,20.,-31.1712691212045));
#1295=CARTESIAN_POINT('',(40.481343924054,0.,-31.1712691212045));
#1296=CARTESIAN_POINT('Origin',(42.981343924054,20.,-31.1712691212045));
#1297=CARTESIAN_POINT('Origin',(42.9674722311743,0.,24.3620742266596));
#1298=CARTESIAN_POINT('',(40.4674722311743,0.,24.3620742266596));
#1299=CARTESIAN_POINT('Origin',(42.9674722311743,0.,24.3620742266596));
#1300=CARTESIAN_POINT('',(40.4674722311743,20.,24.3620742266596));
#1301=CARTESIAN_POINT('',(40.4674722311743,0.,24.3620742266596));
#1302=CARTESIAN_POINT('Origin',(42.9674722311743,20.,24.3620742266596));
#1303=CARTESIAN_POINT('Origin',(-65.5350555438796,0.,69.8421733464616));
#1304=CARTESIAN_POINT('',(-65.5350555438796,20.,79.8421733464616));
#1305=CARTESIAN_POINT('',(-75.5350555438796,20.,69.8421733464616));
#1306=CARTESIAN_POINT('Origin',(-65.5350555438796,20.,69.8421733464616));
#1307=CARTESIAN_POINT('',(-75.5350555438796,-150.,69.8421733464616));
#1308=CARTESIAN_POINT('',(-75.5350555438796,0.,69.8421733464616));
#1309=CARTESIAN_POINT('',(-65.5350555438796,-150.,79.8421733464616));
#1310=CARTESIAN_POINT('Origin',(-65.5350555438796,-150.,69.8421733464616));
#1311=CARTESIAN_POINT('',(-65.5350555438796,0.,79.8421733464616));
#1312=CARTESIAN_POINT('Origin',(-63.0350555438796,-150.,-70.1578266535384));
#1313=CARTESIAN_POINT('',(-75.5350555438796,-150.,-75.1578266535384));
#1314=CARTESIAN_POINT('',(-75.5350555438796,-150.,49.8421733464616));
#1315=CARTESIAN_POINT('',(-65.5350555438796,-150.,-85.1578266535384));
#1316=CARTESIAN_POINT('Origin',(-65.5350555438796,-150.,-75.1578266535384));
#1317=CARTESIAN_POINT('',(47.6912817903252,-150.,-85.1578266535384));
#1318=CARTESIAN_POINT('',(-75.5350555438796,-150.,-85.1578266535384));
#1319=CARTESIAN_POINT('',(57.6912817903252,-150.,-75.1578266535384));
#1320=CARTESIAN_POINT('Origin',(47.6912817903252,-150.,-75.1578266535384));
#1321=CARTESIAN_POINT('',(57.6912817903252,-150.,69.8421733464616));
#1322=CARTESIAN_POINT('',(57.6912817903252,-150.,-55.1578266535384));
#1323=CARTESIAN_POINT('',(47.6912817903252,-150.,79.8421733464616));
#1324=CARTESIAN_POINT('Origin',(47.6912817903252,-150.,69.8421733464616));
#1325=CARTESIAN_POINT('',(57.6912817903252,-150.,79.8421733464616));
#1326=CARTESIAN_POINT('',(-50.5350555438796,-150.,-55.1578266535384));
#1327=CARTESIAN_POINT('',(-50.5350555438796,-150.,49.8421733464616));
#1328=CARTESIAN_POINT('',(-50.5350555438796,-150.,49.8421733464616));
#1329=CARTESIAN_POINT('',(32.6912817903252,-150.,49.8421733464616));
#1330=CARTESIAN_POINT('',(-50.5350555438796,-150.,49.8421733464616));
#1331=CARTESIAN_POINT('',(32.6912817903252,-150.,-55.1578266535384));
#1332=CARTESIAN_POINT('',(32.6912817903252,-150.,49.8421733464616));
#1333=CARTESIAN_POINT('',(32.6912817903252,-150.,-55.1578266535384));
#1334=CARTESIAN_POINT('Origin',(-75.5350555438796,0.,-85.1578266535384));
#1335=CARTESIAN_POINT('',(-75.5350555438796,20.,-75.1578266535384));
#1336=CARTESIAN_POINT('',(-75.5350555438796,20.,-55.1578266535384));
#1337=CARTESIAN_POINT('',(-75.5350555438796,0.,-75.1578266535384));
#1338=CARTESIAN_POINT('',(-75.5350555438796,0.,-55.1578266535384));
#1339=CARTESIAN_POINT('',(-75.5350555438796,-130.,-55.1578266535384));
#1340=CARTESIAN_POINT('',(-75.5350555438796,0.,-55.1578266535384));
#1341=CARTESIAN_POINT('',(-75.5350555438796,0.,49.8421733464616));
#1342=CARTESIAN_POINT('',(-75.5350555438796,0.,-55.1578266535384));
#1343=CARTESIAN_POINT('',(-75.5350555438796,-130.,49.8421733464616));
#1344=CARTESIAN_POINT('',(-75.5350555438796,0.,49.8421733464616));
#1345=CARTESIAN_POINT('',(-75.5350555438796,-130.,-85.1578266535384));
#1346=CARTESIAN_POINT('Origin',(-65.5350555438796,0.,-75.1578266535384));
#1347=CARTESIAN_POINT('',(-65.5350555438796,20.,-85.1578266535384));
#1348=CARTESIAN_POINT('Origin',(-65.5350555438796,20.,-75.1578266535384));
#1349=CARTESIAN_POINT('',(-65.5350555438796,0.,-85.1578266535384));
#1350=CARTESIAN_POINT('Origin',(47.6912817903252,0.,69.8421733464616));
#1351=CARTESIAN_POINT('',(57.6912817903252,20.,69.8421733464616));
#1352=CARTESIAN_POINT('',(47.6912817903252,20.,79.8421733464616));
#1353=CARTESIAN_POINT('Origin',(47.6912817903252,20.,69.8421733464616));
#1354=CARTESIAN_POINT('',(47.6912817903252,0.,79.8421733464616));
#1355=CARTESIAN_POINT('',(57.6912817903252,0.,69.8421733464616));
#1356=CARTESIAN_POINT('Origin',(57.6912817903252,0.,79.8421733464616));
#1357=CARTESIAN_POINT('',(57.6912817903252,20.,-75.1578266535384));
#1358=CARTESIAN_POINT('',(57.6912817903252,0.,-75.1578266535384));
#1359=CARTESIAN_POINT('',(57.6912817903252,20.,49.8421733464616));
#1360=CARTESIAN_POINT('',(57.6912817903252,0.,49.8421733464616));
#1361=CARTESIAN_POINT('',(57.6912817903252,-130.,49.8421733464616));
#1362=CARTESIAN_POINT('',(57.6912817903252,0.,49.8421733464616));
#1363=CARTESIAN_POINT('',(57.6912817903252,0.,-55.1578266535384));
#1364=CARTESIAN_POINT('',(57.6912817903252,0.,49.8421733464616));
#1365=CARTESIAN_POINT('',(57.6912817903252,-130.,-55.1578266535384));
#1366=CARTESIAN_POINT('',(57.6912817903252,0.,-55.1578266535384));
#1367=CARTESIAN_POINT('',(57.6912817903252,-130.,79.8421733464616));
#1368=CARTESIAN_POINT('Origin',(47.6912817903252,0.,-75.1578266535384));
#1369=CARTESIAN_POINT('',(47.6912817903252,20.,-85.1578266535384));
#1370=CARTESIAN_POINT('Origin',(47.6912817903252,20.,-75.1578266535384));
#1371=CARTESIAN_POINT('',(47.6912817903252,0.,-85.1578266535384));
#1372=CARTESIAN_POINT('Origin',(57.6912817903252,0.,-85.1578266535384));
#1373=CARTESIAN_POINT('',(57.6912817903252,20.,-85.1578266535384));
#1374=CARTESIAN_POINT('',(29.3126308953654,-130.,-85.1578266535384));
#1375=CARTESIAN_POINT('',(-8.92188687677714,-81.2118388051231,-85.1578266535384));
#1376=CARTESIAN_POINT('',(-75.5350555438796,3.78816119487693,-85.1578266535384));
#1377=CARTESIAN_POINT('',(-47.1564046489197,-130.,-85.1578266535384));
#1378=CARTESIAN_POINT('',(57.6912817903252,3.78816119487691,-85.1578266535384));
#1379=CARTESIAN_POINT('',(57.6912817903252,-130.,-85.1578266535384));
#1380=CARTESIAN_POINT('',(-50.5350555438796,-28.1124380788137,-85.1578266535384));
#1381=CARTESIAN_POINT('',(-50.5350555438796,-101.887561921186,-85.1578266535384));
#1382=CARTESIAN_POINT('',(-50.5350555438796,0.,-85.1578266535384));
#1383=CARTESIAN_POINT('',(-21.6268510265364,-65.,-85.1578266535384));
#1384=CARTESIAN_POINT('',(-75.5350555438796,-133.788161194877,-85.1578266535384));
#1385=CARTESIAN_POINT('',(-75.5350555438796,3.78816119487693,-85.1578266535384));
#1386=CARTESIAN_POINT('',(29.3126308953654,-2.8421709430404E-14,-85.1578266535384));
#1387=CARTESIAN_POINT('',(-47.1564046489197,0.,-85.1578266535384));
#1388=CARTESIAN_POINT('',(57.6912817903252,0.,-85.1578266535384));
#1389=CARTESIAN_POINT('',(-8.92188687677715,-48.7881611948769,-85.1578266535384));
#1390=CARTESIAN_POINT('',(57.6912817903252,-133.788161194877,-85.1578266535384));
#1391=CARTESIAN_POINT('',(-75.5350555438796,-133.788161194877,-85.1578266535384));
#1392=CARTESIAN_POINT('',(32.6912817903252,-28.1124380788138,-85.1578266535384));
#1393=CARTESIAN_POINT('',(32.6912817903252,-101.887561921186,-85.1578266535384));
#1394=CARTESIAN_POINT('',(32.6912817903252,0.,-85.1578266535384));
#1395=CARTESIAN_POINT('',(3.78307727298213,-65.,-85.1578266535384));
#1396=CARTESIAN_POINT('',(57.6912817903252,3.78816119487691,-85.1578266535384));
#1397=CARTESIAN_POINT('',(57.6912817903252,-133.788161194877,-85.1578266535384));
#1398=CARTESIAN_POINT('Origin',(3.78307727298215,-65.,-55.1578266535384));
#1399=CARTESIAN_POINT('',(32.6912817903252,-101.887561921186,-55.1578266535384));
#1400=CARTESIAN_POINT('',(3.78307727298213,-65.,-55.1578266535384));
#1401=CARTESIAN_POINT('',(57.6912817903252,-133.788161194877,-55.1578266535384));
#1402=CARTESIAN_POINT('',(32.6912817903252,-101.887561921186,-55.1578266535384));
#1403=CARTESIAN_POINT('',(3.78307727298213,-65.,-55.1578266535384));
#1404=CARTESIAN_POINT('Origin',(32.6912817903252,-28.1124380788138,-55.1578266535384));
#1405=CARTESIAN_POINT('',(32.6912817903252,-28.1124380788138,-55.1578266535384));
#1406=CARTESIAN_POINT('',(57.6912817903252,3.78816119487691,-55.1578266535384));
#1407=CARTESIAN_POINT('',(32.6912817903252,-28.1124380788138,-55.1578266535384));
#1408=CARTESIAN_POINT('Origin',(-8.92188687677715,-48.7881611948769,-55.1578266535384));
#1409=CARTESIAN_POINT('',(-8.92188687677715,-48.7881611948769,-55.1578266535384));
#1410=CARTESIAN_POINT('',(29.3126308953654,-2.8421709430404E-14,-55.1578266535384));
#1411=CARTESIAN_POINT('',(-75.5350555438796,-133.788161194877,-55.1578266535384));
#1412=CARTESIAN_POINT('',(29.3126308953654,0.,-28.9078266535384));
#1413=CARTESIAN_POINT('',(-8.92188687677715,-48.7881611948769,-55.1578266535384));
#1414=CARTESIAN_POINT('Origin',(-47.1564046489197,0.,-55.1578266535384));
#1415=CARTESIAN_POINT('',(-47.1564046489197,0.,-55.1578266535384));
#1416=CARTESIAN_POINT('',(57.6912817903252,-133.788161194877,-55.1578266535384));
#1417=CARTESIAN_POINT('',(-47.1564046489197,0.,-28.9078266535384));
#1418=CARTESIAN_POINT('Origin',(-21.6268510265364,-65.,-55.1578266535384));
#1419=CARTESIAN_POINT('',(-50.5350555438796,-28.1124380788137,-55.1578266535384));
#1420=CARTESIAN_POINT('',(-21.6268510265364,-65.,-55.1578266535384));
#1421=CARTESIAN_POINT('',(-75.5350555438796,3.78816119487693,-55.1578266535384));
#1422=CARTESIAN_POINT('',(-50.5350555438796,-28.1124380788137,-70.1578266535384));
#1423=CARTESIAN_POINT('',(-21.6268510265364,-65.,-55.1578266535384));
#1424=CARTESIAN_POINT('Origin',(-50.5350555438796,-101.887561921186,-55.1578266535384));
#1425=CARTESIAN_POINT('',(-50.5350555438796,-101.887561921186,-55.1578266535384));
#1426=CARTESIAN_POINT('',(-75.5350555438796,-133.788161194877,-55.1578266535384));
#1427=CARTESIAN_POINT('',(-50.5350555438796,-101.887561921186,-70.1578266535384));
#1428=CARTESIAN_POINT('Origin',(-8.92188687677717,-81.2118388051231,-55.1578266535384));
#1429=CARTESIAN_POINT('',(-8.92188687677714,-81.2118388051231,-55.1578266535384));
#1430=CARTESIAN_POINT('',(-47.1564046489197,-130.,-55.1578266535384));
#1431=CARTESIAN_POINT('',(57.6912817903252,3.78816119487691,-55.1578266535384));
#1432=CARTESIAN_POINT('',(-47.1564046489197,-130.,-62.6578266535384));
#1433=CARTESIAN_POINT('',(-8.92188687677714,-81.2118388051231,-55.1578266535384));
#1434=CARTESIAN_POINT('Origin',(29.3126308953654,-130.,-55.1578266535384));
#1435=CARTESIAN_POINT('',(29.3126308953654,-130.,-55.1578266535384));
#1436=CARTESIAN_POINT('',(-75.5350555438796,3.78816119487693,-55.1578266535384));
#1437=CARTESIAN_POINT('',(29.3126308953654,-130.,-62.6578266535384));
#1438=CARTESIAN_POINT('Origin',(32.6912817903252,0.,-55.1578266535384));
#1439=CARTESIAN_POINT('',(32.6912817903252,0.,-55.1578266535384));
#1440=CARTESIAN_POINT('Origin',(-8.92188687677715,0.,-2.65782665353836));
#1441=CARTESIAN_POINT('',(-8.92188687677715,0.,-55.1578266535384));
#1442=CARTESIAN_POINT('',(29.3126308953654,-2.8421709430404E-14,49.8421733464616));
#1443=CARTESIAN_POINT('',(-8.92188687677715,0.,49.8421733464616));
#1444=CARTESIAN_POINT('',(29.3126308953654,-2.8421709430404E-14,79.8421733464616));
#1445=CARTESIAN_POINT('',(29.3126308953654,0.,38.5921733464616));
#1446=CARTESIAN_POINT('',(-47.1564046489197,0.,79.8421733464616));
#1447=CARTESIAN_POINT('',(-75.5350555438796,0.,79.8421733464616));
#1448=CARTESIAN_POINT('',(-47.1564046489197,0.,49.8421733464616));
#1449=CARTESIAN_POINT('',(-47.1564046489197,0.,38.5921733464616));
#1450=CARTESIAN_POINT('',(-8.92188687677715,0.,49.8421733464616));
#1451=CARTESIAN_POINT('',(-8.92188687677715,0.,-55.1578266535384));
#1452=CARTESIAN_POINT('Origin',(-50.5350555438796,0.,-85.1578266535384));
#1453=CARTESIAN_POINT('',(-50.5350555438796,0.,-55.1578266535384));
#1454=CARTESIAN_POINT('Origin',(3.78307727298215,-65.,79.8421733464616));
#1455=CARTESIAN_POINT('',(32.6912817903252,-101.887561921186,79.8421733464616));
#1456=CARTESIAN_POINT('',(3.78307727298213,-65.,79.8421733464616));
#1457=CARTESIAN_POINT('',(57.6912817903252,-133.788161194877,79.8421733464616));
#1458=CARTESIAN_POINT('',(32.6912817903252,-101.887561921186,49.8421733464616));
#1459=CARTESIAN_POINT('',(32.6912817903252,-101.887561921186,79.8421733464616));
#1460=CARTESIAN_POINT('',(3.78307727298213,-65.,49.8421733464616));
#1461=CARTESIAN_POINT('',(57.6912817903252,-133.788161194877,49.8421733464616));
#1462=CARTESIAN_POINT('',(3.78307727298213,-65.,79.8421733464616));
#1463=CARTESIAN_POINT('Origin',(32.6912817903252,-28.1124380788138,79.8421733464616));
#1464=CARTESIAN_POINT('',(32.6912817903252,-28.1124380788138,79.8421733464616));
#1465=CARTESIAN_POINT('',(57.6912817903252,3.78816119487691,79.8421733464616));
#1466=CARTESIAN_POINT('',(32.6912817903252,-28.1124380788138,49.8421733464616));
#1467=CARTESIAN_POINT('',(57.6912817903252,3.78816119487691,49.8421733464616));
#1468=CARTESIAN_POINT('',(32.6912817903252,-28.1124380788138,79.8421733464616));
#1469=CARTESIAN_POINT('Origin',(-8.92188687677715,-48.7881611948769,79.8421733464616));
#1470=CARTESIAN_POINT('',(-8.92188687677715,-48.7881611948769,79.8421733464616));
#1471=CARTESIAN_POINT('',(-75.5350555438796,-133.788161194877,79.8421733464616));
#1472=CARTESIAN_POINT('',(-8.92188687677715,-48.7881611948769,49.8421733464616));
#1473=CARTESIAN_POINT('',(-75.5350555438796,-133.788161194877,49.8421733464616));
#1474=CARTESIAN_POINT('',(-8.92188687677715,-48.7881611948769,79.8421733464616));
#1475=CARTESIAN_POINT('Origin',(-47.1564046489197,0.,79.8421733464616));
#1476=CARTESIAN_POINT('',(57.6912817903252,-133.788161194877,79.8421733464616));
#1477=CARTESIAN_POINT('',(57.6912817903252,-133.788161194877,49.8421733464616));
#1478=CARTESIAN_POINT('Origin',(-21.6268510265364,-65.,79.8421733464616));
#1479=CARTESIAN_POINT('',(-50.5350555438796,-28.1124380788137,79.8421733464616));
#1480=CARTESIAN_POINT('',(-21.6268510265364,-65.,79.8421733464616));
#1481=CARTESIAN_POINT('',(-75.5350555438796,3.78816119487693,79.8421733464616));
#1482=CARTESIAN_POINT('',(-50.5350555438796,-28.1124380788137,49.8421733464616));
#1483=CARTESIAN_POINT('',(-50.5350555438796,-28.1124380788137,64.8421733464616));
#1484=CARTESIAN_POINT('',(-21.6268510265364,-65.,49.8421733464616));
#1485=CARTESIAN_POINT('',(-75.5350555438796,3.78816119487693,49.8421733464616));
#1486=CARTESIAN_POINT('',(-21.6268510265364,-65.,79.8421733464616));
#1487=CARTESIAN_POINT('Origin',(-50.5350555438796,-101.887561921186,79.8421733464616));
#1488=CARTESIAN_POINT('',(-50.5350555438796,-101.887561921186,79.8421733464616));
#1489=CARTESIAN_POINT('',(-75.5350555438796,-133.788161194877,79.8421733464616));
#1490=CARTESIAN_POINT('',(-50.5350555438796,-101.887561921186,49.8421733464616));
#1491=CARTESIAN_POINT('',(-75.5350555438796,-133.788161194877,49.8421733464616));
#1492=CARTESIAN_POINT('',(-50.5350555438796,-101.887561921186,64.8421733464616));
#1493=CARTESIAN_POINT('Origin',(-8.92188687677717,-81.2118388051231,79.8421733464616));
#1494=CARTESIAN_POINT('',(-8.92188687677714,-81.2118388051231,79.8421733464616));
#1495=CARTESIAN_POINT('',(-47.1564046489197,-130.,79.8421733464616));
#1496=CARTESIAN_POINT('',(57.6912817903252,3.78816119487691,79.8421733464616));
#1497=CARTESIAN_POINT('',(-47.1564046489197,-130.,49.8421733464616));
#1498=CARTESIAN_POINT('',(-47.1564046489197,-130.,72.3421733464616));
#1499=CARTESIAN_POINT('',(-8.92188687677714,-81.2118388051231,49.8421733464616));
#1500=CARTESIAN_POINT('',(57.6912817903252,3.78816119487691,49.8421733464616));
#1501=CARTESIAN_POINT('',(-8.92188687677714,-81.2118388051231,79.8421733464616));
#1502=CARTESIAN_POINT('Origin',(29.3126308953654,-130.,79.8421733464616));
#1503=CARTESIAN_POINT('',(29.3126308953654,-130.,79.8421733464616));
#1504=CARTESIAN_POINT('',(-75.5350555438796,3.78816119487693,79.8421733464616));
#1505=CARTESIAN_POINT('',(29.3126308953654,-130.,49.8421733464616));
#1506=CARTESIAN_POINT('',(-75.5350555438796,3.78816119487693,49.8421733464616));
#1507=CARTESIAN_POINT('',(29.3126308953654,-130.,72.3421733464616));
#1508=CARTESIAN_POINT('Origin',(-8.92188687677716,-130.,64.8421733464616));
#1509=CARTESIAN_POINT('',(-50.5350555438796,-130.,49.8421733464616));
#1510=CARTESIAN_POINT('',(-75.5350555438796,-130.,79.8421733464616));
#1511=CARTESIAN_POINT('Origin',(-50.5350555438796,-130.,-55.1578266535384));
#1512=CARTESIAN_POINT('',(-50.5350555438796,-130.,49.8421733464616));
#1513=CARTESIAN_POINT('',(-50.5350555438796,-130.,-55.1578266535384));
#1514=CARTESIAN_POINT('',(-50.5350555438796,-130.,49.8421733464616));
#1515=CARTESIAN_POINT('',(-50.5350555438796,0.,49.8421733464616));
#1516=CARTESIAN_POINT('',(-50.5350555438796,0.,-55.1578266535384));
#1517=CARTESIAN_POINT('Origin',(-63.0350555438796,-130.,-2.65782665353836));
#1518=CARTESIAN_POINT('',(-56.7850555438796,-130.,-55.1578266535384));
#1519=CARTESIAN_POINT('',(-69.2850555438796,-130.,49.8421733464616));
#1520=CARTESIAN_POINT('Origin',(-8.92188687677717,-130.,-70.1578266535384));
#1521=CARTESIAN_POINT('',(32.6912817903252,-130.,-55.1578266535384));
#1522=CARTESIAN_POINT('Origin',(32.6912817903252,-130.,49.8421733464616));
#1523=CARTESIAN_POINT('',(32.6912817903252,-130.,49.8421733464616));
#1524=CARTESIAN_POINT('',(32.6912817903252,-130.,-55.1578266535384));
#1525=CARTESIAN_POINT('',(32.6912817903252,-130.,49.8421733464616));
#1526=CARTESIAN_POINT('',(32.6912817903252,0.,-55.1578266535384));
#1527=CARTESIAN_POINT('',(32.6912817903252,0.,49.8421733464616));
#1528=CARTESIAN_POINT('Origin',(45.1912817903252,-130.,-2.65782665353836));
#1529=CARTESIAN_POINT('',(51.4412817903252,-130.,-55.1578266535384));
#1530=CARTESIAN_POINT('',(38.9412817903252,-130.,49.8421733464616));
#1531=CARTESIAN_POINT('Origin',(-50.5350555438796,0.,49.8421733464616));
#1532=CARTESIAN_POINT('',(-50.5350555438796,0.,79.8421733464616));
#1533=CARTESIAN_POINT('',(-50.5350555438796,0.,49.8421733464616));
#1534=CARTESIAN_POINT('Origin',(32.6912817903252,0.,49.8421733464616));
#1535=CARTESIAN_POINT('',(32.6912817903252,0.,49.8421733464616));
#1536=CARTESIAN_POINT('Origin',(57.6912817903252,0.,-55.1578266535384));
#1537=CARTESIAN_POINT('Origin',(32.6912817903252,0.,79.8421733464616));
#1538=CARTESIAN_POINT('',(32.6912817903252,0.,79.8421733464616));
#1539=CARTESIAN_POINT('Origin',(-75.5350555438796,0.,79.8421733464616));
#1540=CARTESIAN_POINT('',(-75.5350555438796,20.,79.8421733464616));
#1541=CARTESIAN_POINT('Origin',(-8.92188687677715,20.,-2.65782665353836));
#1542=UNCERTAINTY_MEASURE_WITH_UNIT(LENGTH_MEASURE(0.001),#1546,
'DISTANCE_ACCURACY_VALUE',
'Maximum model space distance between geometric entities at asserted c
onnectivities');
#1543=UNCERTAINTY_MEASURE_WITH_UNIT(LENGTH_MEASURE(0.001),#1546,
'DISTANCE_ACCURACY_VALUE',
'Maximum model space distance between geometric entities at asserted c
onnectivities');
#1544=(
GEOMETRIC_REPRESENTATION_CONTEXT(3)
GLOBAL_UNCERTAINTY_ASSIGNED_CONTEXT((#1542))
GLOBAL_UNIT_ASSIGNED_CONTEXT((#1546,#1548,#1549))
REPRESENTATION_CONTEXT('','3D')
);
#1545=(
GEOMETRIC_REPRESENTATION_CONTEXT(3)
GLOBAL_UNCERTAINTY_ASSIGNED_CONTEXT((#1543))
GLOBAL_UNIT_ASSIGNED_CONTEXT((#1546,#1548,#1549))
REPRESENTATION_CONTEXT('','3D')
);
#1546=(
LENGTH_UNIT()
NAMED_UNIT(*)
SI_UNIT(.CENTI.,.METRE.)
);
#1547=(
LENGTH_UNIT()
NAMED_UNIT(*)
SI_UNIT($,.METRE.)
);
#1548=(
NAMED_UNIT(*)
PLANE_ANGLE_UNIT()
SI_UNIT($,.RADIAN.)
);
#1549=(
NAMED_UNIT(*)
SI_UNIT($,.STERADIAN.)
SOLID_ANGLE_UNIT()
);
#1550=SHAPE_DEFINITION_REPRESENTATION(#1551,#1552);
#1551=PRODUCT_DEFINITION_SHAPE('',$,#1554);
#1552=SHAPE_REPRESENTATION('',(#982),#1544);
#1553=PRODUCT_DEFINITION_CONTEXT('part definition',#1558,'design');
#1554=PRODUCT_DEFINITION('2026-08-10-16-23-45-264','Raised_Base',
#1555,#1553);
#1555=PRODUCT_DEFINITION_FORMATION('',$,#1560);
#1556=PRODUCT_RELATED_PRODUCT_CATEGORY('Raised_Base',
'Raised_Base',(#1560));
#1557=APPLICATION_PROTOCOL_DEFINITION('international standard',
'automotive_design',2009,#1558);
#1558=APPLICATION_CONTEXT(
'Core Data for Automotive Mechanical Design Process');
#1559=PRODUCT_CONTEXT('part definition',#1558,'mechanical');
#1560=PRODUCT('2026-08-10-16-23-45-264','Raised_Base',$,(#1559));
#1561=PRESENTATION_STYLE_ASSIGNMENT((#1562));
#1562=SURFACE_STYLE_USAGE(.BOTH.,#1563);
#1563=SURFACE_SIDE_STYLE('',(#1564));
#1564=SURFACE_STYLE_FILL_AREA(#1565);
#1565=FILL_AREA_STYLE('A\X\E7o - Acetinado',(#1566));
#1566=FILL_AREA_STYLE_COLOUR('A\X\E7o - Acetinado',#1567);
#1567=COLOUR_RGB('A\X\E7o - Acetinado',0.627450980392157,0.627450980392157,
0.627450980392157);
ENDSEC;
END-ISO-10303-21;
