ISO-10303-21;
HEADER;
/* Generated by software containing ST-Developer
 * from STEP Tools, Inc. (www.steptools.com) 
 */

FILE_DESCRIPTION(
/* description */ (''),
/* implementation_level */ '2;1');

FILE_NAME(
/* name */ 'Webcam_Mount_Wrist_custom_v4.step',
/* time_stamp */ '2026-08-25T10:28:43+02:00',
/* author */ (''),
/* organization */ (''),
/* preprocessor_version */ 'ST-DEVELOPER v20.1',
/* originating_system */ 'Autodesk Translation Framework v15.8.0.0',
/* authorisation */ '');

FILE_SCHEMA (('AUTOMOTIVE_DESIGN { 1 0 10303 214 3 1 1 }'));
ENDSEC;

DATA;
#10=MECHANICAL_DESIGN_GEOMETRIC_PRESENTATION_REPRESENTATION('',(#17),#1266);
#11=ITEM_DEFINED_TRANSFORMATION($,$,#762,#830);
#12=(
REPRESENTATION_RELATIONSHIP($,$,#1277,#1276)
REPRESENTATION_RELATIONSHIP_WITH_TRANSFORMATION(#11)
SHAPE_REPRESENTATION_RELATIONSHIP()
);
#13=CONTEXT_DEPENDENT_SHAPE_REPRESENTATION(#12,#1275);
#14=NEXT_ASSEMBLY_USAGE_OCCURRENCE('Componente2:1','Componente2:1',
'Componente2:1',#1279,#1280,'Componente2:1');
#15=SHAPE_REPRESENTATION_RELATIONSHIP('SRR','None',#1277,#16);
#16=ADVANCED_BREP_SHAPE_REPRESENTATION('',(#18),#1265);
#17=STYLED_ITEM('',(#1290),#18);
#18=MANIFOLD_SOLID_BREP('Corpo1',#748);
#19=FACE_BOUND('',#89,.T.);
#20=FACE_BOUND('',#93,.T.);
#21=FACE_BOUND('',#108,.T.);
#22=FACE_BOUND('',#111,.T.);
#23=FACE_BOUND('',#113,.T.);
#24=FACE_BOUND('',#116,.T.);
#25=FACE_BOUND('',#125,.T.);
#26=FACE_BOUND('',#130,.T.);
#27=PLANE('',#769);
#28=PLANE('',#774);
#29=PLANE('',#775);
#30=PLANE('',#780);
#31=PLANE('',#781);
#32=PLANE('',#782);
#33=PLANE('',#784);
#34=PLANE('',#785);
#35=PLANE('',#789);
#36=PLANE('',#793);
#37=PLANE('',#797);
#38=PLANE('',#804);
#39=PLANE('',#809);
#40=PLANE('',#811);
#41=PLANE('',#814);
#42=PLANE('',#818);
#43=PLANE('',#824);
#44=PLANE('',#825);
#45=PLANE('',#826);
#46=PLANE('',#827);
#47=PLANE('',#828);
#48=PLANE('',#829);
#49=FACE_OUTER_BOUND('',#86,.T.);
#50=FACE_OUTER_BOUND('',#87,.T.);
#51=FACE_OUTER_BOUND('',#88,.T.);
#52=FACE_OUTER_BOUND('',#90,.T.);
#53=FACE_OUTER_BOUND('',#91,.T.);
#54=FACE_OUTER_BOUND('',#92,.T.);
#55=FACE_OUTER_BOUND('',#94,.T.);
#56=FACE_OUTER_BOUND('',#95,.T.);
#57=FACE_OUTER_BOUND('',#96,.T.);
#58=FACE_OUTER_BOUND('',#97,.T.);
#59=FACE_OUTER_BOUND('',#98,.T.);
#60=FACE_OUTER_BOUND('',#99,.T.);
#61=FACE_OUTER_BOUND('',#100,.T.);
#62=FACE_OUTER_BOUND('',#101,.T.);
#63=FACE_OUTER_BOUND('',#102,.T.);
#64=FACE_OUTER_BOUND('',#103,.T.);
#65=FACE_OUTER_BOUND('',#104,.T.);
#66=FACE_OUTER_BOUND('',#105,.T.);
#67=FACE_OUTER_BOUND('',#106,.T.);
#68=FACE_OUTER_BOUND('',#107,.T.);
#69=FACE_OUTER_BOUND('',#109,.T.);
#70=FACE_OUTER_BOUND('',#110,.T.);
#71=FACE_OUTER_BOUND('',#112,.T.);
#72=FACE_OUTER_BOUND('',#114,.T.);
#73=FACE_OUTER_BOUND('',#115,.T.);
#74=FACE_OUTER_BOUND('',#117,.T.);
#75=FACE_OUTER_BOUND('',#118,.T.);
#76=FACE_OUTER_BOUND('',#119,.T.);
#77=FACE_OUTER_BOUND('',#120,.T.);
#78=FACE_OUTER_BOUND('',#121,.T.);
#79=FACE_OUTER_BOUND('',#122,.T.);
#80=FACE_OUTER_BOUND('',#123,.T.);
#81=FACE_OUTER_BOUND('',#124,.T.);
#82=FACE_OUTER_BOUND('',#126,.T.);
#83=FACE_OUTER_BOUND('',#127,.T.);
#84=FACE_OUTER_BOUND('',#128,.T.);
#85=FACE_OUTER_BOUND('',#129,.T.);
#86=EDGE_LOOP('',(#486,#487,#488,#489));
#87=EDGE_LOOP('',(#490,#491,#492,#493));
#88=EDGE_LOOP('',(#494,#495,#496,#497,#498,#499,#500));
#89=EDGE_LOOP('',(#501));
#90=EDGE_LOOP('',(#502,#503,#504,#505));
#91=EDGE_LOOP('',(#506,#507,#508,#509));
#92=EDGE_LOOP('',(#510,#511,#512,#513,#514,#515,#516));
#93=EDGE_LOOP('',(#517));
#94=EDGE_LOOP('',(#518,#519,#520,#521));
#95=EDGE_LOOP('',(#522,#523,#524,#525));
#96=EDGE_LOOP('',(#526,#527,#528,#529));
#97=EDGE_LOOP('',(#530,#531,#532,#533));
#98=EDGE_LOOP('',(#534,#535,#536,#537));
#99=EDGE_LOOP('',(#538,#539,#540,#541));
#100=EDGE_LOOP('',(#542,#543,#544,#545));
#101=EDGE_LOOP('',(#546,#547,#548,#549));
#102=EDGE_LOOP('',(#550,#551,#552,#553,#554,#555,#556,#557,#558,#559,#560,
#561,#562));
#103=EDGE_LOOP('',(#563,#564,#565,#566,#567,#568,#569,#570,#571,#572,#573,
#574,#575,#576));
#104=EDGE_LOOP('',(#577,#578,#579,#580));
#105=EDGE_LOOP('',(#581,#582,#583,#584,#585,#586,#587,#588,#589,#590,#591,
#592,#593));
#106=EDGE_LOOP('',(#594,#595,#596,#597));
#107=EDGE_LOOP('',(#598,#599,#600,#601,#602,#603));
#108=EDGE_LOOP('',(#604));
#109=EDGE_LOOP('',(#605,#606,#607,#608));
#110=EDGE_LOOP('',(#609,#610,#611,#612,#613,#614,#615));
#111=EDGE_LOOP('',(#616));
#112=EDGE_LOOP('',(#617,#618,#619,#620,#621,#622,#623));
#113=EDGE_LOOP('',(#624));
#114=EDGE_LOOP('',(#625,#626,#627,#628));
#115=EDGE_LOOP('',(#629,#630,#631,#632,#633,#634,#635,#636,#637,#638,#639,
#640));
#116=EDGE_LOOP('',(#641));
#117=EDGE_LOOP('',(#642,#643,#644,#645));
#118=EDGE_LOOP('',(#646,#647,#648,#649));
#119=EDGE_LOOP('',(#650,#651,#652,#653));
#120=EDGE_LOOP('',(#654,#655,#656,#657));
#121=EDGE_LOOP('',(#658,#659,#660,#661));
#122=EDGE_LOOP('',(#662,#663,#664,#665));
#123=EDGE_LOOP('',(#666,#667,#668,#669));
#124=EDGE_LOOP('',(#670,#671,#672,#673));
#125=EDGE_LOOP('',(#674));
#126=EDGE_LOOP('',(#675,#676,#677,#678,#679,#680));
#127=EDGE_LOOP('',(#681,#682,#683,#684));
#128=EDGE_LOOP('',(#685,#686,#687,#688));
#129=EDGE_LOOP('',(#689,#690,#691,#692,#693,#694));
#130=EDGE_LOOP('',(#695));
#131=LINE('',#1052,#206);
#132=LINE('',#1058,#207);
#133=LINE('',#1065,#208);
#134=LINE('',#1067,#209);
#135=LINE('',#1071,#210);
#136=LINE('',#1073,#211);
#137=LINE('',#1074,#212);
#138=LINE('',#1077,#213);
#139=LINE('',#1080,#214);
#140=LINE('',#1083,#215);
#141=LINE('',#1084,#216);
#142=LINE('',#1090,#217);
#143=LINE('',#1092,#218);
#144=LINE('',#1094,#219);
#145=LINE('',#1098,#220);
#146=LINE('',#1099,#221);
#147=LINE('',#1104,#222);
#148=LINE('',#1105,#223);
#149=LINE('',#1108,#224);
#150=LINE('',#1109,#225);
#151=LINE('',#1113,#226);
#152=LINE('',#1114,#227);
#153=LINE('',#1115,#228);
#154=LINE('',#1117,#229);
#155=LINE('',#1119,#230);
#156=LINE('',#1120,#231);
#157=LINE('',#1123,#232);
#158=LINE('',#1124,#233);
#159=LINE('',#1127,#234);
#160=LINE('',#1128,#235);
#161=LINE('',#1134,#236);
#162=LINE('',#1137,#237);
#163=LINE('',#1140,#238);
#164=LINE('',#1144,#239);
#165=LINE('',#1148,#240);
#166=LINE('',#1152,#241);
#167=LINE('',#1154,#242);
#168=LINE('',#1156,#243);
#169=LINE('',#1158,#244);
#170=LINE('',#1160,#245);
#171=LINE('',#1161,#246);
#172=LINE('',#1164,#247);
#173=LINE('',#1168,#248);
#174=LINE('',#1170,#249);
#175=LINE('',#1171,#250);
#176=LINE('',#1173,#251);
#177=LINE('',#1174,#252);
#178=LINE('',#1177,#253);
#179=LINE('',#1180,#254);
#180=LINE('',#1183,#255);
#181=LINE('',#1185,#256);
#182=LINE('',#1187,#257);
#183=LINE('',#1189,#258);
#184=LINE('',#1191,#259);
#185=LINE('',#1193,#260);
#186=LINE('',#1197,#261);
#187=LINE('',#1201,#262);
#188=LINE('',#1208,#263);
#189=LINE('',#1211,#264);
#190=LINE('',#1213,#265);
#191=LINE('',#1218,#266);
#192=LINE('',#1222,#267);
#193=LINE('',#1227,#268);
#194=LINE('',#1229,#269);
#195=LINE('',#1231,#270);
#196=LINE('',#1232,#271);
#197=LINE('',#1237,#272);
#198=LINE('',#1239,#273);
#199=LINE('',#1243,#274);
#200=LINE('',#1247,#275);
#201=LINE('',#1250,#276);
#202=LINE('',#1251,#277);
#203=LINE('',#1253,#278);
#204=LINE('',#1255,#279);
#205=LINE('',#1258,#280);
#206=VECTOR('',#839,1.6);
#207=VECTOR('',#846,1.6);
#208=VECTOR('',#853,10.);
#209=VECTOR('',#854,1.);
#210=VECTOR('',#857,1.);
#211=VECTOR('',#858,10.);
#212=VECTOR('',#859,10.);
#213=VECTOR('',#862,10.);
#214=VECTOR('',#865,10.);
#215=VECTOR('',#868,10.);
#216=VECTOR('',#869,1.);
#217=VECTOR('',#874,10.);
#218=VECTOR('',#875,10.);
#219=VECTOR('',#876,1.);
#220=VECTOR('',#879,1.);
#221=VECTOR('',#880,10.);
#222=VECTOR('',#885,10.);
#223=VECTOR('',#886,10.);
#224=VECTOR('',#889,10.);
#225=VECTOR('',#890,1.);
#226=VECTOR('',#893,10.);
#227=VECTOR('',#894,1.);
#228=VECTOR('',#895,1.);
#229=VECTOR('',#898,10.);
#230=VECTOR('',#901,10.);
#231=VECTOR('',#902,10.);
#232=VECTOR('',#905,10.);
#233=VECTOR('',#906,1.);
#234=VECTOR('',#909,1.);
#235=VECTOR('',#910,10.);
#236=VECTOR('',#915,10.);
#237=VECTOR('',#918,10.);
#238=VECTOR('',#921,1.);
#239=VECTOR('',#924,1.);
#240=VECTOR('',#927,1.);
#241=VECTOR('',#930,1.);
#242=VECTOR('',#931,10.);
#243=VECTOR('',#932,1.);
#244=VECTOR('',#933,1.);
#245=VECTOR('',#934,1.);
#246=VECTOR('',#935,1.);
#247=VECTOR('',#938,1.);
#248=VECTOR('',#941,1.);
#249=VECTOR('',#942,10.);
#250=VECTOR('',#943,1.);
#251=VECTOR('',#944,1.);
#252=VECTOR('',#945,1.);
#253=VECTOR('',#948,10.);
#254=VECTOR('',#951,10.);
#255=VECTOR('',#954,1.);
#256=VECTOR('',#955,1.);
#257=VECTOR('',#956,1.);
#258=VECTOR('',#957,1.);
#259=VECTOR('',#958,10.);
#260=VECTOR('',#959,1.);
#261=VECTOR('',#962,1.);
#262=VECTOR('',#965,1.);
#263=VECTOR('',#974,10.);
#264=VECTOR('',#977,1.);
#265=VECTOR('',#980,1.);
#266=VECTOR('',#985,10.);
#267=VECTOR('',#990,1.);
#268=VECTOR('',#997,1.);
#269=VECTOR('',#1000,10.);
#270=VECTOR('',#1003,1.);
#271=VECTOR('',#1004,1.);
#272=VECTOR('',#1011,1.);
#273=VECTOR('',#1014,1.);
#274=VECTOR('',#1019,2.);
#275=VECTOR('',#1024,12.5);
#276=VECTOR('',#1029,1.);
#277=VECTOR('',#1030,1.);
#278=VECTOR('',#1033,1.);
#279=VECTOR('',#1036,1.);
#280=VECTOR('',#1041,1.);
#281=CIRCLE('',#764,1.6);
#282=CIRCLE('',#765,1.6);
#283=CIRCLE('',#767,1.6);
#284=CIRCLE('',#768,1.6);
#285=CIRCLE('',#770,7.5);
#286=CIRCLE('',#771,5.);
#287=CIRCLE('',#773,7.5);
#288=CIRCLE('',#776,7.5);
#289=CIRCLE('',#777,5.);
#290=CIRCLE('',#779,7.5);
#291=CIRCLE('',#787,10.);
#292=CIRCLE('',#788,10.);
#293=CIRCLE('',#790,5.);
#294=CIRCLE('',#791,5.);
#295=CIRCLE('',#792,5.);
#296=CIRCLE('',#794,10.);
#297=CIRCLE('',#796,10.);
#298=CIRCLE('',#798,5.);
#299=CIRCLE('',#799,5.);
#300=CIRCLE('',#800,5.);
#301=CIRCLE('',#802,10.);
#302=CIRCLE('',#803,10.);
#303=CIRCLE('',#805,10.);
#304=CIRCLE('',#806,2.);
#305=CIRCLE('',#808,10.);
#306=CIRCLE('',#810,5.);
#307=CIRCLE('',#812,5.);
#308=CIRCLE('',#815,12.5);
#309=CIRCLE('',#821,2.);
#310=CIRCLE('',#823,12.5);
#311=VERTEX_POINT('',#1049);
#312=VERTEX_POINT('',#1051);
#313=VERTEX_POINT('',#1055);
#314=VERTEX_POINT('',#1057);
#315=VERTEX_POINT('',#1061);
#316=VERTEX_POINT('',#1062);
#317=VERTEX_POINT('',#1064);
#318=VERTEX_POINT('',#1066);
#319=VERTEX_POINT('',#1068);
#320=VERTEX_POINT('',#1070);
#321=VERTEX_POINT('',#1072);
#322=VERTEX_POINT('',#1076);
#323=VERTEX_POINT('',#1078);
#324=VERTEX_POINT('',#1082);
#325=VERTEX_POINT('',#1086);
#326=VERTEX_POINT('',#1087);
#327=VERTEX_POINT('',#1089);
#328=VERTEX_POINT('',#1091);
#329=VERTEX_POINT('',#1093);
#330=VERTEX_POINT('',#1095);
#331=VERTEX_POINT('',#1097);
#332=VERTEX_POINT('',#1101);
#333=VERTEX_POINT('',#1102);
#334=VERTEX_POINT('',#1107);
#335=VERTEX_POINT('',#1111);
#336=VERTEX_POINT('',#1112);
#337=VERTEX_POINT('',#1122);
#338=VERTEX_POINT('',#1126);
#339=VERTEX_POINT('',#1130);
#340=VERTEX_POINT('',#1131);
#341=VERTEX_POINT('',#1133);
#342=VERTEX_POINT('',#1135);
#343=VERTEX_POINT('',#1139);
#344=VERTEX_POINT('',#1141);
#345=VERTEX_POINT('',#1143);
#346=VERTEX_POINT('',#1145);
#347=VERTEX_POINT('',#1147);
#348=VERTEX_POINT('',#1149);
#349=VERTEX_POINT('',#1151);
#350=VERTEX_POINT('',#1153);
#351=VERTEX_POINT('',#1155);
#352=VERTEX_POINT('',#1157);
#353=VERTEX_POINT('',#1159);
#354=VERTEX_POINT('',#1163);
#355=VERTEX_POINT('',#1165);
#356=VERTEX_POINT('',#1167);
#357=VERTEX_POINT('',#1169);
#358=VERTEX_POINT('',#1172);
#359=VERTEX_POINT('',#1176);
#360=VERTEX_POINT('',#1178);
#361=VERTEX_POINT('',#1182);
#362=VERTEX_POINT('',#1184);
#363=VERTEX_POINT('',#1186);
#364=VERTEX_POINT('',#1188);
#365=VERTEX_POINT('',#1190);
#366=VERTEX_POINT('',#1192);
#367=VERTEX_POINT('',#1194);
#368=VERTEX_POINT('',#1196);
#369=VERTEX_POINT('',#1198);
#370=VERTEX_POINT('',#1200);
#371=VERTEX_POINT('',#1204);
#372=VERTEX_POINT('',#1206);
#373=VERTEX_POINT('',#1210);
#374=VERTEX_POINT('',#1214);
#375=VERTEX_POINT('',#1217);
#376=VERTEX_POINT('',#1221);
#377=VERTEX_POINT('',#1225);
#378=VERTEX_POINT('',#1233);
#379=VERTEX_POINT('',#1242);
#380=VERTEX_POINT('',#1246);
#381=EDGE_CURVE('',#311,#311,#281,.T.);
#382=EDGE_CURVE('',#311,#312,#131,.T.);
#383=EDGE_CURVE('',#312,#312,#282,.T.);
#384=EDGE_CURVE('',#313,#313,#283,.T.);
#385=EDGE_CURVE('',#313,#314,#132,.T.);
#386=EDGE_CURVE('',#314,#314,#284,.T.);
#387=EDGE_CURVE('',#315,#316,#285,.T.);
#388=EDGE_CURVE('',#317,#315,#133,.T.);
#389=EDGE_CURVE('',#317,#318,#134,.T.);
#390=EDGE_CURVE('',#318,#319,#286,.F.);
#391=EDGE_CURVE('',#319,#320,#135,.T.);
#392=EDGE_CURVE('',#321,#320,#136,.T.);
#393=EDGE_CURVE('',#316,#321,#137,.T.);
#394=EDGE_CURVE('',#316,#322,#138,.T.);
#395=EDGE_CURVE('',#322,#323,#287,.T.);
#396=EDGE_CURVE('',#323,#315,#139,.T.);
#397=EDGE_CURVE('',#323,#324,#140,.T.);
#398=EDGE_CURVE('',#317,#324,#141,.T.);
#399=EDGE_CURVE('',#325,#326,#288,.T.);
#400=EDGE_CURVE('',#327,#325,#142,.T.);
#401=EDGE_CURVE('',#328,#327,#143,.T.);
#402=EDGE_CURVE('',#329,#328,#144,.T.);
#403=EDGE_CURVE('',#330,#329,#289,.T.);
#404=EDGE_CURVE('',#331,#330,#145,.T.);
#405=EDGE_CURVE('',#326,#331,#146,.T.);
#406=EDGE_CURVE('',#332,#333,#290,.T.);
#407=EDGE_CURVE('',#333,#325,#147,.T.);
#408=EDGE_CURVE('',#326,#332,#148,.T.);
#409=EDGE_CURVE('',#333,#334,#149,.T.);
#410=EDGE_CURVE('',#334,#327,#150,.T.);
#411=EDGE_CURVE('',#335,#336,#151,.T.);
#412=EDGE_CURVE('',#321,#336,#152,.T.);
#413=EDGE_CURVE('',#335,#320,#153,.T.);
#414=EDGE_CURVE('',#336,#322,#154,.T.);
#415=EDGE_CURVE('',#318,#330,#155,.T.);
#416=EDGE_CURVE('',#319,#329,#156,.T.);
#417=EDGE_CURVE('',#334,#337,#157,.T.);
#418=EDGE_CURVE('',#328,#337,#158,.T.);
#419=EDGE_CURVE('',#338,#331,#159,.T.);
#420=EDGE_CURVE('',#338,#332,#160,.T.);
#421=EDGE_CURVE('',#339,#340,#291,.T.);
#422=EDGE_CURVE('',#340,#341,#161,.T.);
#423=EDGE_CURVE('',#341,#342,#292,.T.);
#424=EDGE_CURVE('',#342,#339,#162,.T.);
#425=EDGE_CURVE('',#340,#343,#163,.T.);
#426=EDGE_CURVE('',#344,#343,#293,.T.);
#427=EDGE_CURVE('',#344,#345,#164,.T.);
#428=EDGE_CURVE('',#346,#345,#294,.T.);
#429=EDGE_CURVE('',#346,#347,#165,.T.);
#430=EDGE_CURVE('',#348,#347,#295,.T.);
#431=EDGE_CURVE('',#348,#349,#166,.T.);
#432=EDGE_CURVE('',#350,#349,#167,.T.);
#433=EDGE_CURVE('',#350,#351,#168,.T.);
#434=EDGE_CURVE('',#351,#352,#169,.T.);
#435=EDGE_CURVE('',#352,#353,#170,.T.);
#436=EDGE_CURVE('',#353,#341,#171,.T.);
#437=EDGE_CURVE('',#354,#339,#172,.T.);
#438=EDGE_CURVE('',#355,#354,#296,.T.);
#439=EDGE_CURVE('',#356,#355,#173,.T.);
#440=EDGE_CURVE('',#356,#357,#174,.T.);
#441=EDGE_CURVE('',#357,#338,#175,.T.);
#442=EDGE_CURVE('',#324,#358,#176,.T.);
#443=EDGE_CURVE('',#343,#358,#177,.T.);
#444=EDGE_CURVE('',#354,#359,#178,.T.);
#445=EDGE_CURVE('',#359,#360,#297,.T.);
#446=EDGE_CURVE('',#360,#355,#179,.T.);
#447=EDGE_CURVE('',#360,#361,#180,.T.);
#448=EDGE_CURVE('',#361,#362,#181,.T.);
#449=EDGE_CURVE('',#362,#363,#182,.T.);
#450=EDGE_CURVE('',#363,#364,#183,.T.);
#451=EDGE_CURVE('',#365,#364,#184,.T.);
#452=EDGE_CURVE('',#365,#366,#185,.T.);
#453=EDGE_CURVE('',#367,#366,#298,.T.);
#454=EDGE_CURVE('',#367,#368,#186,.T.);
#455=EDGE_CURVE('',#369,#368,#299,.T.);
#456=EDGE_CURVE('',#369,#370,#187,.T.);
#457=EDGE_CURVE('',#356,#370,#300,.T.);
#458=EDGE_CURVE('',#371,#365,#301,.T.);
#459=EDGE_CURVE('',#364,#372,#302,.T.);
#460=EDGE_CURVE('',#372,#371,#188,.T.);
#461=EDGE_CURVE('',#373,#371,#189,.T.);
#462=EDGE_CURVE('',#349,#373,#303,.T.);
#463=EDGE_CURVE('',#366,#348,#190,.T.);
#464=EDGE_CURVE('',#374,#374,#304,.T.);
#465=EDGE_CURVE('',#373,#375,#191,.T.);
#466=EDGE_CURVE('',#375,#350,#305,.T.);
#467=EDGE_CURVE('',#376,#335,#192,.T.);
#468=EDGE_CURVE('',#358,#376,#306,.T.);
#469=EDGE_CURVE('',#377,#357,#307,.T.);
#470=EDGE_CURVE('',#337,#377,#193,.T.);
#471=EDGE_CURVE('',#344,#376,#194,.T.);
#472=EDGE_CURVE('',#370,#377,#195,.T.);
#473=EDGE_CURVE('',#345,#369,#196,.T.);
#474=EDGE_CURVE('',#378,#378,#308,.T.);
#475=EDGE_CURVE('',#347,#367,#197,.T.);
#476=EDGE_CURVE('',#368,#346,#198,.T.);
#477=EDGE_CURVE('',#374,#379,#199,.T.);
#478=EDGE_CURVE('',#379,#379,#309,.T.);
#479=EDGE_CURVE('',#378,#380,#200,.T.);
#480=EDGE_CURVE('',#380,#380,#310,.T.);
#481=EDGE_CURVE('',#363,#351,#201,.T.);
#482=EDGE_CURVE('',#362,#352,#202,.T.);
#483=EDGE_CURVE('',#361,#353,#203,.T.);
#484=EDGE_CURVE('',#342,#359,#204,.T.);
#485=EDGE_CURVE('',#375,#372,#205,.T.);
#486=ORIENTED_EDGE('',*,*,#381,.F.);
#487=ORIENTED_EDGE('',*,*,#382,.T.);
#488=ORIENTED_EDGE('',*,*,#383,.F.);
#489=ORIENTED_EDGE('',*,*,#382,.F.);
#490=ORIENTED_EDGE('',*,*,#384,.F.);
#491=ORIENTED_EDGE('',*,*,#385,.T.);
#492=ORIENTED_EDGE('',*,*,#386,.F.);
#493=ORIENTED_EDGE('',*,*,#385,.F.);
#494=ORIENTED_EDGE('',*,*,#387,.F.);
#495=ORIENTED_EDGE('',*,*,#388,.F.);
#496=ORIENTED_EDGE('',*,*,#389,.T.);
#497=ORIENTED_EDGE('',*,*,#390,.T.);
#498=ORIENTED_EDGE('',*,*,#391,.T.);
#499=ORIENTED_EDGE('',*,*,#392,.F.);
#500=ORIENTED_EDGE('',*,*,#393,.F.);
#501=ORIENTED_EDGE('',*,*,#384,.T.);
#502=ORIENTED_EDGE('',*,*,#387,.T.);
#503=ORIENTED_EDGE('',*,*,#394,.T.);
#504=ORIENTED_EDGE('',*,*,#395,.T.);
#505=ORIENTED_EDGE('',*,*,#396,.T.);
#506=ORIENTED_EDGE('',*,*,#396,.F.);
#507=ORIENTED_EDGE('',*,*,#397,.T.);
#508=ORIENTED_EDGE('',*,*,#398,.F.);
#509=ORIENTED_EDGE('',*,*,#388,.T.);
#510=ORIENTED_EDGE('',*,*,#399,.F.);
#511=ORIENTED_EDGE('',*,*,#400,.F.);
#512=ORIENTED_EDGE('',*,*,#401,.F.);
#513=ORIENTED_EDGE('',*,*,#402,.F.);
#514=ORIENTED_EDGE('',*,*,#403,.F.);
#515=ORIENTED_EDGE('',*,*,#404,.F.);
#516=ORIENTED_EDGE('',*,*,#405,.F.);
#517=ORIENTED_EDGE('',*,*,#383,.T.);
#518=ORIENTED_EDGE('',*,*,#406,.T.);
#519=ORIENTED_EDGE('',*,*,#407,.T.);
#520=ORIENTED_EDGE('',*,*,#399,.T.);
#521=ORIENTED_EDGE('',*,*,#408,.T.);
#522=ORIENTED_EDGE('',*,*,#407,.F.);
#523=ORIENTED_EDGE('',*,*,#409,.T.);
#524=ORIENTED_EDGE('',*,*,#410,.T.);
#525=ORIENTED_EDGE('',*,*,#400,.T.);
#526=ORIENTED_EDGE('',*,*,#411,.T.);
#527=ORIENTED_EDGE('',*,*,#412,.F.);
#528=ORIENTED_EDGE('',*,*,#392,.T.);
#529=ORIENTED_EDGE('',*,*,#413,.F.);
#530=ORIENTED_EDGE('',*,*,#394,.F.);
#531=ORIENTED_EDGE('',*,*,#393,.T.);
#532=ORIENTED_EDGE('',*,*,#412,.T.);
#533=ORIENTED_EDGE('',*,*,#414,.T.);
#534=ORIENTED_EDGE('',*,*,#390,.F.);
#535=ORIENTED_EDGE('',*,*,#415,.T.);
#536=ORIENTED_EDGE('',*,*,#403,.T.);
#537=ORIENTED_EDGE('',*,*,#416,.F.);
#538=ORIENTED_EDGE('',*,*,#401,.T.);
#539=ORIENTED_EDGE('',*,*,#410,.F.);
#540=ORIENTED_EDGE('',*,*,#417,.T.);
#541=ORIENTED_EDGE('',*,*,#418,.F.);
#542=ORIENTED_EDGE('',*,*,#408,.F.);
#543=ORIENTED_EDGE('',*,*,#405,.T.);
#544=ORIENTED_EDGE('',*,*,#419,.F.);
#545=ORIENTED_EDGE('',*,*,#420,.T.);
#546=ORIENTED_EDGE('',*,*,#421,.T.);
#547=ORIENTED_EDGE('',*,*,#422,.T.);
#548=ORIENTED_EDGE('',*,*,#423,.T.);
#549=ORIENTED_EDGE('',*,*,#424,.T.);
#550=ORIENTED_EDGE('',*,*,#422,.F.);
#551=ORIENTED_EDGE('',*,*,#425,.T.);
#552=ORIENTED_EDGE('',*,*,#426,.F.);
#553=ORIENTED_EDGE('',*,*,#427,.T.);
#554=ORIENTED_EDGE('',*,*,#428,.F.);
#555=ORIENTED_EDGE('',*,*,#429,.T.);
#556=ORIENTED_EDGE('',*,*,#430,.F.);
#557=ORIENTED_EDGE('',*,*,#431,.T.);
#558=ORIENTED_EDGE('',*,*,#432,.F.);
#559=ORIENTED_EDGE('',*,*,#433,.T.);
#560=ORIENTED_EDGE('',*,*,#434,.T.);
#561=ORIENTED_EDGE('',*,*,#435,.T.);
#562=ORIENTED_EDGE('',*,*,#436,.T.);
#563=ORIENTED_EDGE('',*,*,#421,.F.);
#564=ORIENTED_EDGE('',*,*,#437,.F.);
#565=ORIENTED_EDGE('',*,*,#438,.F.);
#566=ORIENTED_EDGE('',*,*,#439,.F.);
#567=ORIENTED_EDGE('',*,*,#440,.T.);
#568=ORIENTED_EDGE('',*,*,#441,.T.);
#569=ORIENTED_EDGE('',*,*,#419,.T.);
#570=ORIENTED_EDGE('',*,*,#404,.T.);
#571=ORIENTED_EDGE('',*,*,#415,.F.);
#572=ORIENTED_EDGE('',*,*,#389,.F.);
#573=ORIENTED_EDGE('',*,*,#398,.T.);
#574=ORIENTED_EDGE('',*,*,#442,.T.);
#575=ORIENTED_EDGE('',*,*,#443,.F.);
#576=ORIENTED_EDGE('',*,*,#425,.F.);
#577=ORIENTED_EDGE('',*,*,#438,.T.);
#578=ORIENTED_EDGE('',*,*,#444,.T.);
#579=ORIENTED_EDGE('',*,*,#445,.T.);
#580=ORIENTED_EDGE('',*,*,#446,.T.);
#581=ORIENTED_EDGE('',*,*,#446,.F.);
#582=ORIENTED_EDGE('',*,*,#447,.T.);
#583=ORIENTED_EDGE('',*,*,#448,.T.);
#584=ORIENTED_EDGE('',*,*,#449,.T.);
#585=ORIENTED_EDGE('',*,*,#450,.T.);
#586=ORIENTED_EDGE('',*,*,#451,.F.);
#587=ORIENTED_EDGE('',*,*,#452,.T.);
#588=ORIENTED_EDGE('',*,*,#453,.F.);
#589=ORIENTED_EDGE('',*,*,#454,.T.);
#590=ORIENTED_EDGE('',*,*,#455,.F.);
#591=ORIENTED_EDGE('',*,*,#456,.T.);
#592=ORIENTED_EDGE('',*,*,#457,.F.);
#593=ORIENTED_EDGE('',*,*,#439,.T.);
#594=ORIENTED_EDGE('',*,*,#458,.T.);
#595=ORIENTED_EDGE('',*,*,#451,.T.);
#596=ORIENTED_EDGE('',*,*,#459,.T.);
#597=ORIENTED_EDGE('',*,*,#460,.T.);
#598=ORIENTED_EDGE('',*,*,#458,.F.);
#599=ORIENTED_EDGE('',*,*,#461,.F.);
#600=ORIENTED_EDGE('',*,*,#462,.F.);
#601=ORIENTED_EDGE('',*,*,#431,.F.);
#602=ORIENTED_EDGE('',*,*,#463,.F.);
#603=ORIENTED_EDGE('',*,*,#452,.F.);
#604=ORIENTED_EDGE('',*,*,#464,.T.);
#605=ORIENTED_EDGE('',*,*,#462,.T.);
#606=ORIENTED_EDGE('',*,*,#465,.T.);
#607=ORIENTED_EDGE('',*,*,#466,.T.);
#608=ORIENTED_EDGE('',*,*,#432,.T.);
#609=ORIENTED_EDGE('',*,*,#395,.F.);
#610=ORIENTED_EDGE('',*,*,#414,.F.);
#611=ORIENTED_EDGE('',*,*,#411,.F.);
#612=ORIENTED_EDGE('',*,*,#467,.F.);
#613=ORIENTED_EDGE('',*,*,#468,.F.);
#614=ORIENTED_EDGE('',*,*,#442,.F.);
#615=ORIENTED_EDGE('',*,*,#397,.F.);
#616=ORIENTED_EDGE('',*,*,#386,.T.);
#617=ORIENTED_EDGE('',*,*,#406,.F.);
#618=ORIENTED_EDGE('',*,*,#420,.F.);
#619=ORIENTED_EDGE('',*,*,#441,.F.);
#620=ORIENTED_EDGE('',*,*,#469,.F.);
#621=ORIENTED_EDGE('',*,*,#470,.F.);
#622=ORIENTED_EDGE('',*,*,#417,.F.);
#623=ORIENTED_EDGE('',*,*,#409,.F.);
#624=ORIENTED_EDGE('',*,*,#381,.T.);
#625=ORIENTED_EDGE('',*,*,#426,.T.);
#626=ORIENTED_EDGE('',*,*,#443,.T.);
#627=ORIENTED_EDGE('',*,*,#468,.T.);
#628=ORIENTED_EDGE('',*,*,#471,.F.);
#629=ORIENTED_EDGE('',*,*,#471,.T.);
#630=ORIENTED_EDGE('',*,*,#467,.T.);
#631=ORIENTED_EDGE('',*,*,#413,.T.);
#632=ORIENTED_EDGE('',*,*,#391,.F.);
#633=ORIENTED_EDGE('',*,*,#416,.T.);
#634=ORIENTED_EDGE('',*,*,#402,.T.);
#635=ORIENTED_EDGE('',*,*,#418,.T.);
#636=ORIENTED_EDGE('',*,*,#470,.T.);
#637=ORIENTED_EDGE('',*,*,#472,.F.);
#638=ORIENTED_EDGE('',*,*,#456,.F.);
#639=ORIENTED_EDGE('',*,*,#473,.F.);
#640=ORIENTED_EDGE('',*,*,#427,.F.);
#641=ORIENTED_EDGE('',*,*,#474,.T.);
#642=ORIENTED_EDGE('',*,*,#457,.T.);
#643=ORIENTED_EDGE('',*,*,#472,.T.);
#644=ORIENTED_EDGE('',*,*,#469,.T.);
#645=ORIENTED_EDGE('',*,*,#440,.F.);
#646=ORIENTED_EDGE('',*,*,#430,.T.);
#647=ORIENTED_EDGE('',*,*,#475,.T.);
#648=ORIENTED_EDGE('',*,*,#453,.T.);
#649=ORIENTED_EDGE('',*,*,#463,.T.);
#650=ORIENTED_EDGE('',*,*,#475,.F.);
#651=ORIENTED_EDGE('',*,*,#429,.F.);
#652=ORIENTED_EDGE('',*,*,#476,.F.);
#653=ORIENTED_EDGE('',*,*,#454,.F.);
#654=ORIENTED_EDGE('',*,*,#455,.T.);
#655=ORIENTED_EDGE('',*,*,#476,.T.);
#656=ORIENTED_EDGE('',*,*,#428,.T.);
#657=ORIENTED_EDGE('',*,*,#473,.T.);
#658=ORIENTED_EDGE('',*,*,#464,.F.);
#659=ORIENTED_EDGE('',*,*,#477,.T.);
#660=ORIENTED_EDGE('',*,*,#478,.F.);
#661=ORIENTED_EDGE('',*,*,#477,.F.);
#662=ORIENTED_EDGE('',*,*,#474,.F.);
#663=ORIENTED_EDGE('',*,*,#479,.T.);
#664=ORIENTED_EDGE('',*,*,#480,.F.);
#665=ORIENTED_EDGE('',*,*,#479,.F.);
#666=ORIENTED_EDGE('',*,*,#481,.F.);
#667=ORIENTED_EDGE('',*,*,#449,.F.);
#668=ORIENTED_EDGE('',*,*,#482,.T.);
#669=ORIENTED_EDGE('',*,*,#434,.F.);
#670=ORIENTED_EDGE('',*,*,#482,.F.);
#671=ORIENTED_EDGE('',*,*,#448,.F.);
#672=ORIENTED_EDGE('',*,*,#483,.T.);
#673=ORIENTED_EDGE('',*,*,#435,.F.);
#674=ORIENTED_EDGE('',*,*,#480,.T.);
#675=ORIENTED_EDGE('',*,*,#423,.F.);
#676=ORIENTED_EDGE('',*,*,#436,.F.);
#677=ORIENTED_EDGE('',*,*,#483,.F.);
#678=ORIENTED_EDGE('',*,*,#447,.F.);
#679=ORIENTED_EDGE('',*,*,#445,.F.);
#680=ORIENTED_EDGE('',*,*,#484,.F.);
#681=ORIENTED_EDGE('',*,*,#424,.F.);
#682=ORIENTED_EDGE('',*,*,#484,.T.);
#683=ORIENTED_EDGE('',*,*,#444,.F.);
#684=ORIENTED_EDGE('',*,*,#437,.T.);
#685=ORIENTED_EDGE('',*,*,#460,.F.);
#686=ORIENTED_EDGE('',*,*,#485,.F.);
#687=ORIENTED_EDGE('',*,*,#465,.F.);
#688=ORIENTED_EDGE('',*,*,#461,.T.);
#689=ORIENTED_EDGE('',*,*,#459,.F.);
#690=ORIENTED_EDGE('',*,*,#450,.F.);
#691=ORIENTED_EDGE('',*,*,#481,.T.);
#692=ORIENTED_EDGE('',*,*,#433,.F.);
#693=ORIENTED_EDGE('',*,*,#466,.F.);
#694=ORIENTED_EDGE('',*,*,#485,.T.);
#695=ORIENTED_EDGE('',*,*,#478,.T.);
#696=CYLINDRICAL_SURFACE('',#763,1.6);
#697=CYLINDRICAL_SURFACE('',#766,1.6);
#698=CYLINDRICAL_SURFACE('',#772,7.5);
#699=CYLINDRICAL_SURFACE('',#778,7.5);
#700=CYLINDRICAL_SURFACE('',#783,5.);
#701=CYLINDRICAL_SURFACE('',#786,10.);
#702=CYLINDRICAL_SURFACE('',#795,10.);
#703=CYLINDRICAL_SURFACE('',#801,10.);
#704=CYLINDRICAL_SURFACE('',#807,10.);
#705=CYLINDRICAL_SURFACE('',#813,5.);
#706=CYLINDRICAL_SURFACE('',#816,5.);
#707=CYLINDRICAL_SURFACE('',#817,5.);
#708=CYLINDRICAL_SURFACE('',#819,5.);
#709=CYLINDRICAL_SURFACE('',#820,2.);
#710=CYLINDRICAL_SURFACE('',#822,12.5);
#711=ADVANCED_FACE('',(#49),#696,.F.);
#712=ADVANCED_FACE('',(#50),#697,.F.);
#713=ADVANCED_FACE('',(#51,#19),#27,.F.);
#714=ADVANCED_FACE('',(#52),#698,.T.);
#715=ADVANCED_FACE('',(#53),#28,.T.);
#716=ADVANCED_FACE('',(#54,#20),#29,.F.);
#717=ADVANCED_FACE('',(#55),#699,.T.);
#718=ADVANCED_FACE('',(#56),#30,.T.);
#719=ADVANCED_FACE('',(#57),#31,.T.);
#720=ADVANCED_FACE('',(#58),#32,.T.);
#721=ADVANCED_FACE('',(#59),#700,.T.);
#722=ADVANCED_FACE('',(#60),#33,.T.);
#723=ADVANCED_FACE('',(#61),#34,.T.);
#724=ADVANCED_FACE('',(#62),#701,.T.);
#725=ADVANCED_FACE('',(#63),#35,.T.);
#726=ADVANCED_FACE('',(#64),#36,.T.);
#727=ADVANCED_FACE('',(#65),#702,.T.);
#728=ADVANCED_FACE('',(#66),#37,.T.);
#729=ADVANCED_FACE('',(#67),#703,.T.);
#730=ADVANCED_FACE('',(#68,#21),#38,.T.);
#731=ADVANCED_FACE('',(#69),#704,.T.);
#732=ADVANCED_FACE('',(#70,#22),#39,.F.);
#733=ADVANCED_FACE('',(#71,#23),#40,.F.);
#734=ADVANCED_FACE('',(#72),#705,.T.);
#735=ADVANCED_FACE('',(#73,#24),#41,.T.);
#736=ADVANCED_FACE('',(#74),#706,.T.);
#737=ADVANCED_FACE('',(#75),#707,.T.);
#738=ADVANCED_FACE('',(#76),#42,.T.);
#739=ADVANCED_FACE('',(#77),#708,.T.);
#740=ADVANCED_FACE('',(#78),#709,.F.);
#741=ADVANCED_FACE('',(#79),#710,.F.);
#742=ADVANCED_FACE('',(#80),#43,.T.);
#743=ADVANCED_FACE('',(#81,#25),#44,.T.);
#744=ADVANCED_FACE('',(#82),#45,.T.);
#745=ADVANCED_FACE('',(#83),#46,.T.);
#746=ADVANCED_FACE('',(#84),#47,.T.);
#747=ADVANCED_FACE('',(#85,#26),#48,.T.);
#748=CLOSED_SHELL('',(#711,#712,#713,#714,#715,#716,#717,#718,#719,#720,
#721,#722,#723,#724,#725,#726,#727,#728,#729,#730,#731,#732,#733,#734,#735,
#736,#737,#738,#739,#740,#741,#742,#743,#744,#745,#746,#747));
#749=DERIVED_UNIT_ELEMENT(#751,1.);
#750=DERIVED_UNIT_ELEMENT(#1268,-3.);
#751=(
MASS_UNIT()
NAMED_UNIT(*)
SI_UNIT(.KILO.,.GRAM.)
);
#752=DERIVED_UNIT((#749,#750));
#753=MEASURE_REPRESENTATION_ITEM('density measure',
POSITIVE_RATIO_MEASURE(7850.),#752);
#754=PROPERTY_DEFINITION_REPRESENTATION(#759,#756);
#755=PROPERTY_DEFINITION_REPRESENTATION(#760,#757);
#756=REPRESENTATION('material name',(#758),#1265);
#757=REPRESENTATION('density',(#753),#1265);
#758=DESCRIPTIVE_REPRESENTATION_ITEM('A\X\E7o','A\X\E7o');
#759=PROPERTY_DEFINITION('material property','material name',#1280);
#760=PROPERTY_DEFINITION('material property','density of part',#1280);
#761=AXIS2_PLACEMENT_3D('',#1046,#831,#832);
#762=AXIS2_PLACEMENT_3D('',#1047,#833,#834);
#763=AXIS2_PLACEMENT_3D('',#1048,#835,#836);
#764=AXIS2_PLACEMENT_3D('',#1050,#837,#838);
#765=AXIS2_PLACEMENT_3D('',#1053,#840,#841);
#766=AXIS2_PLACEMENT_3D('',#1054,#842,#843);
#767=AXIS2_PLACEMENT_3D('',#1056,#844,#845);
#768=AXIS2_PLACEMENT_3D('',#1059,#847,#848);
#769=AXIS2_PLACEMENT_3D('',#1060,#849,#850);
#770=AXIS2_PLACEMENT_3D('',#1063,#851,#852);
#771=AXIS2_PLACEMENT_3D('',#1069,#855,#856);
#772=AXIS2_PLACEMENT_3D('',#1075,#860,#861);
#773=AXIS2_PLACEMENT_3D('',#1079,#863,#864);
#774=AXIS2_PLACEMENT_3D('',#1081,#866,#867);
#775=AXIS2_PLACEMENT_3D('',#1085,#870,#871);
#776=AXIS2_PLACEMENT_3D('',#1088,#872,#873);
#777=AXIS2_PLACEMENT_3D('',#1096,#877,#878);
#778=AXIS2_PLACEMENT_3D('',#1100,#881,#882);
#779=AXIS2_PLACEMENT_3D('',#1103,#883,#884);
#780=AXIS2_PLACEMENT_3D('',#1106,#887,#888);
#781=AXIS2_PLACEMENT_3D('',#1110,#891,#892);
#782=AXIS2_PLACEMENT_3D('',#1116,#896,#897);
#783=AXIS2_PLACEMENT_3D('',#1118,#899,#900);
#784=AXIS2_PLACEMENT_3D('',#1121,#903,#904);
#785=AXIS2_PLACEMENT_3D('',#1125,#907,#908);
#786=AXIS2_PLACEMENT_3D('',#1129,#911,#912);
#787=AXIS2_PLACEMENT_3D('',#1132,#913,#914);
#788=AXIS2_PLACEMENT_3D('',#1136,#916,#917);
#789=AXIS2_PLACEMENT_3D('',#1138,#919,#920);
#790=AXIS2_PLACEMENT_3D('',#1142,#922,#923);
#791=AXIS2_PLACEMENT_3D('',#1146,#925,#926);
#792=AXIS2_PLACEMENT_3D('',#1150,#928,#929);
#793=AXIS2_PLACEMENT_3D('',#1162,#936,#937);
#794=AXIS2_PLACEMENT_3D('',#1166,#939,#940);
#795=AXIS2_PLACEMENT_3D('',#1175,#946,#947);
#796=AXIS2_PLACEMENT_3D('',#1179,#949,#950);
#797=AXIS2_PLACEMENT_3D('',#1181,#952,#953);
#798=AXIS2_PLACEMENT_3D('',#1195,#960,#961);
#799=AXIS2_PLACEMENT_3D('',#1199,#963,#964);
#800=AXIS2_PLACEMENT_3D('',#1202,#966,#967);
#801=AXIS2_PLACEMENT_3D('',#1203,#968,#969);
#802=AXIS2_PLACEMENT_3D('',#1205,#970,#971);
#803=AXIS2_PLACEMENT_3D('',#1207,#972,#973);
#804=AXIS2_PLACEMENT_3D('',#1209,#975,#976);
#805=AXIS2_PLACEMENT_3D('',#1212,#978,#979);
#806=AXIS2_PLACEMENT_3D('',#1215,#981,#982);
#807=AXIS2_PLACEMENT_3D('',#1216,#983,#984);
#808=AXIS2_PLACEMENT_3D('',#1219,#986,#987);
#809=AXIS2_PLACEMENT_3D('',#1220,#988,#989);
#810=AXIS2_PLACEMENT_3D('',#1223,#991,#992);
#811=AXIS2_PLACEMENT_3D('',#1224,#993,#994);
#812=AXIS2_PLACEMENT_3D('',#1226,#995,#996);
#813=AXIS2_PLACEMENT_3D('',#1228,#998,#999);
#814=AXIS2_PLACEMENT_3D('',#1230,#1001,#1002);
#815=AXIS2_PLACEMENT_3D('',#1234,#1005,#1006);
#816=AXIS2_PLACEMENT_3D('',#1235,#1007,#1008);
#817=AXIS2_PLACEMENT_3D('',#1236,#1009,#1010);
#818=AXIS2_PLACEMENT_3D('',#1238,#1012,#1013);
#819=AXIS2_PLACEMENT_3D('',#1240,#1015,#1016);
#820=AXIS2_PLACEMENT_3D('',#1241,#1017,#1018);
#821=AXIS2_PLACEMENT_3D('',#1244,#1020,#1021);
#822=AXIS2_PLACEMENT_3D('',#1245,#1022,#1023);
#823=AXIS2_PLACEMENT_3D('',#1248,#1025,#1026);
#824=AXIS2_PLACEMENT_3D('',#1249,#1027,#1028);
#825=AXIS2_PLACEMENT_3D('',#1252,#1031,#1032);
#826=AXIS2_PLACEMENT_3D('',#1254,#1034,#1035);
#827=AXIS2_PLACEMENT_3D('',#1256,#1037,#1038);
#828=AXIS2_PLACEMENT_3D('',#1257,#1039,#1040);
#829=AXIS2_PLACEMENT_3D('',#1259,#1042,#1043);
#830=AXIS2_PLACEMENT_3D('',#1260,#1044,#1045);
#831=DIRECTION('axis',(0.,0.,1.));
#832=DIRECTION('refdir',(1.,0.,0.));
#833=DIRECTION('axis',(0.,0.,1.));
#834=DIRECTION('refdir',(1.,0.,0.));
#835=DIRECTION('center_axis',(-1.,0.,0.));
#836=DIRECTION('ref_axis',(0.,2.49800183471737E-16,-1.));
#837=DIRECTION('center_axis',(-1.,0.,0.));
#838=DIRECTION('ref_axis',(0.,2.49800183471737E-16,-1.));
#839=DIRECTION('',(-1.,0.,0.));
#840=DIRECTION('center_axis',(1.,0.,0.));
#841=DIRECTION('ref_axis',(0.,2.49800183471737E-16,-1.));
#842=DIRECTION('center_axis',(-1.,0.,0.));
#843=DIRECTION('ref_axis',(0.,2.49800183471737E-16,-1.));
#844=DIRECTION('center_axis',(-1.,0.,0.));
#845=DIRECTION('ref_axis',(0.,2.49800183471737E-16,-1.));
#846=DIRECTION('',(-1.,0.,0.));
#847=DIRECTION('center_axis',(1.,0.,0.));
#848=DIRECTION('ref_axis',(0.,2.49800183471737E-16,-1.));
#849=DIRECTION('center_axis',(-1.,0.,0.));
#850=DIRECTION('ref_axis',(0.,-0.642787609686539,-0.766044443118978));
#851=DIRECTION('center_axis',(-1.,0.,0.));
#852=DIRECTION('ref_axis',(0.,0.0871557427476568,-0.996194698091746));
#853=DIRECTION('',(0.,0.766044443118978,-0.642787609686539));
#854=DIRECTION('',(0.,0.,-1.));
#855=DIRECTION('center_axis',(1.,0.,0.));
#856=DIRECTION('ref_axis',(0.,0.707106781186548,-0.707106781186548));
#857=DIRECTION('',(0.,-1.,0.));
#858=DIRECTION('',(0.,0.642787609686539,0.766044443118978));
#859=DIRECTION('',(0.,-0.766044443118977,0.64278760968654));
#860=DIRECTION('center_axis',(1.,0.,0.));
#861=DIRECTION('ref_axis',(0.,0.996194698091746,0.0871557427476576));
#862=DIRECTION('',(-1.,0.,0.));
#863=DIRECTION('center_axis',(1.,0.,0.));
#864=DIRECTION('ref_axis',(0.,0.996194698091746,0.0871557427476576));
#865=DIRECTION('',(1.,0.,0.));
#866=DIRECTION('center_axis',(0.,0.642787609686539,0.766044443118978));
#867=DIRECTION('ref_axis',(0.,-0.766044443118978,0.642787609686539));
#868=DIRECTION('',(0.,-0.766044443118978,0.642787609686539));
#869=DIRECTION('',(-1.,0.,0.));
#870=DIRECTION('center_axis',(1.,0.,0.));
#871=DIRECTION('ref_axis',(0.,0.642787609686539,0.766044443118978));
#872=DIRECTION('center_axis',(1.,0.,0.));
#873=DIRECTION('ref_axis',(0.,0.996194698091746,0.0871557427476576));
#874=DIRECTION('',(0.,0.766044443118977,-0.64278760968654));
#875=DIRECTION('',(0.,-0.642787609686539,-0.766044443118978));
#876=DIRECTION('',(0.,-1.,0.));
#877=DIRECTION('center_axis',(-1.,0.,0.));
#878=DIRECTION('ref_axis',(0.,0.707106781186548,-0.707106781186548));
#879=DIRECTION('',(0.,0.,-1.));
#880=DIRECTION('',(0.,-0.766044443118978,0.642787609686539));
#881=DIRECTION('center_axis',(1.,0.,0.));
#882=DIRECTION('ref_axis',(0.,0.0871557427476568,-0.996194698091746));
#883=DIRECTION('center_axis',(-1.,0.,0.));
#884=DIRECTION('ref_axis',(0.,0.0871557427476568,-0.996194698091746));
#885=DIRECTION('',(-1.,0.,0.));
#886=DIRECTION('',(1.,0.,0.));
#887=DIRECTION('center_axis',(0.,-0.64278760968654,-0.766044443118977));
#888=DIRECTION('ref_axis',(0.,0.766044443118977,-0.64278760968654));
#889=DIRECTION('',(0.,-0.766044443118977,0.64278760968654));
#890=DIRECTION('',(-1.,0.,0.));
#891=DIRECTION('center_axis',(0.,-0.766044443118978,0.642787609686539));
#892=DIRECTION('ref_axis',(0.,-0.642787609686539,-0.766044443118978));
#893=DIRECTION('',(0.,-0.642787609686539,-0.766044443118978));
#894=DIRECTION('',(-1.,0.,0.));
#895=DIRECTION('',(1.,0.,0.));
#896=DIRECTION('center_axis',(0.,-0.64278760968654,-0.766044443118977));
#897=DIRECTION('ref_axis',(0.,0.766044443118977,-0.64278760968654));
#898=DIRECTION('',(0.,0.766044443118977,-0.64278760968654));
#899=DIRECTION('center_axis',(1.,0.,0.));
#900=DIRECTION('ref_axis',(0.,0.707106781186548,-0.707106781186548));
#901=DIRECTION('',(1.,0.,0.));
#902=DIRECTION('',(1.,0.,0.));
#903=DIRECTION('center_axis',(0.,-0.766044443118978,0.642787609686539));
#904=DIRECTION('ref_axis',(0.,-0.642787609686539,-0.766044443118978));
#905=DIRECTION('',(0.,0.642787609686539,0.766044443118978));
#906=DIRECTION('',(1.,0.,0.));
#907=DIRECTION('center_axis',(0.,0.642787609686539,0.766044443118978));
#908=DIRECTION('ref_axis',(0.,-0.766044443118978,0.642787609686539));
#909=DIRECTION('',(-1.,0.,0.));
#910=DIRECTION('',(0.,0.766044443118978,-0.642787609686539));
#911=DIRECTION('center_axis',(0.,1.,0.));
#912=DIRECTION('ref_axis',(-0.707106781186547,0.,0.707106781186547));
#913=DIRECTION('center_axis',(0.,-1.,0.));
#914=DIRECTION('ref_axis',(-0.707106781186547,0.,0.707106781186547));
#915=DIRECTION('',(0.,-1.,0.));
#916=DIRECTION('center_axis',(0.,1.,-1.26882631385732E-16));
#917=DIRECTION('ref_axis',(-0.707106781186547,0.,0.707106781186547));
#918=DIRECTION('',(0.,1.,0.));
#919=DIRECTION('center_axis',(-1.,0.,0.));
#920=DIRECTION('ref_axis',(0.,0.,1.));
#921=DIRECTION('',(0.,0.,-1.));
#922=DIRECTION('center_axis',(1.,0.,0.));
#923=DIRECTION('ref_axis',(0.,0.707106781186548,-0.707106781186548));
#924=DIRECTION('',(0.,-1.,0.));
#925=DIRECTION('center_axis',(1.,0.,0.));
#926=DIRECTION('ref_axis',(0.,-0.707106781186548,-0.707106781186548));
#927=DIRECTION('',(0.,0.,1.));
#928=DIRECTION('center_axis',(1.,0.,0.));
#929=DIRECTION('ref_axis',(0.,-0.707106781186548,0.707106781186548));
#930=DIRECTION('',(0.,1.,0.));
#931=DIRECTION('',(0.,0.,1.));
#932=DIRECTION('',(0.,-1.,0.));
#933=DIRECTION('',(0.,-1.26882631385732E-16,-1.));
#934=DIRECTION('',(0.,1.,9.65411325761005E-17));
#935=DIRECTION('',(0.,1.26882631385732E-16,1.));
#936=DIRECTION('center_axis',(0.,1.,0.));
#937=DIRECTION('ref_axis',(0.,0.,1.));
#938=DIRECTION('',(-1.,0.,0.));
#939=DIRECTION('center_axis',(0.,-1.,0.));
#940=DIRECTION('ref_axis',(0.707106781186547,0.,0.707106781186547));
#941=DIRECTION('',(0.,0.,1.));
#942=DIRECTION('',(-1.,0.,0.));
#943=DIRECTION('',(0.,0.,1.));
#944=DIRECTION('',(0.,0.,-1.));
#945=DIRECTION('',(1.,0.,0.));
#946=DIRECTION('center_axis',(0.,-1.,0.));
#947=DIRECTION('ref_axis',(0.707106781186547,0.,0.707106781186547));
#948=DIRECTION('',(0.,-1.,0.));
#949=DIRECTION('center_axis',(0.,1.,-1.26882631385732E-16));
#950=DIRECTION('ref_axis',(0.707106781186547,0.,0.707106781186547));
#951=DIRECTION('',(0.,1.,0.));
#952=DIRECTION('center_axis',(1.,0.,0.));
#953=DIRECTION('ref_axis',(0.,0.,-1.));
#954=DIRECTION('',(0.,-1.26882631385732E-16,-1.));
#955=DIRECTION('',(0.,-1.,-9.65411325761005E-17));
#956=DIRECTION('',(0.,1.26882631385732E-16,1.));
#957=DIRECTION('',(0.,1.,0.));
#958=DIRECTION('',(0.,0.,-1.));
#959=DIRECTION('',(0.,-1.,0.));
#960=DIRECTION('center_axis',(-1.,0.,0.));
#961=DIRECTION('ref_axis',(0.,-0.707106781186548,0.707106781186548));
#962=DIRECTION('',(0.,0.,-1.));
#963=DIRECTION('center_axis',(-1.,0.,0.));
#964=DIRECTION('ref_axis',(0.,-0.707106781186548,-0.707106781186548));
#965=DIRECTION('',(0.,1.,0.));
#966=DIRECTION('center_axis',(-1.,0.,0.));
#967=DIRECTION('ref_axis',(0.,0.707106781186548,-0.707106781186548));
#968=DIRECTION('center_axis',(0.,0.,1.));
#969=DIRECTION('ref_axis',(0.707106781186547,0.707106781186547,0.));
#970=DIRECTION('center_axis',(0.,0.,-1.));
#971=DIRECTION('ref_axis',(0.707106781186547,0.707106781186547,0.));
#972=DIRECTION('center_axis',(0.,0.,1.));
#973=DIRECTION('ref_axis',(0.707106781186547,0.707106781186547,0.));
#974=DIRECTION('',(0.,0.,1.));
#975=DIRECTION('center_axis',(0.,0.,1.));
#976=DIRECTION('ref_axis',(0.,-1.,0.));
#977=DIRECTION('',(1.,0.,0.));
#978=DIRECTION('center_axis',(0.,0.,-1.));
#979=DIRECTION('ref_axis',(-0.707106781186547,0.707106781186547,0.));
#980=DIRECTION('',(-1.,0.,0.));
#981=DIRECTION('center_axis',(0.,0.,-1.));
#982=DIRECTION('ref_axis',(1.,0.,0.));
#983=DIRECTION('center_axis',(0.,0.,-1.));
#984=DIRECTION('ref_axis',(-0.707106781186547,0.707106781186547,0.));
#985=DIRECTION('',(0.,0.,-1.));
#986=DIRECTION('center_axis',(0.,0.,1.));
#987=DIRECTION('ref_axis',(-0.707106781186547,0.707106781186547,0.));
#988=DIRECTION('center_axis',(1.,0.,0.));
#989=DIRECTION('ref_axis',(0.,0.642787609686539,0.766044443118978));
#990=DIRECTION('',(0.,-1.,0.));
#991=DIRECTION('center_axis',(-1.,0.,0.));
#992=DIRECTION('ref_axis',(0.,0.707106781186548,-0.707106781186548));
#993=DIRECTION('center_axis',(-1.,0.,0.));
#994=DIRECTION('ref_axis',(0.,-0.642787609686539,-0.766044443118978));
#995=DIRECTION('center_axis',(1.,0.,0.));
#996=DIRECTION('ref_axis',(0.,0.707106781186548,-0.707106781186548));
#997=DIRECTION('',(0.,1.,0.));
#998=DIRECTION('center_axis',(1.,0.,0.));
#999=DIRECTION('ref_axis',(0.,0.707106781186548,-0.707106781186548));
#1000=DIRECTION('',(1.,0.,0.));
#1001=DIRECTION('center_axis',(0.,0.,-1.));
#1002=DIRECTION('ref_axis',(0.,1.,0.));
#1003=DIRECTION('',(-1.,0.,0.));
#1004=DIRECTION('',(1.,0.,0.));
#1005=DIRECTION('center_axis',(0.,0.,1.));
#1006=DIRECTION('ref_axis',(-1.,0.,0.));
#1007=DIRECTION('center_axis',(1.,0.,0.));
#1008=DIRECTION('ref_axis',(0.,0.707106781186548,-0.707106781186548));
#1009=DIRECTION('center_axis',(-1.,0.,0.));
#1010=DIRECTION('ref_axis',(0.,-0.707106781186548,0.707106781186548));
#1011=DIRECTION('',(1.,0.,0.));
#1012=DIRECTION('center_axis',(0.,-1.,0.));
#1013=DIRECTION('ref_axis',(0.,0.,-1.));
#1014=DIRECTION('',(-1.,0.,0.));
#1015=DIRECTION('center_axis',(1.,0.,0.));
#1016=DIRECTION('ref_axis',(0.,-0.707106781186548,-0.707106781186548));
#1017=DIRECTION('center_axis',(0.,0.,-1.));
#1018=DIRECTION('ref_axis',(1.,0.,0.));
#1019=DIRECTION('',(0.,0.,-1.));
#1020=DIRECTION('center_axis',(0.,0.,1.));
#1021=DIRECTION('ref_axis',(1.,0.,0.));
#1022=DIRECTION('center_axis',(0.,0.,1.));
#1023=DIRECTION('ref_axis',(-1.,0.,0.));
#1024=DIRECTION('',(0.,0.,1.));
#1025=DIRECTION('center_axis',(0.,9.65411325761006E-17,-1.));
#1026=DIRECTION('ref_axis',(-1.,0.,0.));
#1027=DIRECTION('center_axis',(0.,1.,-1.26882631385732E-16));
#1028=DIRECTION('ref_axis',(0.,1.26882631385732E-16,1.));
#1029=DIRECTION('',(-1.,0.,0.));
#1030=DIRECTION('',(-1.,0.,0.));
#1031=DIRECTION('center_axis',(0.,-9.65411325761006E-17,1.));
#1032=DIRECTION('ref_axis',(0.,-1.,-9.65411325761005E-17));
#1033=DIRECTION('',(-1.,0.,0.));
#1034=DIRECTION('center_axis',(0.,-1.,1.26882631385732E-16));
#1035=DIRECTION('ref_axis',(0.,-1.26882631385732E-16,-1.));
#1036=DIRECTION('',(1.,0.,0.));
#1037=DIRECTION('center_axis',(0.,0.,1.));
#1038=DIRECTION('ref_axis',(0.,-1.,0.));
#1039=DIRECTION('center_axis',(0.,1.,0.));
#1040=DIRECTION('ref_axis',(0.,0.,1.));
#1041=DIRECTION('',(1.,0.,0.));
#1042=DIRECTION('center_axis',(0.,0.,-1.));
#1043=DIRECTION('ref_axis',(0.,1.,0.));
#1044=DIRECTION('',(1.43983495271709E-15,2.11169905231751E-16,1.));
#1045=DIRECTION('',(1.,1.61676227961039E-15,-2.27595720048157E-15));
#1046=CARTESIAN_POINT('',(0.,0.,0.));
#1047=CARTESIAN_POINT('',(0.,0.,0.));
#1048=CARTESIAN_POINT('Origin',(-22.37,29.1289034740744,-31.5854309456066));
#1049=CARTESIAN_POINT('',(-22.37,29.1289034740744,-29.9854309456066));
#1050=CARTESIAN_POINT('Origin',(-22.37,29.1289034740744,-31.5854309456066));
#1051=CARTESIAN_POINT('',(-28.27,29.1289034740744,-29.9854309456066));
#1052=CARTESIAN_POINT('',(-22.37,29.1289034740744,-29.9854309456066));
#1053=CARTESIAN_POINT('Origin',(-28.27,29.1289034740744,-31.5854309456066));
#1054=CARTESIAN_POINT('Origin',(-22.37,29.1289034740744,-31.5854309456066));
#1055=CARTESIAN_POINT('',(-31.09,29.1289034740744,-29.9854309456066));
#1056=CARTESIAN_POINT('Origin',(-31.09,29.1289034740744,-31.5854309456066));
#1057=CARTESIAN_POINT('',(-36.99,29.1289034740744,-29.9854309456066));
#1058=CARTESIAN_POINT('',(-22.37,29.1289034740744,-29.9854309456066));
#1059=CARTESIAN_POINT('Origin',(-36.99,29.1289034740744,-31.5854309456066));
#1060=CARTESIAN_POINT('Origin',(-31.09,39.6951438701156,-30.6610046948632));
#1061=CARTESIAN_POINT('',(-31.09,33.9498105467233,-25.8400976222142));
#1062=CARTESIAN_POINT('',(-31.09,24.3079964014252,-37.3307642689988));
#1063=CARTESIAN_POINT('Origin',(-31.09,29.1289034740743,-31.5854309456065));
#1064=CARTESIAN_POINT('',(-31.09,21.0479967523358,-15.0141904258257));
#1065=CARTESIAN_POINT('',(-31.09,39.6951438701156,-30.6610046948632));
#1066=CARTESIAN_POINT('',(-31.09,21.0479967523358,-21.4365042074831));
#1067=CARTESIAN_POINT('',(-31.09,21.0479967523358,-28.0814186620644));
#1068=CARTESIAN_POINT('',(-31.09,16.0479967523358,-26.4365042074831));
#1069=CARTESIAN_POINT('Origin',(-31.09,16.0479967523358,-21.4365042074831));
#1070=CARTESIAN_POINT('',(-31.09,12.2183921253459,-26.4365042074831));
#1071=CARTESIAN_POINT('',(-31.09,0.00832946309316185,-26.4365042074831));
#1072=CARTESIAN_POINT('',(-31.09,11.8491495018019,-26.8765504306307));
#1073=CARTESIAN_POINT('',(-31.09,17.8752833426132,-19.6948837763903));
#1074=CARTESIAN_POINT('',(-31.09,20.9512396133097,-34.5141108861393));
#1075=CARTESIAN_POINT('Origin',(-29.68,29.1289034740743,-31.5854309456065));
#1076=CARTESIAN_POINT('',(-36.99,24.3079964014252,-37.3307642689988));
#1077=CARTESIAN_POINT('',(-29.68,24.3079964014252,-37.3307642689988));
#1078=CARTESIAN_POINT('',(-36.99,33.9498105467233,-25.8400976222142));
#1079=CARTESIAN_POINT('Origin',(-36.99,29.1289034740743,-31.5854309456065));
#1080=CARTESIAN_POINT('',(-29.68,33.9498105467233,-25.8400976222142));
#1081=CARTESIAN_POINT('Origin',(-29.68,39.6951438701156,-30.6610046948632));
#1082=CARTESIAN_POINT('',(-36.99,21.0479967523358,-15.0141904258257));
#1083=CARTESIAN_POINT('',(-36.99,39.6951438701156,-30.6610046948632));
#1084=CARTESIAN_POINT('',(-29.68,21.0479967523358,-15.0141904258257));
#1085=CARTESIAN_POINT('Origin',(-28.27,30.0533297248175,-42.1516713416478));
#1086=CARTESIAN_POINT('',(-28.27,24.3079964014252,-37.3307642689988));
#1087=CARTESIAN_POINT('',(-28.27,33.9498105467233,-25.8400976222142));
#1088=CARTESIAN_POINT('Origin',(-28.27,29.1289034740743,-31.5854309456065));
#1089=CARTESIAN_POINT('',(-28.27,11.8491495018019,-26.8765504306307));
#1090=CARTESIAN_POINT('',(-28.27,20.9512396133097,-34.5141108861393));
#1091=CARTESIAN_POINT('',(-28.27,12.2183921253459,-26.4365042074831));
#1092=CARTESIAN_POINT('',(-28.27,17.8752833426132,-19.6948837763903));
#1093=CARTESIAN_POINT('',(-28.27,16.0479967523358,-26.4365042074831));
#1094=CARTESIAN_POINT('',(-28.27,0.00832946309316185,-26.4365042074831));
#1095=CARTESIAN_POINT('',(-28.27,21.0479967523358,-21.4365042074831));
#1096=CARTESIAN_POINT('Origin',(-28.27,16.0479967523358,-21.4365042074831));
#1097=CARTESIAN_POINT('',(-28.27,21.0479967523358,-15.0141904258257));
#1098=CARTESIAN_POINT('',(-28.27,21.0479967523358,-28.0814186620644));
#1099=CARTESIAN_POINT('',(-28.27,39.6951438701156,-30.6610046948632));
#1100=CARTESIAN_POINT('Origin',(-29.68,29.1289034740743,-31.5854309456065));
#1101=CARTESIAN_POINT('',(-22.37,33.9498105467233,-25.8400976222142));
#1102=CARTESIAN_POINT('',(-22.37,24.3079964014252,-37.3307642689988));
#1103=CARTESIAN_POINT('Origin',(-22.37,29.1289034740743,-31.5854309456065));
#1104=CARTESIAN_POINT('',(-29.68,24.3079964014252,-37.3307642689988));
#1105=CARTESIAN_POINT('',(-29.68,33.9498105467233,-25.8400976222142));
#1106=CARTESIAN_POINT('Origin',(-29.68,11.8491495018019,-26.8765504306307));
#1107=CARTESIAN_POINT('',(-22.37,11.8491495018019,-26.8765504306307));
#1108=CARTESIAN_POINT('',(-22.37,20.9512396133097,-34.5141108861393));
#1109=CARTESIAN_POINT('',(-29.68,11.8491495018019,-26.8765504306307));
#1110=CARTESIAN_POINT('Origin',(-29.68,19.8839946228836,-17.3009948916435));
#1111=CARTESIAN_POINT('',(-36.99,12.2183921253459,-26.4365042074831));
#1112=CARTESIAN_POINT('',(-36.99,11.8491495018019,-26.8765504306307));
#1113=CARTESIAN_POINT('',(-36.99,17.8752833426132,-19.6948837763903));
#1114=CARTESIAN_POINT('',(-29.68,11.8491495018019,-26.8765504306307));
#1115=CARTESIAN_POINT('',(-29.68,12.2183921253459,-26.4365042074831));
#1116=CARTESIAN_POINT('Origin',(-29.68,11.8491495018019,-26.8765504306307));
#1117=CARTESIAN_POINT('',(-36.99,20.9512396133097,-34.5141108861393));
#1118=CARTESIAN_POINT('Origin',(-31.09,16.0479967523358,-21.4365042074831));
#1119=CARTESIAN_POINT('',(-31.09,21.0479967523358,-21.4365042074831));
#1120=CARTESIAN_POINT('',(-31.09,16.0479967523358,-26.4365042074831));
#1121=CARTESIAN_POINT('Origin',(-29.68,19.8839946228836,-17.3009948916435));
#1122=CARTESIAN_POINT('',(-22.37,12.2183921253459,-26.4365042074831));
#1123=CARTESIAN_POINT('',(-22.37,17.8752833426132,-19.6948837763903));
#1124=CARTESIAN_POINT('',(-29.68,12.2183921253459,-26.4365042074831));
#1125=CARTESIAN_POINT('Origin',(-29.68,39.6951438701156,-30.6610046948632));
#1126=CARTESIAN_POINT('',(-22.37,21.0479967523358,-15.0141904258257));
#1127=CARTESIAN_POINT('',(-29.68,21.0479967523358,-15.0141904258257));
#1128=CARTESIAN_POINT('',(-22.37,39.6951438701156,-30.6610046948632));
#1129=CARTESIAN_POINT('Origin',(-44.68,9.54799675233579,-8.43650420748311));
#1130=CARTESIAN_POINT('',(-44.68,21.0479967523358,1.56349579251689));
#1131=CARTESIAN_POINT('',(-54.68,21.0479967523358,-8.43650420748311));
#1132=CARTESIAN_POINT('Origin',(-44.68,21.0479967523358,-8.43650420748311));
#1133=CARTESIAN_POINT('',(-54.68,16.0479967523358,-8.43650420748311));
#1134=CARTESIAN_POINT('',(-54.68,9.54799675233579,-8.43650420748311));
#1135=CARTESIAN_POINT('',(-44.68,16.0479967523358,1.56349579251689));
#1136=CARTESIAN_POINT('Origin',(-44.68,16.0479967523358,-8.43650420748311));
#1137=CARTESIAN_POINT('',(-44.68,9.54799675233579,1.56349579251689));
#1138=CARTESIAN_POINT('Origin',(-54.68,-1.95200324766422,-12.4365042074831));
#1139=CARTESIAN_POINT('',(-54.68,21.0479967523358,-21.4365042074831));
#1140=CARTESIAN_POINT('',(-54.68,21.0479967523358,-3.43650420748311));
#1141=CARTESIAN_POINT('',(-54.68,16.0479967523358,-26.4365042074831));
#1142=CARTESIAN_POINT('Origin',(-54.68,16.0479967523358,-21.4365042074831));
#1143=CARTESIAN_POINT('',(-54.68,-19.9520032476642,-26.4365042074831));
#1144=CARTESIAN_POINT('',(-54.68,16.0479967523358,-26.4365042074831));
#1145=CARTESIAN_POINT('',(-54.68,-24.9520032476642,-21.4365042074831));
#1146=CARTESIAN_POINT('Origin',(-54.68,-19.9520032476642,-21.4365042074831));
#1147=CARTESIAN_POINT('',(-54.68,-24.9520032476642,-3.43650420748311));
#1148=CARTESIAN_POINT('',(-54.68,-24.9520032476642,1.56349579251689));
#1149=CARTESIAN_POINT('',(-54.68,-19.9520032476642,1.56349579251689));
#1150=CARTESIAN_POINT('Origin',(-54.68,-19.9520032476642,-3.43650420748311));
#1151=CARTESIAN_POINT('',(-54.68,-6.64139842377534,1.56349579251689));
#1152=CARTESIAN_POINT('',(-54.68,21.0479967523358,1.56349579251689));
#1153=CARTESIAN_POINT('',(-54.68,-6.64139842377534,-3.43650420748311));
#1154=CARTESIAN_POINT('',(-54.68,-6.64139842377534,-7.93650420748311));
#1155=CARTESIAN_POINT('',(-54.68,-19.9520032476642,-3.43650420748311));
#1156=CARTESIAN_POINT('',(-54.68,-24.9520032476642,-3.43650420748311));
#1157=CARTESIAN_POINT('',(-54.68,-19.9520032476642,-21.4365042074831));
#1158=CARTESIAN_POINT('',(-54.68,-19.9520032476642,1.56349579251689));
#1159=CARTESIAN_POINT('',(-54.68,16.0479967523358,-21.4365042074831));
#1160=CARTESIAN_POINT('',(-54.68,-24.9520032476642,-21.4365042074831));
#1161=CARTESIAN_POINT('',(-54.68,16.0479967523358,1.56349579251689));
#1162=CARTESIAN_POINT('Origin',(-29.68,21.0479967523358,-26.4365042074831));
#1163=CARTESIAN_POINT('',(-14.68,21.0479967523358,1.56349579251689));
#1164=CARTESIAN_POINT('',(-29.68,21.0479967523358,1.56349579251689));
#1165=CARTESIAN_POINT('',(-4.68000000000002,21.0479967523358,-8.43650420748311));
#1166=CARTESIAN_POINT('Origin',(-14.68,21.0479967523358,-8.43650420748311));
#1167=CARTESIAN_POINT('',(-4.68000000000002,21.0479967523358,-21.4365042074831));
#1168=CARTESIAN_POINT('',(-4.68000000000002,21.0479967523358,-3.43650420748311));
#1169=CARTESIAN_POINT('',(-22.37,21.0479967523358,-21.4365042074831));
#1170=CARTESIAN_POINT('',(-19.16,21.0479967523358,-21.4365042074831));
#1171=CARTESIAN_POINT('',(-22.37,21.0479967523358,-28.0814186620644));
#1172=CARTESIAN_POINT('',(-36.99,21.0479967523358,-21.4365042074831));
#1173=CARTESIAN_POINT('',(-36.99,21.0479967523358,-28.0814186620644));
#1174=CARTESIAN_POINT('',(-29.68,21.0479967523358,-21.4365042074831));
#1175=CARTESIAN_POINT('Origin',(-14.68,9.54799675233579,-8.43650420748311));
#1176=CARTESIAN_POINT('',(-14.68,16.0479967523358,1.56349579251689));
#1177=CARTESIAN_POINT('',(-14.68,9.54799675233579,1.56349579251689));
#1178=CARTESIAN_POINT('',(-4.68000000000002,16.0479967523358,-8.43650420748311));
#1179=CARTESIAN_POINT('Origin',(-14.68,16.0479967523358,-8.43650420748311));
#1180=CARTESIAN_POINT('',(-4.68000000000002,9.54799675233579,-8.43650420748311));
#1181=CARTESIAN_POINT('Origin',(-4.68000000000002,-1.95200324766422,-12.4365042074831));
#1182=CARTESIAN_POINT('',(-4.68000000000002,16.0479967523358,-21.4365042074831));
#1183=CARTESIAN_POINT('',(-4.68000000000002,16.0479967523358,1.56349579251689));
#1184=CARTESIAN_POINT('',(-4.68000000000002,-19.9520032476642,-21.4365042074831));
#1185=CARTESIAN_POINT('',(-4.68000000000002,-24.9520032476642,-21.4365042074831));
#1186=CARTESIAN_POINT('',(-4.68000000000002,-19.9520032476642,-3.43650420748311));
#1187=CARTESIAN_POINT('',(-4.68000000000002,-19.9520032476642,1.56349579251689));
#1188=CARTESIAN_POINT('',(-4.68000000000002,-6.64139842377534,-3.43650420748311));
#1189=CARTESIAN_POINT('',(-4.68000000000002,-24.9520032476642,-3.43650420748311));
#1190=CARTESIAN_POINT('',(-4.68000000000002,-6.64139842377534,1.56349579251689));
#1191=CARTESIAN_POINT('',(-4.68000000000002,-6.64139842377534,-7.93650420748311));
#1192=CARTESIAN_POINT('',(-4.68000000000002,-19.9520032476642,1.56349579251689));
#1193=CARTESIAN_POINT('',(-4.68000000000002,21.0479967523358,1.56349579251689));
#1194=CARTESIAN_POINT('',(-4.68000000000002,-24.9520032476642,-3.43650420748311));
#1195=CARTESIAN_POINT('Origin',(-4.68000000000002,-19.9520032476642,-3.43650420748311));
#1196=CARTESIAN_POINT('',(-4.68000000000002,-24.9520032476642,-21.4365042074831));
#1197=CARTESIAN_POINT('',(-4.68000000000002,-24.9520032476642,1.56349579251689));
#1198=CARTESIAN_POINT('',(-4.68000000000002,-19.9520032476642,-26.4365042074831));
#1199=CARTESIAN_POINT('Origin',(-4.68000000000002,-19.9520032476642,-21.4365042074831));
#1200=CARTESIAN_POINT('',(-4.68000000000002,16.0479967523358,-26.4365042074831));
#1201=CARTESIAN_POINT('',(-4.68000000000002,16.0479967523358,-26.4365042074831));
#1202=CARTESIAN_POINT('Origin',(-4.68000000000002,16.0479967523358,-21.4365042074831));
#1203=CARTESIAN_POINT('Origin',(-14.68,-6.64139842377534,-7.93650420748311));
#1204=CARTESIAN_POINT('',(-14.68,3.35860157622466,1.56349579251689));
#1205=CARTESIAN_POINT('Origin',(-14.68,-6.64139842377534,1.56349579251689));
#1206=CARTESIAN_POINT('',(-14.68,3.35860157622466,-3.43650420748311));
#1207=CARTESIAN_POINT('Origin',(-14.68,-6.64139842377534,-3.43650420748311));
#1208=CARTESIAN_POINT('',(-14.68,3.35860157622466,-7.93650420748311));
#1209=CARTESIAN_POINT('Origin',(-29.68,3.35860157622466,1.56349579251689));
#1210=CARTESIAN_POINT('',(-44.68,3.35860157622466,1.56349579251689));
#1211=CARTESIAN_POINT('',(-29.68,3.35860157622466,1.56349579251689));
#1212=CARTESIAN_POINT('Origin',(-44.68,-6.64139842377534,1.56349579251689));
#1213=CARTESIAN_POINT('',(-29.68,-19.9520032476642,1.56349579251689));
#1214=CARTESIAN_POINT('',(-31.68,-1.95200324766422,1.56349579251689));
#1215=CARTESIAN_POINT('Origin',(-29.68,-1.95200324766422,1.56349579251689));
#1216=CARTESIAN_POINT('Origin',(-44.68,-6.64139842377534,-7.93650420748311));
#1217=CARTESIAN_POINT('',(-44.68,3.35860157622466,-3.43650420748311));
#1218=CARTESIAN_POINT('',(-44.68,3.35860157622466,-7.93650420748311));
#1219=CARTESIAN_POINT('Origin',(-44.68,-6.64139842377534,-3.43650420748311));
#1220=CARTESIAN_POINT('Origin',(-36.99,30.0533297248175,-42.1516713416478));
#1221=CARTESIAN_POINT('',(-36.99,16.0479967523358,-26.4365042074831));
#1222=CARTESIAN_POINT('',(-36.99,0.00832946309316185,-26.4365042074831));
#1223=CARTESIAN_POINT('Origin',(-36.99,16.0479967523358,-21.4365042074831));
#1224=CARTESIAN_POINT('Origin',(-22.37,39.6951438701156,-30.6610046948632));
#1225=CARTESIAN_POINT('',(-22.37,16.0479967523358,-26.4365042074831));
#1226=CARTESIAN_POINT('Origin',(-22.37,16.0479967523358,-21.4365042074831));
#1227=CARTESIAN_POINT('',(-22.37,0.00832946309316185,-26.4365042074831));
#1228=CARTESIAN_POINT('Origin',(-29.68,16.0479967523358,-21.4365042074831));
#1229=CARTESIAN_POINT('',(-40.2,16.0479967523358,-26.4365042074831));
#1230=CARTESIAN_POINT('Origin',(-29.68,-24.9520032476642,-26.4365042074831));
#1231=CARTESIAN_POINT('',(-29.68,16.0479967523358,-26.4365042074831));
#1232=CARTESIAN_POINT('',(-29.68,-19.9520032476642,-26.4365042074831));
#1233=CARTESIAN_POINT('',(-17.18,-1.95200324766422,-26.4365042074831));
#1234=CARTESIAN_POINT('Origin',(-29.68,-1.95200324766422,-26.4365042074831));
#1235=CARTESIAN_POINT('Origin',(-29.68,16.0479967523358,-21.4365042074831));
#1236=CARTESIAN_POINT('Origin',(-29.68,-19.9520032476642,-3.43650420748311));
#1237=CARTESIAN_POINT('',(-29.68,-24.9520032476642,-3.43650420748311));
#1238=CARTESIAN_POINT('Origin',(-29.68,-24.9520032476642,1.56349579251689));
#1239=CARTESIAN_POINT('',(-29.68,-24.9520032476642,-21.4365042074831));
#1240=CARTESIAN_POINT('Origin',(-29.68,-19.9520032476642,-21.4365042074831));
#1241=CARTESIAN_POINT('Origin',(-29.68,-1.95200324766422,1.56349579251689));
#1242=CARTESIAN_POINT('',(-31.68,-1.95200324766422,-3.43650420748311));
#1243=CARTESIAN_POINT('',(-31.68,-1.95200324766422,1.56349579251689));
#1244=CARTESIAN_POINT('Origin',(-29.68,-1.95200324766422,-3.43650420748311));
#1245=CARTESIAN_POINT('Origin',(-29.68,-1.95200324766422,-26.4365042074831));
#1246=CARTESIAN_POINT('',(-17.18,-1.95200324766422,-21.4365042074831));
#1247=CARTESIAN_POINT('',(-17.18,-1.95200324766421,-26.4365042074831));
#1248=CARTESIAN_POINT('Origin',(-29.68,-1.95200324766422,-21.4365042074831));
#1249=CARTESIAN_POINT('Origin',(-29.68,-19.9520032476642,-21.4365042074831));
#1250=CARTESIAN_POINT('',(-29.68,-19.9520032476642,-3.43650420748311));
#1251=CARTESIAN_POINT('',(-29.68,-19.9520032476642,-21.4365042074831));
#1252=CARTESIAN_POINT('Origin',(-29.68,16.0479967523358,-21.4365042074831));
#1253=CARTESIAN_POINT('',(-29.68,16.0479967523358,-21.4365042074831));
#1254=CARTESIAN_POINT('Origin',(-29.68,16.0479967523358,1.56349579251689));
#1255=CARTESIAN_POINT('',(-29.68,16.0479967523358,1.56349579251689));
#1256=CARTESIAN_POINT('Origin',(-29.68,21.0479967523358,1.56349579251689));
#1257=CARTESIAN_POINT('Origin',(-29.68,3.35860157622466,-3.43650420748311));
#1258=CARTESIAN_POINT('',(-29.68,3.35860157622466,-3.43650420748311));
#1259=CARTESIAN_POINT('Origin',(-29.68,-19.9520032476642,-3.43650420748311));
#1260=CARTESIAN_POINT('',(-1.62687407992972,5.02594342152565,-14.60644575819));
#1261=UNCERTAINTY_MEASURE_WITH_UNIT(LENGTH_MEASURE(0.01),#1267,
'DISTANCE_ACCURACY_VALUE',
'Maximum model space distance between geometric entities at asserted c
onnectivities');
#1262=UNCERTAINTY_MEASURE_WITH_UNIT(LENGTH_MEASURE(0.01),#1267,
'DISTANCE_ACCURACY_VALUE',
'Maximum model space distance between geometric entities at asserted c
onnectivities');
#1263=UNCERTAINTY_MEASURE_WITH_UNIT(LENGTH_MEASURE(0.01),#1267,
'DISTANCE_ACCURACY_VALUE',
'Maximum model space distance between geometric entities at asserted c
onnectivities');
#1264=(
GEOMETRIC_REPRESENTATION_CONTEXT(3)
GLOBAL_UNCERTAINTY_ASSIGNED_CONTEXT((#1261))
GLOBAL_UNIT_ASSIGNED_CONTEXT((#1267,#1269,#1270))
REPRESENTATION_CONTEXT('','3D')
);
#1265=(
GEOMETRIC_REPRESENTATION_CONTEXT(3)
GLOBAL_UNCERTAINTY_ASSIGNED_CONTEXT((#1262))
GLOBAL_UNIT_ASSIGNED_CONTEXT((#1267,#1269,#1270))
REPRESENTATION_CONTEXT('','3D')
);
#1266=(
GEOMETRIC_REPRESENTATION_CONTEXT(3)
GLOBAL_UNCERTAINTY_ASSIGNED_CONTEXT((#1263))
GLOBAL_UNIT_ASSIGNED_CONTEXT((#1267,#1269,#1270))
REPRESENTATION_CONTEXT('','3D')
);
#1267=(
LENGTH_UNIT()
NAMED_UNIT(*)
SI_UNIT(.MILLI.,.METRE.)
);
#1268=(
LENGTH_UNIT()
NAMED_UNIT(*)
SI_UNIT($,.METRE.)
);
#1269=(
NAMED_UNIT(*)
PLANE_ANGLE_UNIT()
SI_UNIT($,.RADIAN.)
);
#1270=(
NAMED_UNIT(*)
SI_UNIT($,.STERADIAN.)
SOLID_ANGLE_UNIT()
);
#1271=SHAPE_DEFINITION_REPRESENTATION(#1273,#1276);
#1272=SHAPE_DEFINITION_REPRESENTATION(#1274,#1277);
#1273=PRODUCT_DEFINITION_SHAPE('',$,#1279);
#1274=PRODUCT_DEFINITION_SHAPE('',$,#1280);
#1275=PRODUCT_DEFINITION_SHAPE($,$,#14);
#1276=SHAPE_REPRESENTATION('',(#761,#830),#1264);
#1277=SHAPE_REPRESENTATION('',(#762),#1265);
#1278=PRODUCT_DEFINITION_CONTEXT('part definition',#1286,'design');
#1279=PRODUCT_DEFINITION('2026-08-05-09-11-18-260',
'Webcam_Mount_Wrist_custom v3',#1281,#1278);
#1280=PRODUCT_DEFINITION('2026-08-05-09-11-18-261','Componente2',#1282,
#1278);
#1281=PRODUCT_DEFINITION_FORMATION('',$,#1288);
#1282=PRODUCT_DEFINITION_FORMATION('',$,#1289);
#1283=PRODUCT_RELATED_PRODUCT_CATEGORY('Webcam_Mount_Wrist_custom v3',
'Webcam_Mount_Wrist_custom v3',(#1288));
#1284=PRODUCT_RELATED_PRODUCT_CATEGORY('Componente2','Componente2',(#1289));
#1285=APPLICATION_PROTOCOL_DEFINITION('international standard',
'automotive_design',2009,#1286);
#1286=APPLICATION_CONTEXT(
'Core Data for Automotive Mechanical Design Process');
#1287=PRODUCT_CONTEXT('part definition',#1286,'mechanical');
#1288=PRODUCT('2026-08-05-09-11-18-260','Webcam_Mount_Wrist_custom v3',
$,(#1287));
#1289=PRODUCT('2026-08-05-09-11-18-261','Componente2',$,(#1287));
#1290=PRESENTATION_STYLE_ASSIGNMENT((#1291));
#1291=SURFACE_STYLE_USAGE(.BOTH.,#1292);
#1292=SURFACE_SIDE_STYLE('',(#1293));
#1293=SURFACE_STYLE_FILL_AREA(#1294);
#1294=FILL_AREA_STYLE('A\X\E7o - Acetinado',(#1295));
#1295=FILL_AREA_STYLE_COLOUR('A\X\E7o - Acetinado',#1296);
#1296=COLOUR_RGB('A\X\E7o - Acetinado',0.627450980392157,0.627450980392157,
0.627450980392157);
ENDSEC;
END-ISO-10303-21;
