ISO-10303-21;
HEADER;
/* Generated by software containing ST-Developer
 * from STEP Tools, Inc. (www.steptools.com) 
 */

FILE_DESCRIPTION(
/* description */ (''),
/* implementation_level */ '2;1');

FILE_NAME(
/* name */ 'Tuner.step',
/* time_stamp */ '2026-08-25T10:15:06+02:00',
/* author */ (''),
/* organization */ (''),
/* preprocessor_version */ 'ST-DEVELOPER v20.1',
/* originating_system */ 'Autodesk Translation Framework v15.8.0.0',
/* authorisation */ '');

FILE_SCHEMA (('AUTOMOTIVE_DESIGN { 1 0 10303 214 3 1 1 }'));
ENDSEC;

DATA;
#10=MECHANICAL_DESIGN_GEOMETRIC_PRESENTATION_REPRESENTATION('',(#13),#1307);
#11=SHAPE_REPRESENTATION_RELATIONSHIP('SRR','None',#1314,#12);
#12=ADVANCED_BREP_SHAPE_REPRESENTATION('',(#14),#1306);
#13=STYLED_ITEM('',(#1323),#14);
#14=MANIFOLD_SOLID_BREP('Corpo1',#637);
#15=PLANE('',#677);
#16=PLANE('',#680);
#17=PLANE('',#683);
#18=PLANE('',#686);
#19=PLANE('',#697);
#20=PLANE('',#698);
#21=PLANE('',#701);
#22=PLANE('',#702);
#23=PLANE('',#705);
#24=PLANE('',#706);
#25=PLANE('',#709);
#26=PLANE('',#710);
#27=PLANE('',#713);
#28=PLANE('',#717);
#29=PLANE('',#718);
#30=FACE_BOUND('',#173,.T.);
#31=FACE_BOUND('',#174,.T.);
#32=FACE_BOUND('',#176,.T.);
#33=FACE_BOUND('',#178,.T.);
#34=FACE_BOUND('',#180,.T.);
#35=FACE_BOUND('',#182,.T.);
#36=FACE_BOUND('',#200,.T.);
#37=FACE_BOUND('',#201,.T.);
#38=FACE_BOUND('',#202,.T.);
#39=FACE_BOUND('',#203,.T.);
#40=FACE_BOUND('',#207,.T.);
#41=(
BOUNDED_CURVE()
B_SPLINE_CURVE(2,(#1053,#1054,#1055),.UNSPECIFIED.,.F.,.F.)
B_SPLINE_CURVE_WITH_KNOTS((3,3),(0.,0.505593717937851),.UNSPECIFIED.)
CURVE()
GEOMETRIC_REPRESENTATION_ITEM()
RATIONAL_B_SPLINE_CURVE((1.,3.,1.))
REPRESENTATION_ITEM('')
);
#42=TOROIDAL_SURFACE('',#671,7.,4.);
#43=LINE('',#997,#81);
#44=LINE('',#1000,#82);
#45=LINE('',#1003,#83);
#46=LINE('',#1006,#84);
#47=LINE('',#1009,#85);
#48=LINE('',#1012,#86);
#49=LINE('',#1015,#87);
#50=LINE('',#1018,#88);
#51=LINE('',#1177,#89);
#52=LINE('',#1180,#90);
#53=LINE('',#1185,#91);
#54=LINE('',#1188,#92);
#55=LINE('',#1193,#93);
#56=LINE('',#1196,#94);
#57=LINE('',#1201,#95);
#58=LINE('',#1204,#96);
#59=LINE('',#1210,#97);
#60=LINE('',#1214,#98);
#61=LINE('',#1218,#99);
#62=LINE('',#1222,#100);
#63=LINE('',#1225,#101);
#64=LINE('',#1226,#102);
#65=LINE('',#1229,#103);
#66=LINE('',#1230,#104);
#67=LINE('',#1234,#105);
#68=LINE('',#1236,#106);
#69=LINE('',#1239,#107);
#70=LINE('',#1240,#108);
#71=LINE('',#1244,#109);
#72=LINE('',#1246,#110);
#73=LINE('',#1249,#111);
#74=LINE('',#1250,#112);
#75=LINE('',#1254,#113);
#76=LINE('',#1256,#114);
#77=LINE('',#1259,#115);
#78=LINE('',#1260,#116);
#79=LINE('',#1301,#117);
#80=LINE('',#1303,#118);
#81=VECTOR('',#750,10.);
#82=VECTOR('',#753,10.);
#83=VECTOR('',#756,10.);
#84=VECTOR('',#759,10.);
#85=VECTOR('',#762,10.);
#86=VECTOR('',#765,10.);
#87=VECTOR('',#768,10.);
#88=VECTOR('',#771,10.);
#89=VECTOR('',#786,10.);
#90=VECTOR('',#789,10.);
#91=VECTOR('',#794,10.);
#92=VECTOR('',#797,10.);
#93=VECTOR('',#802,10.);
#94=VECTOR('',#805,10.);
#95=VECTOR('',#810,10.);
#96=VECTOR('',#813,10.);
#97=VECTOR('',#820,1.25);
#98=VECTOR('',#825,1.25);
#99=VECTOR('',#830,1.25);
#100=VECTOR('',#835,1.25);
#101=VECTOR('',#838,10.);
#102=VECTOR('',#839,10.);
#103=VECTOR('',#842,10.);
#104=VECTOR('',#843,10.);
#105=VECTOR('',#848,10.);
#106=VECTOR('',#851,10.);
#107=VECTOR('',#854,10.);
#108=VECTOR('',#855,10.);
#109=VECTOR('',#860,10.);
#110=VECTOR('',#863,10.);
#111=VECTOR('',#866,10.);
#112=VECTOR('',#867,10.);
#113=VECTOR('',#872,10.);
#114=VECTOR('',#875,10.);
#115=VECTOR('',#878,10.);
#116=VECTOR('',#879,10.);
#117=VECTOR('',#900,0.5);
#118=VECTOR('',#903,3.);
#119=CYLINDRICAL_SURFACE('',#663,8.);
#120=CYLINDRICAL_SURFACE('',#665,8.);
#121=CYLINDRICAL_SURFACE('',#667,8.);
#122=CYLINDRICAL_SURFACE('',#669,8.);
#123=CYLINDRICAL_SURFACE('',#689,1.25);
#124=CYLINDRICAL_SURFACE('',#691,1.25);
#125=CYLINDRICAL_SURFACE('',#693,1.25);
#126=CYLINDRICAL_SURFACE('',#695,1.25);
#127=CYLINDRICAL_SURFACE('',#699,1.75);
#128=CYLINDRICAL_SURFACE('',#703,1.75);
#129=CYLINDRICAL_SURFACE('',#707,1.75);
#130=CYLINDRICAL_SURFACE('',#711,1.75);
#131=CYLINDRICAL_SURFACE('',#720,0.5);
#132=CYLINDRICAL_SURFACE('',#721,3.);
#133=FACE_OUTER_BOUND('',#166,.T.);
#134=FACE_OUTER_BOUND('',#167,.T.);
#135=FACE_OUTER_BOUND('',#168,.T.);
#136=FACE_OUTER_BOUND('',#169,.T.);
#137=FACE_OUTER_BOUND('',#170,.T.);
#138=FACE_OUTER_BOUND('',#171,.T.);
#139=FACE_OUTER_BOUND('',#172,.T.);
#140=FACE_OUTER_BOUND('',#175,.T.);
#141=FACE_OUTER_BOUND('',#177,.T.);
#142=FACE_OUTER_BOUND('',#179,.T.);
#143=FACE_OUTER_BOUND('',#181,.T.);
#144=FACE_OUTER_BOUND('',#183,.T.);
#145=FACE_OUTER_BOUND('',#184,.T.);
#146=FACE_OUTER_BOUND('',#185,.T.);
#147=FACE_OUTER_BOUND('',#186,.T.);
#148=FACE_OUTER_BOUND('',#187,.T.);
#149=FACE_OUTER_BOUND('',#188,.T.);
#150=FACE_OUTER_BOUND('',#189,.T.);
#151=FACE_OUTER_BOUND('',#190,.T.);
#152=FACE_OUTER_BOUND('',#191,.T.);
#153=FACE_OUTER_BOUND('',#192,.T.);
#154=FACE_OUTER_BOUND('',#193,.T.);
#155=FACE_OUTER_BOUND('',#194,.T.);
#156=FACE_OUTER_BOUND('',#195,.T.);
#157=FACE_OUTER_BOUND('',#196,.T.);
#158=FACE_OUTER_BOUND('',#197,.T.);
#159=FACE_OUTER_BOUND('',#198,.T.);
#160=FACE_OUTER_BOUND('',#199,.T.);
#161=FACE_OUTER_BOUND('',#204,.T.);
#162=FACE_OUTER_BOUND('',#205,.T.);
#163=FACE_OUTER_BOUND('',#206,.T.);
#164=FACE_OUTER_BOUND('',#208,.T.);
#165=FACE_OUTER_BOUND('',#209,.T.);
#166=EDGE_LOOP('',(#417,#418,#419,#420,#421,#422,#423,#424,#425,#426,#427,
#428,#429,#430,#431,#432,#433,#434,#435,#436,#437));
#167=EDGE_LOOP('',(#438,#439,#440,#441));
#168=EDGE_LOOP('',(#442,#443,#444,#445,#446));
#169=EDGE_LOOP('',(#447,#448,#449,#450));
#170=EDGE_LOOP('',(#451,#452,#453,#454));
#171=EDGE_LOOP('',(#455,#456,#457,#458,#459,#460));
#172=EDGE_LOOP('',(#461,#462,#463,#464,#465,#466));
#173=EDGE_LOOP('',(#467,#468));
#174=EDGE_LOOP('',(#469,#470));
#175=EDGE_LOOP('',(#471,#472,#473,#474));
#176=EDGE_LOOP('',(#475));
#177=EDGE_LOOP('',(#476,#477,#478,#479));
#178=EDGE_LOOP('',(#480));
#179=EDGE_LOOP('',(#481,#482,#483,#484));
#180=EDGE_LOOP('',(#485));
#181=EDGE_LOOP('',(#486,#487,#488,#489));
#182=EDGE_LOOP('',(#490));
#183=EDGE_LOOP('',(#491,#492,#493,#494));
#184=EDGE_LOOP('',(#495,#496,#497,#498));
#185=EDGE_LOOP('',(#499,#500,#501,#502));
#186=EDGE_LOOP('',(#503,#504,#505,#506));
#187=EDGE_LOOP('',(#507,#508,#509,#510,#511));
#188=EDGE_LOOP('',(#512,#513,#514,#515,#516));
#189=EDGE_LOOP('',(#517,#518,#519,#520));
#190=EDGE_LOOP('',(#521,#522,#523,#524,#525));
#191=EDGE_LOOP('',(#526,#527,#528,#529,#530));
#192=EDGE_LOOP('',(#531,#532,#533,#534));
#193=EDGE_LOOP('',(#535,#536,#537,#538,#539));
#194=EDGE_LOOP('',(#540,#541,#542,#543,#544));
#195=EDGE_LOOP('',(#545,#546,#547,#548));
#196=EDGE_LOOP('',(#549,#550,#551,#552,#553));
#197=EDGE_LOOP('',(#554,#555,#556,#557,#558));
#198=EDGE_LOOP('',(#559,#560,#561,#562));
#199=EDGE_LOOP('',(#563,#564,#565,#566,#567,#568,#569,#570,#571,#572,#573,
#574,#575,#576,#577,#578));
#200=EDGE_LOOP('',(#579));
#201=EDGE_LOOP('',(#580));
#202=EDGE_LOOP('',(#581));
#203=EDGE_LOOP('',(#582));
#204=EDGE_LOOP('',(#583,#584,#585,#586));
#205=EDGE_LOOP('',(#587));
#206=EDGE_LOOP('',(#588));
#207=EDGE_LOOP('',(#589));
#208=EDGE_LOOP('',(#590,#591,#592,#593,#594,#595));
#209=EDGE_LOOP('',(#596,#597,#598,#599,#600));
#210=B_SPLINE_CURVE_WITH_KNOTS('',3,(#941,#942,#943,#944),.UNSPECIFIED.,
 .F.,.F.,(4,4),(2.82462341873895,2.86468247710748),.UNSPECIFIED.);
#211=B_SPLINE_CURVE_WITH_KNOTS('',3,(#948,#949,#950,#951),.UNSPECIFIED.,
 .F.,.F.,(4,4),(0.954894152567265,0.994953210932338),.UNSPECIFIED.);
#212=B_SPLINE_CURVE_WITH_KNOTS('',3,(#955,#956,#957,#958),.UNSPECIFIED.,
 .F.,.F.,(4,4),(2.8246234090371,2.86468246740464),.UNSPECIFIED.);
#213=B_SPLINE_CURVE_WITH_KNOTS('',3,(#962,#963,#964,#965),.UNSPECIFIED.,
 .F.,.F.,(4,4),(0.954894155801545,0.994953214167608),.UNSPECIFIED.);
#214=B_SPLINE_CURVE_WITH_KNOTS('',3,(#969,#970,#971,#972),.UNSPECIFIED.,
 .F.,.F.,(4,4),(2.8246234090371,2.86468246740464),.UNSPECIFIED.);
#215=B_SPLINE_CURVE_WITH_KNOTS('',3,(#976,#977,#978,#979),.UNSPECIFIED.,
 .F.,.F.,(4,4),(0.954894155801546,0.994953214167608),.UNSPECIFIED.);
#216=B_SPLINE_CURVE_WITH_KNOTS('',3,(#983,#984,#985,#986),.UNSPECIFIED.,
 .F.,.F.,(4,4),(2.8246234090371,2.86468246740464),.UNSPECIFIED.);
#217=B_SPLINE_CURVE_WITH_KNOTS('',3,(#990,#991,#992,#993),.UNSPECIFIED.,
 .F.,.F.,(4,4),(0.954894155801546,0.994953214167608),.UNSPECIFIED.);
#218=B_SPLINE_CURVE_WITH_KNOTS('',3,(#1061,#1062,#1063,#1064,#1065,#1066,
#1067,#1068,#1069,#1070,#1071,#1072,#1073,#1074,#1075,#1076,#1077,#1078,
#1079,#1080,#1081,#1082,#1083,#1084,#1085,#1086,#1087,#1088,#1089,#1090,
#1091,#1092,#1093,#1094,#1095,#1096,#1097,#1098,#1099,#1100,#1101,#1102,
#1103,#1104,#1105,#1106),.UNSPECIFIED.,.F.,.F.,(4,2,2,2,2,2,2,2,2,2,2,2,
2,2,2,2,2,2,2,2,2,2,4),(0.,0.0160778601765281,0.0334471814753073,0.0516167516586135,
0.0709245688425407,0.0903202186620725,0.108833402941336,0.11923137055342,
0.124360940025646,0.128194512781007,0.132189640785568,0.138080907789594,
0.150001348004813,0.165112995242978,0.181833964422838,0.199568771590019,
0.218219486891626,0.237792743927315,0.256146279933092,0.273887266199913,
0.280613283121843,0.284807021250721,0.286045475276425),.UNSPECIFIED.);
#219=B_SPLINE_CURVE_WITH_KNOTS('',3,(#1107,#1108,#1109,#1110,#1111,#1112,
#1113,#1114,#1115,#1116),.UNSPECIFIED.,.F.,.F.,(4,2,2,2,4),(0.286045475276425,
0.288574125053265,0.293264535599206,0.30206469101379,0.316645950360457),
 .UNSPECIFIED.);
#220=B_SPLINE_CURVE_WITH_KNOTS('',3,(#1119,#1120,#1121,#1122,#1123,#1124,
#1125,#1126,#1127,#1128,#1129,#1130,#1131,#1132,#1133,#1134,#1135,#1136,
#1137,#1138,#1139,#1140,#1141,#1142,#1143,#1144,#1145,#1146,#1147,#1148,
#1149,#1150,#1151,#1152,#1153,#1154,#1155,#1156,#1157,#1158,#1159,#1160,
#1161,#1162),.UNSPECIFIED.,.F.,.F.,(4,2,2,2,2,2,2,2,2,2,2,2,2,2,2,2,2,2,
2,2,2,4),(0.,0.0165451689210592,0.0341812145265003,0.0526671927507214,0.0721748704393308,
0.0909375310564239,0.110182087965828,0.117201985607767,0.121466599891102,
0.125223298062221,0.129806256645487,0.138150253470511,0.154697955968782,
0.170894346262423,0.18833292993025,0.206570089870951,0.225927091752545,
0.245209766315988,0.264057637750068,0.273546160577771,0.27839440972493,
0.281244133121256),.UNSPECIFIED.);
#221=B_SPLINE_CURVE_WITH_KNOTS('',3,(#1163,#1164,#1165,#1166,#1167,#1168,
#1169,#1170,#1171,#1172,#1173,#1174),.UNSPECIFIED.,.F.,.F.,(4,2,2,2,2,4),
(0.281244133121256,0.28218108014238,0.286287956360114,0.292654887146115,
0.300137783012268,0.316633240933061),.UNSPECIFIED.);
#222=CIRCLE('',#651,5.5);
#223=CIRCLE('',#652,5.5);
#224=CIRCLE('',#653,4.);
#225=CIRCLE('',#654,8.);
#226=CIRCLE('',#655,7.9782884283746);
#227=CIRCLE('',#656,8.);
#228=CIRCLE('',#657,7.9782884283746);
#229=CIRCLE('',#658,8.);
#230=CIRCLE('',#659,7.9782884283746);
#231=CIRCLE('',#660,8.);
#232=CIRCLE('',#661,7.9782884283746);
#233=CIRCLE('',#662,8.);
#234=CIRCLE('',#664,8.);
#235=CIRCLE('',#666,8.);
#236=CIRCLE('',#668,8.);
#237=CIRCLE('',#670,8.);
#238=CIRCLE('',#672,3.00000004470349);
#239=CIRCLE('',#673,4.);
#240=CIRCLE('',#674,3.00000004470349);
#241=CIRCLE('',#675,3.00000004470349);
#242=CIRCLE('',#676,3.00000004470349);
#243=CIRCLE('',#678,1.75);
#244=CIRCLE('',#679,1.25);
#245=CIRCLE('',#681,1.75);
#246=CIRCLE('',#682,1.25);
#247=CIRCLE('',#684,1.75);
#248=CIRCLE('',#685,1.25);
#249=CIRCLE('',#687,1.75);
#250=CIRCLE('',#688,1.25);
#251=CIRCLE('',#690,1.25);
#252=CIRCLE('',#692,1.25);
#253=CIRCLE('',#694,1.25);
#254=CIRCLE('',#696,1.25);
#255=CIRCLE('',#700,1.75);
#256=CIRCLE('',#704,1.75);
#257=CIRCLE('',#708,1.75);
#258=CIRCLE('',#712,1.75);
#259=CIRCLE('',#714,1.5);
#260=CIRCLE('',#715,2.);
#261=CIRCLE('',#716,3.5);
#262=CIRCLE('',#719,3.);
#263=VERTEX_POINT('',#932);
#264=VERTEX_POINT('',#933);
#265=VERTEX_POINT('',#936);
#266=VERTEX_POINT('',#938);
#267=VERTEX_POINT('',#940);
#268=VERTEX_POINT('',#945);
#269=VERTEX_POINT('',#947);
#270=VERTEX_POINT('',#952);
#271=VERTEX_POINT('',#954);
#272=VERTEX_POINT('',#959);
#273=VERTEX_POINT('',#961);
#274=VERTEX_POINT('',#966);
#275=VERTEX_POINT('',#968);
#276=VERTEX_POINT('',#973);
#277=VERTEX_POINT('',#975);
#278=VERTEX_POINT('',#980);
#279=VERTEX_POINT('',#982);
#280=VERTEX_POINT('',#987);
#281=VERTEX_POINT('',#989);
#282=VERTEX_POINT('',#996);
#283=VERTEX_POINT('',#998);
#284=VERTEX_POINT('',#1002);
#285=VERTEX_POINT('',#1004);
#286=VERTEX_POINT('',#1008);
#287=VERTEX_POINT('',#1010);
#288=VERTEX_POINT('',#1014);
#289=VERTEX_POINT('',#1016);
#290=VERTEX_POINT('',#1020);
#291=VERTEX_POINT('',#1021);
#292=VERTEX_POINT('',#1052);
#293=VERTEX_POINT('',#1056);
#294=VERTEX_POINT('',#1059);
#295=VERTEX_POINT('',#1060);
#296=VERTEX_POINT('',#1117);
#297=VERTEX_POINT('',#1118);
#298=VERTEX_POINT('',#1176);
#299=VERTEX_POINT('',#1178);
#300=VERTEX_POINT('',#1181);
#301=VERTEX_POINT('',#1184);
#302=VERTEX_POINT('',#1186);
#303=VERTEX_POINT('',#1189);
#304=VERTEX_POINT('',#1192);
#305=VERTEX_POINT('',#1194);
#306=VERTEX_POINT('',#1197);
#307=VERTEX_POINT('',#1200);
#308=VERTEX_POINT('',#1202);
#309=VERTEX_POINT('',#1205);
#310=VERTEX_POINT('',#1208);
#311=VERTEX_POINT('',#1212);
#312=VERTEX_POINT('',#1216);
#313=VERTEX_POINT('',#1220);
#314=VERTEX_POINT('',#1224);
#315=VERTEX_POINT('',#1228);
#316=VERTEX_POINT('',#1232);
#317=VERTEX_POINT('',#1238);
#318=VERTEX_POINT('',#1242);
#319=VERTEX_POINT('',#1248);
#320=VERTEX_POINT('',#1252);
#321=VERTEX_POINT('',#1258);
#322=VERTEX_POINT('',#1291);
#323=VERTEX_POINT('',#1293);
#324=VERTEX_POINT('',#1298);
#325=EDGE_CURVE('',#263,#264,#222,.T.);
#326=EDGE_CURVE('',#264,#263,#223,.T.);
#327=EDGE_CURVE('',#263,#265,#224,.T.);
#328=EDGE_CURVE('',#265,#266,#225,.T.);
#329=EDGE_CURVE('',#267,#266,#210,.T.);
#330=EDGE_CURVE('',#267,#268,#226,.F.);
#331=EDGE_CURVE('',#269,#268,#211,.T.);
#332=EDGE_CURVE('',#269,#270,#227,.T.);
#333=EDGE_CURVE('',#271,#270,#212,.T.);
#334=EDGE_CURVE('',#272,#271,#228,.T.);
#335=EDGE_CURVE('',#273,#272,#213,.T.);
#336=EDGE_CURVE('',#273,#274,#229,.T.);
#337=EDGE_CURVE('',#275,#274,#214,.T.);
#338=EDGE_CURVE('',#276,#275,#230,.T.);
#339=EDGE_CURVE('',#277,#276,#215,.T.);
#340=EDGE_CURVE('',#277,#278,#231,.T.);
#341=EDGE_CURVE('',#279,#278,#216,.T.);
#342=EDGE_CURVE('',#280,#279,#232,.T.);
#343=EDGE_CURVE('',#281,#280,#217,.T.);
#344=EDGE_CURVE('',#281,#265,#233,.T.);
#345=EDGE_CURVE('',#269,#282,#43,.T.);
#346=EDGE_CURVE('',#283,#282,#234,.T.);
#347=EDGE_CURVE('',#270,#283,#44,.T.);
#348=EDGE_CURVE('',#281,#284,#45,.T.);
#349=EDGE_CURVE('',#285,#284,#235,.T.);
#350=EDGE_CURVE('',#266,#285,#46,.T.);
#351=EDGE_CURVE('',#277,#286,#47,.T.);
#352=EDGE_CURVE('',#287,#286,#236,.T.);
#353=EDGE_CURVE('',#278,#287,#48,.T.);
#354=EDGE_CURVE('',#273,#288,#49,.T.);
#355=EDGE_CURVE('',#289,#288,#237,.T.);
#356=EDGE_CURVE('',#274,#289,#50,.T.);
#357=EDGE_CURVE('',#290,#291,#238,.T.);
#358=EDGE_CURVE('',#291,#264,#239,.T.);
#359=EDGE_CURVE('',#291,#290,#240,.T.);
#360=EDGE_CURVE('',#292,#290,#41,.T.);
#361=EDGE_CURVE('',#293,#292,#241,.T.);
#362=EDGE_CURVE('',#292,#293,#242,.T.);
#363=EDGE_CURVE('',#294,#295,#218,.T.);
#364=EDGE_CURVE('',#295,#294,#219,.T.);
#365=EDGE_CURVE('',#296,#297,#220,.T.);
#366=EDGE_CURVE('',#297,#296,#221,.T.);
#367=EDGE_CURVE('',#298,#275,#51,.T.);
#368=EDGE_CURVE('',#298,#299,#243,.T.);
#369=EDGE_CURVE('',#299,#276,#52,.T.);
#370=EDGE_CURVE('',#300,#300,#244,.T.);
#371=EDGE_CURVE('',#301,#271,#53,.T.);
#372=EDGE_CURVE('',#301,#302,#245,.T.);
#373=EDGE_CURVE('',#302,#272,#54,.T.);
#374=EDGE_CURVE('',#303,#303,#246,.T.);
#375=EDGE_CURVE('',#304,#267,#55,.T.);
#376=EDGE_CURVE('',#304,#305,#247,.T.);
#377=EDGE_CURVE('',#305,#268,#56,.T.);
#378=EDGE_CURVE('',#306,#306,#248,.T.);
#379=EDGE_CURVE('',#307,#279,#57,.T.);
#380=EDGE_CURVE('',#307,#308,#249,.T.);
#381=EDGE_CURVE('',#308,#280,#58,.T.);
#382=EDGE_CURVE('',#309,#309,#250,.T.);
#383=EDGE_CURVE('',#310,#310,#251,.T.);
#384=EDGE_CURVE('',#310,#309,#59,.T.);
#385=EDGE_CURVE('',#311,#311,#252,.T.);
#386=EDGE_CURVE('',#311,#303,#60,.T.);
#387=EDGE_CURVE('',#312,#312,#253,.T.);
#388=EDGE_CURVE('',#312,#306,#61,.T.);
#389=EDGE_CURVE('',#313,#313,#254,.T.);
#390=EDGE_CURVE('',#313,#300,#62,.T.);
#391=EDGE_CURVE('',#299,#314,#63,.T.);
#392=EDGE_CURVE('',#286,#314,#64,.T.);
#393=EDGE_CURVE('',#315,#287,#65,.T.);
#394=EDGE_CURVE('',#307,#315,#66,.T.);
#395=EDGE_CURVE('',#316,#315,#255,.T.);
#396=EDGE_CURVE('',#308,#316,#67,.T.);
#397=EDGE_CURVE('',#284,#316,#68,.T.);
#398=EDGE_CURVE('',#317,#285,#69,.T.);
#399=EDGE_CURVE('',#304,#317,#70,.T.);
#400=EDGE_CURVE('',#318,#317,#256,.T.);
#401=EDGE_CURVE('',#305,#318,#71,.T.);
#402=EDGE_CURVE('',#282,#318,#72,.T.);
#403=EDGE_CURVE('',#319,#283,#73,.T.);
#404=EDGE_CURVE('',#301,#319,#74,.T.);
#405=EDGE_CURVE('',#320,#319,#257,.T.);
#406=EDGE_CURVE('',#302,#320,#75,.T.);
#407=EDGE_CURVE('',#288,#320,#76,.T.);
#408=EDGE_CURVE('',#321,#289,#77,.T.);
#409=EDGE_CURVE('',#298,#321,#78,.T.);
#410=EDGE_CURVE('',#314,#321,#258,.T.);
#411=EDGE_CURVE('',#322,#322,#259,.T.);
#412=EDGE_CURVE('',#322,#323,#260,.T.);
#413=EDGE_CURVE('',#323,#323,#261,.T.);
#414=EDGE_CURVE('',#324,#324,#262,.T.);
#415=EDGE_CURVE('',#295,#297,#79,.T.);
#416=EDGE_CURVE('',#324,#293,#80,.T.);
#417=ORIENTED_EDGE('',*,*,#325,.T.);
#418=ORIENTED_EDGE('',*,*,#326,.T.);
#419=ORIENTED_EDGE('',*,*,#327,.T.);
#420=ORIENTED_EDGE('',*,*,#328,.T.);
#421=ORIENTED_EDGE('',*,*,#329,.F.);
#422=ORIENTED_EDGE('',*,*,#330,.T.);
#423=ORIENTED_EDGE('',*,*,#331,.F.);
#424=ORIENTED_EDGE('',*,*,#332,.T.);
#425=ORIENTED_EDGE('',*,*,#333,.F.);
#426=ORIENTED_EDGE('',*,*,#334,.F.);
#427=ORIENTED_EDGE('',*,*,#335,.F.);
#428=ORIENTED_EDGE('',*,*,#336,.T.);
#429=ORIENTED_EDGE('',*,*,#337,.F.);
#430=ORIENTED_EDGE('',*,*,#338,.F.);
#431=ORIENTED_EDGE('',*,*,#339,.F.);
#432=ORIENTED_EDGE('',*,*,#340,.T.);
#433=ORIENTED_EDGE('',*,*,#341,.F.);
#434=ORIENTED_EDGE('',*,*,#342,.F.);
#435=ORIENTED_EDGE('',*,*,#343,.F.);
#436=ORIENTED_EDGE('',*,*,#344,.T.);
#437=ORIENTED_EDGE('',*,*,#327,.F.);
#438=ORIENTED_EDGE('',*,*,#332,.F.);
#439=ORIENTED_EDGE('',*,*,#345,.T.);
#440=ORIENTED_EDGE('',*,*,#346,.F.);
#441=ORIENTED_EDGE('',*,*,#347,.F.);
#442=ORIENTED_EDGE('',*,*,#344,.F.);
#443=ORIENTED_EDGE('',*,*,#348,.T.);
#444=ORIENTED_EDGE('',*,*,#349,.F.);
#445=ORIENTED_EDGE('',*,*,#350,.F.);
#446=ORIENTED_EDGE('',*,*,#328,.F.);
#447=ORIENTED_EDGE('',*,*,#340,.F.);
#448=ORIENTED_EDGE('',*,*,#351,.T.);
#449=ORIENTED_EDGE('',*,*,#352,.F.);
#450=ORIENTED_EDGE('',*,*,#353,.F.);
#451=ORIENTED_EDGE('',*,*,#336,.F.);
#452=ORIENTED_EDGE('',*,*,#354,.T.);
#453=ORIENTED_EDGE('',*,*,#355,.F.);
#454=ORIENTED_EDGE('',*,*,#356,.F.);
#455=ORIENTED_EDGE('',*,*,#357,.T.);
#456=ORIENTED_EDGE('',*,*,#358,.T.);
#457=ORIENTED_EDGE('',*,*,#325,.F.);
#458=ORIENTED_EDGE('',*,*,#326,.F.);
#459=ORIENTED_EDGE('',*,*,#358,.F.);
#460=ORIENTED_EDGE('',*,*,#359,.T.);
#461=ORIENTED_EDGE('',*,*,#360,.F.);
#462=ORIENTED_EDGE('',*,*,#361,.F.);
#463=ORIENTED_EDGE('',*,*,#362,.F.);
#464=ORIENTED_EDGE('',*,*,#360,.T.);
#465=ORIENTED_EDGE('',*,*,#359,.F.);
#466=ORIENTED_EDGE('',*,*,#357,.F.);
#467=ORIENTED_EDGE('',*,*,#363,.F.);
#468=ORIENTED_EDGE('',*,*,#364,.F.);
#469=ORIENTED_EDGE('',*,*,#365,.F.);
#470=ORIENTED_EDGE('',*,*,#366,.F.);
#471=ORIENTED_EDGE('',*,*,#367,.F.);
#472=ORIENTED_EDGE('',*,*,#368,.T.);
#473=ORIENTED_EDGE('',*,*,#369,.T.);
#474=ORIENTED_EDGE('',*,*,#338,.T.);
#475=ORIENTED_EDGE('',*,*,#370,.T.);
#476=ORIENTED_EDGE('',*,*,#371,.F.);
#477=ORIENTED_EDGE('',*,*,#372,.T.);
#478=ORIENTED_EDGE('',*,*,#373,.T.);
#479=ORIENTED_EDGE('',*,*,#334,.T.);
#480=ORIENTED_EDGE('',*,*,#374,.T.);
#481=ORIENTED_EDGE('',*,*,#375,.F.);
#482=ORIENTED_EDGE('',*,*,#376,.T.);
#483=ORIENTED_EDGE('',*,*,#377,.T.);
#484=ORIENTED_EDGE('',*,*,#330,.F.);
#485=ORIENTED_EDGE('',*,*,#378,.T.);
#486=ORIENTED_EDGE('',*,*,#379,.F.);
#487=ORIENTED_EDGE('',*,*,#380,.T.);
#488=ORIENTED_EDGE('',*,*,#381,.T.);
#489=ORIENTED_EDGE('',*,*,#342,.T.);
#490=ORIENTED_EDGE('',*,*,#382,.T.);
#491=ORIENTED_EDGE('',*,*,#383,.F.);
#492=ORIENTED_EDGE('',*,*,#384,.T.);
#493=ORIENTED_EDGE('',*,*,#382,.F.);
#494=ORIENTED_EDGE('',*,*,#384,.F.);
#495=ORIENTED_EDGE('',*,*,#385,.F.);
#496=ORIENTED_EDGE('',*,*,#386,.T.);
#497=ORIENTED_EDGE('',*,*,#374,.F.);
#498=ORIENTED_EDGE('',*,*,#386,.F.);
#499=ORIENTED_EDGE('',*,*,#387,.F.);
#500=ORIENTED_EDGE('',*,*,#388,.T.);
#501=ORIENTED_EDGE('',*,*,#378,.F.);
#502=ORIENTED_EDGE('',*,*,#388,.F.);
#503=ORIENTED_EDGE('',*,*,#389,.F.);
#504=ORIENTED_EDGE('',*,*,#390,.T.);
#505=ORIENTED_EDGE('',*,*,#370,.F.);
#506=ORIENTED_EDGE('',*,*,#390,.F.);
#507=ORIENTED_EDGE('',*,*,#369,.F.);
#508=ORIENTED_EDGE('',*,*,#391,.T.);
#509=ORIENTED_EDGE('',*,*,#392,.F.);
#510=ORIENTED_EDGE('',*,*,#351,.F.);
#511=ORIENTED_EDGE('',*,*,#339,.T.);
#512=ORIENTED_EDGE('',*,*,#379,.T.);
#513=ORIENTED_EDGE('',*,*,#341,.T.);
#514=ORIENTED_EDGE('',*,*,#353,.T.);
#515=ORIENTED_EDGE('',*,*,#393,.F.);
#516=ORIENTED_EDGE('',*,*,#394,.F.);
#517=ORIENTED_EDGE('',*,*,#380,.F.);
#518=ORIENTED_EDGE('',*,*,#394,.T.);
#519=ORIENTED_EDGE('',*,*,#395,.F.);
#520=ORIENTED_EDGE('',*,*,#396,.F.);
#521=ORIENTED_EDGE('',*,*,#381,.F.);
#522=ORIENTED_EDGE('',*,*,#396,.T.);
#523=ORIENTED_EDGE('',*,*,#397,.F.);
#524=ORIENTED_EDGE('',*,*,#348,.F.);
#525=ORIENTED_EDGE('',*,*,#343,.T.);
#526=ORIENTED_EDGE('',*,*,#375,.T.);
#527=ORIENTED_EDGE('',*,*,#329,.T.);
#528=ORIENTED_EDGE('',*,*,#350,.T.);
#529=ORIENTED_EDGE('',*,*,#398,.F.);
#530=ORIENTED_EDGE('',*,*,#399,.F.);
#531=ORIENTED_EDGE('',*,*,#376,.F.);
#532=ORIENTED_EDGE('',*,*,#399,.T.);
#533=ORIENTED_EDGE('',*,*,#400,.F.);
#534=ORIENTED_EDGE('',*,*,#401,.F.);
#535=ORIENTED_EDGE('',*,*,#377,.F.);
#536=ORIENTED_EDGE('',*,*,#401,.T.);
#537=ORIENTED_EDGE('',*,*,#402,.F.);
#538=ORIENTED_EDGE('',*,*,#345,.F.);
#539=ORIENTED_EDGE('',*,*,#331,.T.);
#540=ORIENTED_EDGE('',*,*,#371,.T.);
#541=ORIENTED_EDGE('',*,*,#333,.T.);
#542=ORIENTED_EDGE('',*,*,#347,.T.);
#543=ORIENTED_EDGE('',*,*,#403,.F.);
#544=ORIENTED_EDGE('',*,*,#404,.F.);
#545=ORIENTED_EDGE('',*,*,#372,.F.);
#546=ORIENTED_EDGE('',*,*,#404,.T.);
#547=ORIENTED_EDGE('',*,*,#405,.F.);
#548=ORIENTED_EDGE('',*,*,#406,.F.);
#549=ORIENTED_EDGE('',*,*,#373,.F.);
#550=ORIENTED_EDGE('',*,*,#406,.T.);
#551=ORIENTED_EDGE('',*,*,#407,.F.);
#552=ORIENTED_EDGE('',*,*,#354,.F.);
#553=ORIENTED_EDGE('',*,*,#335,.T.);
#554=ORIENTED_EDGE('',*,*,#367,.T.);
#555=ORIENTED_EDGE('',*,*,#337,.T.);
#556=ORIENTED_EDGE('',*,*,#356,.T.);
#557=ORIENTED_EDGE('',*,*,#408,.F.);
#558=ORIENTED_EDGE('',*,*,#409,.F.);
#559=ORIENTED_EDGE('',*,*,#368,.F.);
#560=ORIENTED_EDGE('',*,*,#409,.T.);
#561=ORIENTED_EDGE('',*,*,#410,.F.);
#562=ORIENTED_EDGE('',*,*,#391,.F.);
#563=ORIENTED_EDGE('',*,*,#410,.T.);
#564=ORIENTED_EDGE('',*,*,#408,.T.);
#565=ORIENTED_EDGE('',*,*,#355,.T.);
#566=ORIENTED_EDGE('',*,*,#407,.T.);
#567=ORIENTED_EDGE('',*,*,#405,.T.);
#568=ORIENTED_EDGE('',*,*,#403,.T.);
#569=ORIENTED_EDGE('',*,*,#346,.T.);
#570=ORIENTED_EDGE('',*,*,#402,.T.);
#571=ORIENTED_EDGE('',*,*,#400,.T.);
#572=ORIENTED_EDGE('',*,*,#398,.T.);
#573=ORIENTED_EDGE('',*,*,#349,.T.);
#574=ORIENTED_EDGE('',*,*,#397,.T.);
#575=ORIENTED_EDGE('',*,*,#395,.T.);
#576=ORIENTED_EDGE('',*,*,#393,.T.);
#577=ORIENTED_EDGE('',*,*,#352,.T.);
#578=ORIENTED_EDGE('',*,*,#392,.T.);
#579=ORIENTED_EDGE('',*,*,#389,.T.);
#580=ORIENTED_EDGE('',*,*,#387,.T.);
#581=ORIENTED_EDGE('',*,*,#385,.T.);
#582=ORIENTED_EDGE('',*,*,#383,.T.);
#583=ORIENTED_EDGE('',*,*,#411,.T.);
#584=ORIENTED_EDGE('',*,*,#412,.T.);
#585=ORIENTED_EDGE('',*,*,#413,.T.);
#586=ORIENTED_EDGE('',*,*,#412,.F.);
#587=ORIENTED_EDGE('',*,*,#411,.F.);
#588=ORIENTED_EDGE('',*,*,#413,.F.);
#589=ORIENTED_EDGE('',*,*,#414,.T.);
#590=ORIENTED_EDGE('',*,*,#363,.T.);
#591=ORIENTED_EDGE('',*,*,#415,.T.);
#592=ORIENTED_EDGE('',*,*,#366,.T.);
#593=ORIENTED_EDGE('',*,*,#365,.T.);
#594=ORIENTED_EDGE('',*,*,#415,.F.);
#595=ORIENTED_EDGE('',*,*,#364,.T.);
#596=ORIENTED_EDGE('',*,*,#414,.F.);
#597=ORIENTED_EDGE('',*,*,#416,.T.);
#598=ORIENTED_EDGE('',*,*,#361,.T.);
#599=ORIENTED_EDGE('',*,*,#362,.T.);
#600=ORIENTED_EDGE('',*,*,#416,.F.);
#601=(
BOUNDED_SURFACE()
B_SPLINE_SURFACE(2,2,((#905,#906,#907,#908,#909,#910,#911,#912,#913),(#914,
#915,#916,#917,#918,#919,#920,#921,#922),(#923,#924,#925,#926,#927,#928,
#929,#930,#931)),.UNSPECIFIED.,.F.,.T.,.F.)
B_SPLINE_SURFACE_WITH_KNOTS((3,3),(3,2,2,2,3),(0.,1.18639955229926),(-3.14159265358979,
-1.5707963267949,0.,1.5707963267949,3.14159265358979),.UNSPECIFIED.)
GEOMETRIC_REPRESENTATION_ITEM()
RATIONAL_B_SPLINE_SURFACE(((1.,0.707106781186548,1.,0.707106781186548,1.,
0.707106781186548,1.,0.707106781186548,1.),(0.82915619758885,0.586301969977928,
0.82915619758885,0.586301969977928,0.82915619758885,0.586301969977928,0.82915619758885,
0.586301969977928,0.82915619758885),(1.,0.707106781186548,1.,0.707106781186548,
1.,0.707106781186548,1.,0.707106781186548,1.)))
REPRESENTATION_ITEM('')
SURFACE()
);
#602=(
BOUNDED_SURFACE()
B_SPLINE_SURFACE(2,2,((#1025,#1026,#1027,#1028,#1029,#1030,#1031,#1032,
#1033),(#1034,#1035,#1036,#1037,#1038,#1039,#1040,#1041,#1042),(#1043,#1044,
#1045,#1046,#1047,#1048,#1049,#1050,#1051)),.UNSPECIFIED.,.F.,.T.,.F.)
B_SPLINE_SURFACE_WITH_KNOTS((3,3),(3,2,2,2,3),(0.,0.505593717937851),(0.,
1.5707963267949,3.14159265358979,4.71238898038469,6.28318530717959),
 .UNSPECIFIED.)
GEOMETRIC_REPRESENTATION_ITEM()
RATIONAL_B_SPLINE_SURFACE(((1.,0.707106781186548,1.,0.707106781186548,1.,
0.707106781186548,1.,0.707106781186548,1.),(3.,2.12132034355964,3.,2.12132034355964,
3.,2.12132034355964,3.,2.12132034355964,3.),(1.,0.707106781186548,1.,0.707106781186548,
1.,0.707106781186548,1.,0.707106781186548,1.)))
REPRESENTATION_ITEM('')
SURFACE()
);
#603=(
BOUNDED_SURFACE()
B_SPLINE_SURFACE(2,2,((#1264,#1265,#1266,#1267,#1268,#1269,#1270,#1271,
#1272),(#1273,#1274,#1275,#1276,#1277,#1278,#1279,#1280,#1281),(#1282,#1283,
#1284,#1285,#1286,#1287,#1288,#1289,#1290)),.UNSPECIFIED.,.F.,.T.,.F.)
B_SPLINE_SURFACE_WITH_KNOTS((3,3),(3,2,2,2,3),(0.,1.5707963267949),(-3.14159265358979,
-1.5707963267949,0.,1.5707963267949,3.14159265358979),.UNSPECIFIED.)
GEOMETRIC_REPRESENTATION_ITEM()
RATIONAL_B_SPLINE_SURFACE(((1.,0.707106781186548,1.,0.707106781186548,1.,
0.707106781186548,1.,0.707106781186548,1.),(0.707106781186548,0.5,0.707106781186548,
0.5,0.707106781186548,0.5,0.707106781186548,0.5,0.707106781186548),(1.,
0.707106781186548,1.,0.707106781186548,1.,0.707106781186548,1.,0.707106781186548,
1.)))
REPRESENTATION_ITEM('')
SURFACE()
);
#604=ADVANCED_FACE('',(#133),#601,.T.);
#605=ADVANCED_FACE('',(#134),#119,.T.);
#606=ADVANCED_FACE('',(#135),#120,.T.);
#607=ADVANCED_FACE('',(#136),#121,.T.);
#608=ADVANCED_FACE('',(#137),#122,.T.);
#609=ADVANCED_FACE('',(#138),#42,.F.);
#610=ADVANCED_FACE('',(#139,#30,#31),#602,.F.);
#611=ADVANCED_FACE('',(#140,#32),#15,.T.);
#612=ADVANCED_FACE('',(#141,#33),#16,.T.);
#613=ADVANCED_FACE('',(#142,#34),#17,.T.);
#614=ADVANCED_FACE('',(#143,#35),#18,.T.);
#615=ADVANCED_FACE('',(#144),#123,.F.);
#616=ADVANCED_FACE('',(#145),#124,.F.);
#617=ADVANCED_FACE('',(#146),#125,.F.);
#618=ADVANCED_FACE('',(#147),#126,.F.);
#619=ADVANCED_FACE('',(#148),#19,.T.);
#620=ADVANCED_FACE('',(#149),#20,.T.);
#621=ADVANCED_FACE('',(#150),#127,.T.);
#622=ADVANCED_FACE('',(#151),#21,.T.);
#623=ADVANCED_FACE('',(#152),#22,.T.);
#624=ADVANCED_FACE('',(#153),#128,.T.);
#625=ADVANCED_FACE('',(#154),#23,.T.);
#626=ADVANCED_FACE('',(#155),#24,.T.);
#627=ADVANCED_FACE('',(#156),#129,.T.);
#628=ADVANCED_FACE('',(#157),#25,.T.);
#629=ADVANCED_FACE('',(#158),#26,.T.);
#630=ADVANCED_FACE('',(#159),#130,.T.);
#631=ADVANCED_FACE('',(#160,#36,#37,#38,#39),#27,.F.);
#632=ADVANCED_FACE('',(#161),#603,.F.);
#633=ADVANCED_FACE('',(#162),#28,.T.);
#634=ADVANCED_FACE('',(#163,#40),#29,.F.);
#635=ADVANCED_FACE('',(#164),#131,.F.);
#636=ADVANCED_FACE('',(#165),#132,.T.);
#637=CLOSED_SHELL('',(#604,#605,#606,#607,#608,#609,#610,#611,#612,#613,
#614,#615,#616,#617,#618,#619,#620,#621,#622,#623,#624,#625,#626,#627,#628,
#629,#630,#631,#632,#633,#634,#635,#636));
#638=DERIVED_UNIT_ELEMENT(#640,1.);
#639=DERIVED_UNIT_ELEMENT(#1309,-3.);
#640=(
MASS_UNIT()
NAMED_UNIT(*)
SI_UNIT(.KILO.,.GRAM.)
);
#641=DERIVED_UNIT((#638,#639));
#642=MEASURE_REPRESENTATION_ITEM('density measure',
POSITIVE_RATIO_MEASURE(7850.),#641);
#643=PROPERTY_DEFINITION_REPRESENTATION(#648,#645);
#644=PROPERTY_DEFINITION_REPRESENTATION(#649,#646);
#645=REPRESENTATION('material name',(#647),#1306);
#646=REPRESENTATION('density',(#642),#1306);
#647=DESCRIPTIVE_REPRESENTATION_ITEM('A\X\E7o','A\X\E7o');
#648=PROPERTY_DEFINITION('material property','material name',#1316);
#649=PROPERTY_DEFINITION('material property','density of part',#1316);
#650=AXIS2_PLACEMENT_3D('',#904,#722,#723);
#651=AXIS2_PLACEMENT_3D('',#934,#724,#725);
#652=AXIS2_PLACEMENT_3D('',#935,#726,#727);
#653=AXIS2_PLACEMENT_3D('',#937,#728,#729);
#654=AXIS2_PLACEMENT_3D('',#939,#730,#731);
#655=AXIS2_PLACEMENT_3D('',#946,#732,#733);
#656=AXIS2_PLACEMENT_3D('',#953,#734,#735);
#657=AXIS2_PLACEMENT_3D('',#960,#736,#737);
#658=AXIS2_PLACEMENT_3D('',#967,#738,#739);
#659=AXIS2_PLACEMENT_3D('',#974,#740,#741);
#660=AXIS2_PLACEMENT_3D('',#981,#742,#743);
#661=AXIS2_PLACEMENT_3D('',#988,#744,#745);
#662=AXIS2_PLACEMENT_3D('',#994,#746,#747);
#663=AXIS2_PLACEMENT_3D('',#995,#748,#749);
#664=AXIS2_PLACEMENT_3D('',#999,#751,#752);
#665=AXIS2_PLACEMENT_3D('',#1001,#754,#755);
#666=AXIS2_PLACEMENT_3D('',#1005,#757,#758);
#667=AXIS2_PLACEMENT_3D('',#1007,#760,#761);
#668=AXIS2_PLACEMENT_3D('',#1011,#763,#764);
#669=AXIS2_PLACEMENT_3D('',#1013,#766,#767);
#670=AXIS2_PLACEMENT_3D('',#1017,#769,#770);
#671=AXIS2_PLACEMENT_3D('',#1019,#772,#773);
#672=AXIS2_PLACEMENT_3D('',#1022,#774,#775);
#673=AXIS2_PLACEMENT_3D('',#1023,#776,#777);
#674=AXIS2_PLACEMENT_3D('',#1024,#778,#779);
#675=AXIS2_PLACEMENT_3D('',#1057,#780,#781);
#676=AXIS2_PLACEMENT_3D('',#1058,#782,#783);
#677=AXIS2_PLACEMENT_3D('',#1175,#784,#785);
#678=AXIS2_PLACEMENT_3D('',#1179,#787,#788);
#679=AXIS2_PLACEMENT_3D('',#1182,#790,#791);
#680=AXIS2_PLACEMENT_3D('',#1183,#792,#793);
#681=AXIS2_PLACEMENT_3D('',#1187,#795,#796);
#682=AXIS2_PLACEMENT_3D('',#1190,#798,#799);
#683=AXIS2_PLACEMENT_3D('',#1191,#800,#801);
#684=AXIS2_PLACEMENT_3D('',#1195,#803,#804);
#685=AXIS2_PLACEMENT_3D('',#1198,#806,#807);
#686=AXIS2_PLACEMENT_3D('',#1199,#808,#809);
#687=AXIS2_PLACEMENT_3D('',#1203,#811,#812);
#688=AXIS2_PLACEMENT_3D('',#1206,#814,#815);
#689=AXIS2_PLACEMENT_3D('',#1207,#816,#817);
#690=AXIS2_PLACEMENT_3D('',#1209,#818,#819);
#691=AXIS2_PLACEMENT_3D('',#1211,#821,#822);
#692=AXIS2_PLACEMENT_3D('',#1213,#823,#824);
#693=AXIS2_PLACEMENT_3D('',#1215,#826,#827);
#694=AXIS2_PLACEMENT_3D('',#1217,#828,#829);
#695=AXIS2_PLACEMENT_3D('',#1219,#831,#832);
#696=AXIS2_PLACEMENT_3D('',#1221,#833,#834);
#697=AXIS2_PLACEMENT_3D('',#1223,#836,#837);
#698=AXIS2_PLACEMENT_3D('',#1227,#840,#841);
#699=AXIS2_PLACEMENT_3D('',#1231,#844,#845);
#700=AXIS2_PLACEMENT_3D('',#1233,#846,#847);
#701=AXIS2_PLACEMENT_3D('',#1235,#849,#850);
#702=AXIS2_PLACEMENT_3D('',#1237,#852,#853);
#703=AXIS2_PLACEMENT_3D('',#1241,#856,#857);
#704=AXIS2_PLACEMENT_3D('',#1243,#858,#859);
#705=AXIS2_PLACEMENT_3D('',#1245,#861,#862);
#706=AXIS2_PLACEMENT_3D('',#1247,#864,#865);
#707=AXIS2_PLACEMENT_3D('',#1251,#868,#869);
#708=AXIS2_PLACEMENT_3D('',#1253,#870,#871);
#709=AXIS2_PLACEMENT_3D('',#1255,#873,#874);
#710=AXIS2_PLACEMENT_3D('',#1257,#876,#877);
#711=AXIS2_PLACEMENT_3D('',#1261,#880,#881);
#712=AXIS2_PLACEMENT_3D('',#1262,#882,#883);
#713=AXIS2_PLACEMENT_3D('',#1263,#884,#885);
#714=AXIS2_PLACEMENT_3D('',#1292,#886,#887);
#715=AXIS2_PLACEMENT_3D('',#1294,#888,#889);
#716=AXIS2_PLACEMENT_3D('',#1295,#890,#891);
#717=AXIS2_PLACEMENT_3D('',#1296,#892,#893);
#718=AXIS2_PLACEMENT_3D('',#1297,#894,#895);
#719=AXIS2_PLACEMENT_3D('',#1299,#896,#897);
#720=AXIS2_PLACEMENT_3D('',#1300,#898,#899);
#721=AXIS2_PLACEMENT_3D('',#1302,#901,#902);
#722=DIRECTION('axis',(0.,0.,1.));
#723=DIRECTION('refdir',(1.,0.,0.));
#724=DIRECTION('center_axis',(0.,0.,-1.));
#725=DIRECTION('ref_axis',(-0.708113268140566,0.70609885956804,0.));
#726=DIRECTION('center_axis',(0.,0.,-1.));
#727=DIRECTION('ref_axis',(-0.708113268140566,0.70609885956804,0.));
#728=DIRECTION('center_axis',(0.70609885956804,0.708113268140566,0.));
#729=DIRECTION('ref_axis',(0.708113268140566,-0.70609885956804,0.));
#730=DIRECTION('center_axis',(0.,0.,1.));
#731=DIRECTION('ref_axis',(-0.708113268140567,0.70609885956804,0.));
#732=DIRECTION('center_axis',(0.,0.,-1.));
#733=DIRECTION('ref_axis',(1.,0.,0.));
#734=DIRECTION('center_axis',(0.,0.,1.));
#735=DIRECTION('ref_axis',(-0.708113268140567,0.70609885956804,0.));
#736=DIRECTION('center_axis',(0.,0.,-1.));
#737=DIRECTION('ref_axis',(1.,0.,0.));
#738=DIRECTION('center_axis',(0.,0.,1.));
#739=DIRECTION('ref_axis',(-0.708113268140567,0.70609885956804,0.));
#740=DIRECTION('center_axis',(0.,0.,-1.));
#741=DIRECTION('ref_axis',(1.,0.,0.));
#742=DIRECTION('center_axis',(0.,0.,1.));
#743=DIRECTION('ref_axis',(-0.708113268140567,0.70609885956804,0.));
#744=DIRECTION('center_axis',(0.,0.,-1.));
#745=DIRECTION('ref_axis',(1.,0.,0.));
#746=DIRECTION('center_axis',(0.,0.,1.));
#747=DIRECTION('ref_axis',(-0.708113268140567,0.70609885956804,0.));
#748=DIRECTION('center_axis',(0.,0.,1.));
#749=DIRECTION('ref_axis',(1.,0.,0.));
#750=DIRECTION('',(0.,0.,-1.));
#751=DIRECTION('center_axis',(0.,0.,-1.));
#752=DIRECTION('ref_axis',(1.,0.,0.));
#753=DIRECTION('',(0.,0.,-1.));
#754=DIRECTION('center_axis',(0.,0.,1.));
#755=DIRECTION('ref_axis',(1.,0.,0.));
#756=DIRECTION('',(0.,0.,-1.));
#757=DIRECTION('center_axis',(0.,0.,-1.));
#758=DIRECTION('ref_axis',(1.,0.,0.));
#759=DIRECTION('',(0.,0.,-1.));
#760=DIRECTION('center_axis',(0.,0.,1.));
#761=DIRECTION('ref_axis',(1.,0.,0.));
#762=DIRECTION('',(0.,0.,-1.));
#763=DIRECTION('center_axis',(0.,0.,-1.));
#764=DIRECTION('ref_axis',(1.,0.,0.));
#765=DIRECTION('',(0.,0.,-1.));
#766=DIRECTION('center_axis',(0.,0.,1.));
#767=DIRECTION('ref_axis',(1.,0.,0.));
#768=DIRECTION('',(0.,0.,-1.));
#769=DIRECTION('center_axis',(0.,0.,-1.));
#770=DIRECTION('ref_axis',(1.,0.,0.));
#771=DIRECTION('',(0.,0.,-1.));
#772=DIRECTION('center_axis',(0.,0.,-1.));
#773=DIRECTION('ref_axis',(-1.,0.,0.));
#774=DIRECTION('center_axis',(0.,0.,-1.));
#775=DIRECTION('ref_axis',(0.,1.,0.));
#776=DIRECTION('center_axis',(-1.22464679914735E-16,-1.,0.));
#777=DIRECTION('ref_axis',(1.,-1.22464679914735E-16,0.));
#778=DIRECTION('center_axis',(0.,0.,-1.));
#779=DIRECTION('ref_axis',(0.,1.,0.));
#780=DIRECTION('center_axis',(0.,0.,1.));
#781=DIRECTION('ref_axis',(0.,1.,0.));
#782=DIRECTION('center_axis',(0.,0.,1.));
#783=DIRECTION('ref_axis',(0.,1.,0.));
#784=DIRECTION('center_axis',(0.,0.,1.));
#785=DIRECTION('ref_axis',(1.,0.,0.));
#786=DIRECTION('',(1.,0.,0.));
#787=DIRECTION('center_axis',(0.,0.,1.));
#788=DIRECTION('ref_axis',(1.,0.,0.));
#789=DIRECTION('',(1.,0.,0.));
#790=DIRECTION('center_axis',(0.,0.,-1.));
#791=DIRECTION('ref_axis',(1.,0.,0.));
#792=DIRECTION('center_axis',(0.,0.,1.));
#793=DIRECTION('ref_axis',(1.,0.,0.));
#794=DIRECTION('',(0.,-1.,0.));
#795=DIRECTION('center_axis',(0.,0.,1.));
#796=DIRECTION('ref_axis',(1.,0.,0.));
#797=DIRECTION('',(-1.01216798486791E-15,-1.,0.));
#798=DIRECTION('center_axis',(0.,0.,-1.));
#799=DIRECTION('ref_axis',(1.,0.,0.));
#800=DIRECTION('center_axis',(0.,0.,1.));
#801=DIRECTION('ref_axis',(1.,0.,0.));
#802=DIRECTION('',(-1.,1.26520971789815E-16,0.));
#803=DIRECTION('center_axis',(0.,0.,1.));
#804=DIRECTION('ref_axis',(1.,0.,0.));
#805=DIRECTION('',(-1.,0.,0.));
#806=DIRECTION('center_axis',(0.,0.,-1.));
#807=DIRECTION('ref_axis',(1.,0.,0.));
#808=DIRECTION('center_axis',(0.,0.,1.));
#809=DIRECTION('ref_axis',(1.,0.,0.));
#810=DIRECTION('',(0.,1.,0.));
#811=DIRECTION('center_axis',(0.,0.,1.));
#812=DIRECTION('ref_axis',(1.,0.,0.));
#813=DIRECTION('',(0.,1.,0.));
#814=DIRECTION('center_axis',(0.,0.,-1.));
#815=DIRECTION('ref_axis',(1.,0.,0.));
#816=DIRECTION('center_axis',(0.,0.,-1.));
#817=DIRECTION('ref_axis',(1.,0.,0.));
#818=DIRECTION('center_axis',(0.,0.,1.));
#819=DIRECTION('ref_axis',(1.,0.,0.));
#820=DIRECTION('',(0.,0.,1.));
#821=DIRECTION('center_axis',(0.,0.,-1.));
#822=DIRECTION('ref_axis',(1.,0.,0.));
#823=DIRECTION('center_axis',(0.,0.,1.));
#824=DIRECTION('ref_axis',(1.,0.,0.));
#825=DIRECTION('',(0.,0.,1.));
#826=DIRECTION('center_axis',(0.,0.,-1.));
#827=DIRECTION('ref_axis',(1.,0.,0.));
#828=DIRECTION('center_axis',(0.,0.,1.));
#829=DIRECTION('ref_axis',(1.,0.,0.));
#830=DIRECTION('',(0.,0.,1.));
#831=DIRECTION('center_axis',(0.,0.,-1.));
#832=DIRECTION('ref_axis',(1.,0.,0.));
#833=DIRECTION('center_axis',(0.,0.,1.));
#834=DIRECTION('ref_axis',(1.,0.,0.));
#835=DIRECTION('',(0.,0.,1.));
#836=DIRECTION('center_axis',(0.,-1.,0.));
#837=DIRECTION('ref_axis',(-1.,0.,0.));
#838=DIRECTION('',(0.,0.,-1.));
#839=DIRECTION('',(-1.,0.,0.));
#840=DIRECTION('center_axis',(-1.,0.,0.));
#841=DIRECTION('ref_axis',(0.,1.,0.));
#842=DIRECTION('',(0.,1.,0.));
#843=DIRECTION('',(0.,0.,-1.));
#844=DIRECTION('center_axis',(0.,0.,-1.));
#845=DIRECTION('ref_axis',(1.,0.,0.));
#846=DIRECTION('center_axis',(0.,0.,-1.));
#847=DIRECTION('ref_axis',(1.,0.,0.));
#848=DIRECTION('',(0.,0.,-1.));
#849=DIRECTION('center_axis',(1.,0.,0.));
#850=DIRECTION('ref_axis',(0.,-1.,0.));
#851=DIRECTION('',(0.,-1.,0.));
#852=DIRECTION('center_axis',(-1.26520971789815E-16,-1.,0.));
#853=DIRECTION('ref_axis',(-1.,1.26520971789815E-16,0.));
#854=DIRECTION('',(-1.,1.26520971789815E-16,0.));
#855=DIRECTION('',(0.,0.,-1.));
#856=DIRECTION('center_axis',(0.,0.,-1.));
#857=DIRECTION('ref_axis',(1.,0.,0.));
#858=DIRECTION('center_axis',(0.,0.,-1.));
#859=DIRECTION('ref_axis',(1.,0.,0.));
#860=DIRECTION('',(0.,0.,-1.));
#861=DIRECTION('center_axis',(0.,1.,0.));
#862=DIRECTION('ref_axis',(1.,0.,0.));
#863=DIRECTION('',(1.,0.,0.));
#864=DIRECTION('center_axis',(1.,0.,0.));
#865=DIRECTION('ref_axis',(0.,-1.,0.));
#866=DIRECTION('',(0.,-1.,0.));
#867=DIRECTION('',(0.,0.,-1.));
#868=DIRECTION('center_axis',(0.,0.,-1.));
#869=DIRECTION('ref_axis',(1.,0.,0.));
#870=DIRECTION('center_axis',(0.,0.,-1.));
#871=DIRECTION('ref_axis',(1.,0.,0.));
#872=DIRECTION('',(0.,0.,-1.));
#873=DIRECTION('center_axis',(-1.,1.01216798486791E-15,0.));
#874=DIRECTION('ref_axis',(1.01216798486791E-15,1.,0.));
#875=DIRECTION('',(1.01216798486791E-15,1.,0.));
#876=DIRECTION('center_axis',(0.,1.,0.));
#877=DIRECTION('ref_axis',(1.,0.,0.));
#878=DIRECTION('',(1.,0.,0.));
#879=DIRECTION('',(0.,0.,-1.));
#880=DIRECTION('center_axis',(0.,0.,-1.));
#881=DIRECTION('ref_axis',(-1.,2.54207057918564E-15,0.));
#882=DIRECTION('center_axis',(0.,0.,-1.));
#883=DIRECTION('ref_axis',(1.,0.,0.));
#884=DIRECTION('center_axis',(0.,0.,1.));
#885=DIRECTION('ref_axis',(1.,0.,0.));
#886=DIRECTION('center_axis',(0.,0.,-1.));
#887=DIRECTION('ref_axis',(1.,0.,0.));
#888=DIRECTION('center_axis',(1.22464679914735E-16,-1.,0.));
#889=DIRECTION('ref_axis',(-1.,-1.22464679914735E-16,0.));
#890=DIRECTION('center_axis',(0.,0.,1.));
#891=DIRECTION('ref_axis',(1.,0.,0.));
#892=DIRECTION('center_axis',(0.,0.,1.));
#893=DIRECTION('ref_axis',(1.,0.,0.));
#894=DIRECTION('center_axis',(0.,0.,1.));
#895=DIRECTION('ref_axis',(1.,0.,0.));
#896=DIRECTION('center_axis',(0.,0.,1.));
#897=DIRECTION('ref_axis',(1.,0.,0.));
#898=DIRECTION('center_axis',(1.,0.,0.));
#899=DIRECTION('ref_axis',(0.,0.,-1.));
#900=DIRECTION('',(1.,0.,0.));
#901=DIRECTION('center_axis',(0.,0.,1.));
#902=DIRECTION('ref_axis',(1.,0.,0.));
#903=DIRECTION('',(0.,0.,-1.));
#904=CARTESIAN_POINT('',(0.,0.,0.));
#905=CARTESIAN_POINT('Ctrl Pts',(5.66490614512453,-5.64879087654432,-0.416198487095663));
#906=CARTESIAN_POINT('Ctrl Pts',(0.0161152685802135,-11.3136970216688,-0.416198487095663));
#907=CARTESIAN_POINT('Ctrl Pts',(-5.64879087654432,-5.66490614512453,-0.416198487095663));
#908=CARTESIAN_POINT('Ctrl Pts',(-11.3136970216688,-0.0161152685802135,
-0.416198487095663));
#909=CARTESIAN_POINT('Ctrl Pts',(-5.66490614512453,5.64879087654432,-0.416198487095663));
#910=CARTESIAN_POINT('Ctrl Pts',(-0.0161152685802135,11.3136970216688,-0.416198487095663));
#911=CARTESIAN_POINT('Ctrl Pts',(5.64879087654432,5.66490614512453,-0.416198487095663));
#912=CARTESIAN_POINT('Ctrl Pts',(11.3136970216688,0.0161152685802135,-0.416198487095663));
#913=CARTESIAN_POINT('Ctrl Pts',(5.66490614512453,-5.64879087654432,-0.416198487095663));
#914=CARTESIAN_POINT('Ctrl Pts',(5.66490614512453,-5.64879087654432,2.28060096275731));
#915=CARTESIAN_POINT('Ctrl Pts',(0.0161152685802135,-11.3136970216688,2.28060096275731));
#916=CARTESIAN_POINT('Ctrl Pts',(-5.64879087654432,-5.66490614512453,2.28060096275731));
#917=CARTESIAN_POINT('Ctrl Pts',(-11.3136970216688,-0.0161152685802135,
2.28060096275731));
#918=CARTESIAN_POINT('Ctrl Pts',(-5.66490614512453,5.64879087654432,2.28060096275731));
#919=CARTESIAN_POINT('Ctrl Pts',(-0.0161152685802135,11.3136970216688,2.28060096275731));
#920=CARTESIAN_POINT('Ctrl Pts',(5.64879087654432,5.66490614512453,2.28060096275731));
#921=CARTESIAN_POINT('Ctrl Pts',(11.3136970216688,0.0161152685802135,2.28060096275731));
#922=CARTESIAN_POINT('Ctrl Pts',(5.66490614512453,-5.64879087654432,2.28060096275731));
#923=CARTESIAN_POINT('Ctrl Pts',(3.89462297477312,-3.88354372762422,3.29190075645217));
#924=CARTESIAN_POINT('Ctrl Pts',(0.0110792471488969,-7.77816670239733,3.29190075645217));
#925=CARTESIAN_POINT('Ctrl Pts',(-3.88354372762422,-3.89462297477312,3.29190075645217));
#926=CARTESIAN_POINT('Ctrl Pts',(-7.77816670239733,-0.0110792471488969,
3.29190075645217));
#927=CARTESIAN_POINT('Ctrl Pts',(-3.89462297477312,3.88354372762422,3.29190075645217));
#928=CARTESIAN_POINT('Ctrl Pts',(-0.0110792471488969,7.77816670239733,3.29190075645217));
#929=CARTESIAN_POINT('Ctrl Pts',(3.88354372762422,3.89462297477312,3.29190075645217));
#930=CARTESIAN_POINT('Ctrl Pts',(7.77816670239733,0.0110792471488969,3.29190075645217));
#931=CARTESIAN_POINT('Ctrl Pts',(3.89462297477312,-3.88354372762422,3.29190075645217));
#932=CARTESIAN_POINT('',(3.89462297477311,-3.88354372762422,3.29190075645217));
#933=CARTESIAN_POINT('',(5.5,-6.73555739531044E-16,3.29190075645217));
#934=CARTESIAN_POINT('Origin',(0.,0.,3.29190075645217));
#935=CARTESIAN_POINT('Origin',(0.,0.,3.29190075645217));
#936=CARTESIAN_POINT('',(5.66490614512453,-5.64879087654432,-0.416198487095663));
#937=CARTESIAN_POINT('Origin',(2.83245307256227,-2.82439543827216,-0.416198487095663));
#938=CARTESIAN_POINT('',(7.80624751663191,-1.74999991687946,-0.416198487095663));
#939=CARTESIAN_POINT('Origin',(0.,0.,-0.416198487095663));
#940=CARTESIAN_POINT('',(7.78399553810291,-1.74999991687946,1.55594742819176E-11));
#941=CARTESIAN_POINT('Ctrl Pts',(7.78399553810456,-1.74999991687946,1.57344623441524E-11));
#942=CARTESIAN_POINT('Ctrl Pts',(7.79926183428751,-1.74999991687946,-0.142371250229561));
#943=CARTESIAN_POINT('Ctrl Pts',(7.80624751663191,-1.74999991687946,-0.282668292533906));
#944=CARTESIAN_POINT('Ctrl Pts',(7.80624751663191,-1.74999991687946,-0.416198487095662));
#945=CARTESIAN_POINT('',(7.78399550073189,1.75000008312054,0.));
#946=CARTESIAN_POINT('Origin',(0.,0.,0.));
#947=CARTESIAN_POINT('',(7.80624747936408,1.75000008312054,-0.416198487095663));
#948=CARTESIAN_POINT('Ctrl Pts',(7.80624747936408,1.75000008312054,-0.416198487095663));
#949=CARTESIAN_POINT('Ctrl Pts',(7.80624747936408,1.75000008312054,-0.282668292545416));
#950=CARTESIAN_POINT('Ctrl Pts',(7.7992617969867,1.75000008312054,-0.142371250237398));
#951=CARTESIAN_POINT('Ctrl Pts',(7.78399550073188,1.75000008312054,3.94649590784724E-16));
#952=CARTESIAN_POINT('',(1.75,7.806247497998,-0.416198487095663));
#953=CARTESIAN_POINT('Origin',(0.,0.,-0.416198487095663));
#954=CARTESIAN_POINT('',(1.75,7.78399551941573,1.55595501760697E-11));
#955=CARTESIAN_POINT('Ctrl Pts',(1.75,7.78399551941738,1.57342888718048E-11));
#956=CARTESIAN_POINT('Ctrl Pts',(1.75,7.79926181563684,-0.142371250228312));
#957=CARTESIAN_POINT('Ctrl Pts',(1.75,7.806247497998,-0.282668292537202));
#958=CARTESIAN_POINT('Ctrl Pts',(1.75,7.806247497998,-0.416198487095663));
#959=CARTESIAN_POINT('',(-1.75,7.78399551941907,0.));
#960=CARTESIAN_POINT('Origin',(0.,0.,0.));
#961=CARTESIAN_POINT('',(-1.75,7.806247497998,-0.416198487095663));
#962=CARTESIAN_POINT('Ctrl Pts',(-1.75,7.806247497998,-0.416198487095663));
#963=CARTESIAN_POINT('Ctrl Pts',(-1.75,7.806247497998,-0.282668292542121));
#964=CARTESIAN_POINT('Ctrl Pts',(-1.75,7.79926181563737,-0.142371250238648));
#965=CARTESIAN_POINT('Ctrl Pts',(-1.75,7.78399551941907,-5.72458747072346E-16));
#966=CARTESIAN_POINT('',(-7.806247497998,1.75,-0.416198487095663));
#967=CARTESIAN_POINT('Origin',(0.,0.,-0.416198487095663));
#968=CARTESIAN_POINT('',(-7.78399551941573,1.75,1.55595566812827E-11));
#969=CARTESIAN_POINT('Ctrl Pts',(-7.78399551941738,1.75,1.57345317330915E-11));
#970=CARTESIAN_POINT('Ctrl Pts',(-7.79926181563684,1.75,-0.142371250228311));
#971=CARTESIAN_POINT('Ctrl Pts',(-7.806247497998,1.75,-0.282668292537202));
#972=CARTESIAN_POINT('Ctrl Pts',(-7.806247497998,1.75,-0.416198487095663));
#973=CARTESIAN_POINT('',(-7.78399551941907,-1.75,0.));
#974=CARTESIAN_POINT('Origin',(0.,0.,0.));
#975=CARTESIAN_POINT('',(-7.806247497998,-1.75,-0.416198487095663));
#976=CARTESIAN_POINT('Ctrl Pts',(-7.806247497998,-1.75,-0.416198487095663));
#977=CARTESIAN_POINT('Ctrl Pts',(-7.806247497998,-1.75,-0.282668292542121));
#978=CARTESIAN_POINT('Ctrl Pts',(-7.79926181563737,-1.75,-0.142371250238648));
#979=CARTESIAN_POINT('Ctrl Pts',(-7.78399551941907,-1.75,-2.34187669256869E-16));
#980=CARTESIAN_POINT('',(-1.75,-7.806247497998,-0.416198487095663));
#981=CARTESIAN_POINT('Origin',(0.,0.,-0.416198487095663));
#982=CARTESIAN_POINT('',(-1.75,-7.78399551941573,1.55595610180914E-11));
#983=CARTESIAN_POINT('Ctrl Pts',(-1.75,-7.78399551941738,1.5734566427561E-11));
#984=CARTESIAN_POINT('Ctrl Pts',(-1.75,-7.79926181563684,-0.142371250228311));
#985=CARTESIAN_POINT('Ctrl Pts',(-1.75,-7.806247497998,-0.282668292537202));
#986=CARTESIAN_POINT('Ctrl Pts',(-1.75,-7.806247497998,-0.416198487095663));
#987=CARTESIAN_POINT('',(1.75,-7.78399551941907,0.));
#988=CARTESIAN_POINT('Origin',(0.,0.,0.));
#989=CARTESIAN_POINT('',(1.75,-7.806247497998,-0.416198487095663));
#990=CARTESIAN_POINT('Ctrl Pts',(1.75,-7.806247497998,-0.416198487095663));
#991=CARTESIAN_POINT('Ctrl Pts',(1.75,-7.806247497998,-0.282668292542121));
#992=CARTESIAN_POINT('Ctrl Pts',(1.75,-7.79926181563737,-0.142371250238648));
#993=CARTESIAN_POINT('Ctrl Pts',(1.75,-7.78399551941907,-2.38524477946811E-16));
#994=CARTESIAN_POINT('Origin',(0.,0.,-0.416198487095663));
#995=CARTESIAN_POINT('Origin',(0.,0.,0.));
#996=CARTESIAN_POINT('',(7.80624747936408,1.75000008312054,-2.));
#997=CARTESIAN_POINT('',(7.80624747936408,1.75000008312054,0.));
#998=CARTESIAN_POINT('',(1.75,7.806247497998,-2.));
#999=CARTESIAN_POINT('Origin',(0.,0.,-2.));
#1000=CARTESIAN_POINT('',(1.75,7.806247497998,0.));
#1001=CARTESIAN_POINT('Origin',(0.,0.,0.));
#1002=CARTESIAN_POINT('',(1.75,-7.806247497998,-2.));
#1003=CARTESIAN_POINT('',(1.75,-7.806247497998,0.));
#1004=CARTESIAN_POINT('',(7.80624751663191,-1.74999991687946,-2.));
#1005=CARTESIAN_POINT('Origin',(0.,0.,-2.));
#1006=CARTESIAN_POINT('',(7.80624751663191,-1.74999991687946,0.));
#1007=CARTESIAN_POINT('Origin',(0.,0.,0.));
#1008=CARTESIAN_POINT('',(-7.806247497998,-1.75,-2.));
#1009=CARTESIAN_POINT('',(-7.806247497998,-1.75,0.));
#1010=CARTESIAN_POINT('',(-1.75,-7.806247497998,-2.));
#1011=CARTESIAN_POINT('Origin',(0.,0.,-2.));
#1012=CARTESIAN_POINT('',(-1.75,-7.806247497998,0.));
#1013=CARTESIAN_POINT('Origin',(0.,0.,0.));
#1014=CARTESIAN_POINT('',(-1.75,7.806247497998,-2.));
#1015=CARTESIAN_POINT('',(-1.75,7.806247497998,0.));
#1016=CARTESIAN_POINT('',(-7.806247497998,1.75,-2.));
#1017=CARTESIAN_POINT('Origin',(0.,0.,-2.));
#1018=CARTESIAN_POINT('',(-7.806247497998,1.75,0.));
#1019=CARTESIAN_POINT('Origin',(0.,0.,7.));
#1020=CARTESIAN_POINT('',(0.,3.00000004470349,7.00000010430813));
#1021=CARTESIAN_POINT('',(3.00000004470349,-3.67394045218804E-16,7.00000010430813));
#1022=CARTESIAN_POINT('Origin',(0.,0.,7.00000010430813));
#1023=CARTESIAN_POINT('Origin',(7.,-8.57252759403147E-16,7.));
#1024=CARTESIAN_POINT('Origin',(0.,0.,7.00000010430813));
#1025=CARTESIAN_POINT('Ctrl Pts',(0.,3.00000004470349,12.0000001788139));
#1026=CARTESIAN_POINT('Ctrl Pts',(3.00000004470348,3.00000004470348,12.0000001788139));
#1027=CARTESIAN_POINT('Ctrl Pts',(3.00000004470349,0.,12.0000001788139));
#1028=CARTESIAN_POINT('Ctrl Pts',(3.00000004470348,-3.00000004470348,12.0000001788139));
#1029=CARTESIAN_POINT('Ctrl Pts',(0.,-3.00000004470349,12.0000001788139));
#1030=CARTESIAN_POINT('Ctrl Pts',(-3.00000004470348,-3.00000004470348,12.0000001788139));
#1031=CARTESIAN_POINT('Ctrl Pts',(-3.00000004470349,0.,12.0000001788139));
#1032=CARTESIAN_POINT('Ctrl Pts',(-3.00000004470348,3.00000004470348,12.0000001788139));
#1033=CARTESIAN_POINT('Ctrl Pts',(0.,3.00000004470349,12.0000001788139));
#1034=CARTESIAN_POINT('Ctrl Pts',(0.,2.5000000372529,9.50000014156103));
#1035=CARTESIAN_POINT('Ctrl Pts',(2.5000000372529,2.5000000372529,9.50000014156103));
#1036=CARTESIAN_POINT('Ctrl Pts',(2.5000000372529,0.,9.50000014156103));
#1037=CARTESIAN_POINT('Ctrl Pts',(2.5000000372529,-2.5000000372529,9.50000014156103));
#1038=CARTESIAN_POINT('Ctrl Pts',(0.,-2.5000000372529,9.50000014156103));
#1039=CARTESIAN_POINT('Ctrl Pts',(-2.5000000372529,-2.5000000372529,9.50000014156103));
#1040=CARTESIAN_POINT('Ctrl Pts',(-2.5000000372529,0.,9.50000014156103));
#1041=CARTESIAN_POINT('Ctrl Pts',(-2.5000000372529,2.5000000372529,9.50000014156103));
#1042=CARTESIAN_POINT('Ctrl Pts',(0.,2.5000000372529,9.50000014156103));
#1043=CARTESIAN_POINT('Ctrl Pts',(0.,3.00000004470349,7.00000010430813));
#1044=CARTESIAN_POINT('Ctrl Pts',(3.00000004470348,3.00000004470348,7.00000010430813));
#1045=CARTESIAN_POINT('Ctrl Pts',(3.00000004470349,0.,7.00000010430813));
#1046=CARTESIAN_POINT('Ctrl Pts',(3.00000004470348,-3.00000004470348,7.00000010430813));
#1047=CARTESIAN_POINT('Ctrl Pts',(0.,-3.00000004470349,7.00000010430813));
#1048=CARTESIAN_POINT('Ctrl Pts',(-3.00000004470348,-3.00000004470348,7.00000010430813));
#1049=CARTESIAN_POINT('Ctrl Pts',(-3.00000004470349,0.,7.00000010430813));
#1050=CARTESIAN_POINT('Ctrl Pts',(-3.00000004470348,3.00000004470348,7.00000010430813));
#1051=CARTESIAN_POINT('Ctrl Pts',(0.,3.00000004470349,7.00000010430813));
#1052=CARTESIAN_POINT('',(0.,3.00000004470349,12.0000001788139));
#1053=CARTESIAN_POINT('Ctrl Pts',(0.,3.00000004470349,12.0000001788139));
#1054=CARTESIAN_POINT('Ctrl Pts',(0.,2.5000000372529,9.50000014156103));
#1055=CARTESIAN_POINT('Ctrl Pts',(0.,3.00000004470349,7.00000010430813));
#1056=CARTESIAN_POINT('',(-3.,-3.67394039744206E-16,12.0000001788139));
#1057=CARTESIAN_POINT('Origin',(0.,0.,12.0000001788139));
#1058=CARTESIAN_POINT('Origin',(0.,0.,12.0000001788139));
#1059=CARTESIAN_POINT('',(-2.62868691921167,0.286010836997444,9.91011925231574));
#1060=CARTESIAN_POINT('',(-2.65292112321303,-1.94227538718483E-15,10.));
#1061=CARTESIAN_POINT('Ctrl Pts',(-2.62868691921167,0.286010836997444,9.91011925231574));
#1062=CARTESIAN_POINT('Ctrl Pts',(-2.62122413385004,0.329541492227327,9.87976164518795));
#1063=CARTESIAN_POINT('Ctrl Pts',(-2.61284110553584,0.367938902629504,9.842682082323));
#1064=CARTESIAN_POINT('Ctrl Pts',(-2.59658946140397,0.434171265770277,9.75450918407113));
#1065=CARTESIAN_POINT('Ctrl Pts',(-2.5889475095268,0.46056618397552,9.70299278830142));
#1066=CARTESIAN_POINT('Ctrl Pts',(-2.57848084179035,0.495475239260042,9.59025089843603));
#1067=CARTESIAN_POINT('Ctrl Pts',(-2.57606655582701,0.502772224287949,9.52985201281823));
#1068=CARTESIAN_POINT('Ctrl Pts',(-2.578482007649,0.49511795000323,9.40511255778274));
#1069=CARTESIAN_POINT('Ctrl Pts',(-2.5837354116824,0.478846792026815,9.34256201643437));
#1070=CARTESIAN_POINT('Ctrl Pts',(-2.59921676366123,0.423755654942677,9.22696277269227));
#1071=CARTESIAN_POINT('Ctrl Pts',(-2.60923155379075,0.385313721178062,9.17501038697475));
#1072=CARTESIAN_POINT('Ctrl Pts',(-2.62806467946717,0.293317023018101,9.09050423596085));
#1073=CARTESIAN_POINT('Ctrl Pts',(-2.63675019713634,0.241070824406492,9.05766996931796));
#1074=CARTESIAN_POINT('Ctrl Pts',(-2.6464501495361,0.151899534974678,9.02238498341351));
#1075=CARTESIAN_POINT('Ctrl Pts',(-2.64914033993376,0.118550656911756,9.0130249104137));
#1076=CARTESIAN_POINT('Ctrl Pts',(-2.6516658371098,0.0675844083135854,9.00429429497361));
#1077=CARTESIAN_POINT('Ctrl Pts',(-2.65225614963788,0.0506045239095749,
9.00227360569216));
#1078=CARTESIAN_POINT('Ctrl Pts',(-2.65284214733827,0.0207936484654335,
9.00026914479982));
#1079=CARTESIAN_POINT('Ctrl Pts',(-2.65295018373878,0.00801500656339033,
8.99990088619876));
#1080=CARTESIAN_POINT('Ctrl Pts',(-2.65287731195569,-0.0180852257809249,
9.0001496746722));
#1081=CARTESIAN_POINT('Ctrl Pts',(-2.65268406481504,-0.031390916649262,
9.00080874112297));
#1082=CARTESIAN_POINT('Ctrl Pts',(-2.65182507451533,-0.0642099636093668,
9.00375145135352));
#1083=CARTESIAN_POINT('Ctrl Pts',(-2.65097925341175,-0.0836294555538307,
9.00665370433319));
#1084=CARTESIAN_POINT('Ctrl Pts',(-2.64747477235023,-0.141643952220675,
9.01884408699026));
#1085=CARTESIAN_POINT('Ctrl Pts',(-2.64385367009165,-0.179247835322668,
9.03156773415401));
#1086=CARTESIAN_POINT('Ctrl Pts',(-2.63354684915041,-0.260083841158616,
9.07004516778942));
#1087=CARTESIAN_POINT('Ctrl Pts',(-2.62635689481275,-0.301670215122681,
9.09815994495257));
#1088=CARTESIAN_POINT('Ctrl Pts',(-2.61053934836422,-0.378913218747366,
9.16915027084111));
#1089=CARTESIAN_POINT('Ctrl Pts',(-2.60193989077379,-0.413102776884378,
9.21294567459694));
#1090=CARTESIAN_POINT('Ctrl Pts',(-2.58713094487527,-0.467418618174095,
9.31303607609168));
#1091=CARTESIAN_POINT('Ctrl Pts',(-2.58126179896774,-0.486200557890843,
9.36923341117627));
#1092=CARTESIAN_POINT('Ctrl Pts',(-2.57578623873667,-0.503729739190395,
9.48917803807237));
#1093=CARTESIAN_POINT('Ctrl Pts',(-2.57663696889859,-0.50118521075985,9.55160047673313));
#1094=CARTESIAN_POINT('Ctrl Pts',(-2.58538234037454,-0.472686583470547,
9.67551875581928));
#1095=CARTESIAN_POINT('Ctrl Pts',(-2.59345203570999,-0.445924241235832,
9.73519741562388));
#1096=CARTESIAN_POINT('Ctrl Pts',(-2.61156517319893,-0.373892426561615,
9.83744279409318));
#1097=CARTESIAN_POINT('Ctrl Pts',(-2.62126579620729,-0.33031513625671,9.8802144519406));
#1098=CARTESIAN_POINT('Ctrl Pts',(-2.63782262506954,-0.231614699501277,
9.94697292037358));
#1099=CARTESIAN_POINT('Ctrl Pts',(-2.64462362010013,-0.177554171585636,
9.97112305653457));
#1100=CARTESIAN_POINT('Ctrl Pts',(-2.65021159574953,-0.0985590580745058,
9.99070016811682));
#1101=CARTESIAN_POINT('Ctrl Pts',(-2.65135184704181,-0.0764906024829283,
9.9946226788468));
#1102=CARTESIAN_POINT('Ctrl Pts',(-2.65250159094608,-0.0403150519202367,
9.99856796379669));
#1103=CARTESIAN_POINT('Ctrl Pts',(-2.65277477863393,-0.026362349281342,
9.99950027841324));
#1104=CARTESIAN_POINT('Ctrl Pts',(-2.65290614570941,-0.00825663313599609,
9.99994887473132));
#1105=CARTESIAN_POINT('Ctrl Pts',(-2.65292112321303,-0.00412818793837562,
10.));
#1106=CARTESIAN_POINT('Ctrl Pts',(-2.65292112321303,-2.84360099509441E-15,
10.));
#1107=CARTESIAN_POINT('Ctrl Pts',(-2.65292112321303,-2.84360099509441E-15,
10.));
#1108=CARTESIAN_POINT('Ctrl Pts',(-2.65292112321303,0.00842884862293412,
10.));
#1109=CARTESIAN_POINT('Ctrl Pts',(-2.65285865987126,0.0168566247674474,
9.99978687279928));
#1110=CARTESIAN_POINT('Ctrl Pts',(-2.65250268696283,0.0408925727126744,
9.99857026193942));
#1111=CARTESIAN_POINT('Ctrl Pts',(-2.65205739608003,0.0564559985887958,
9.99704814071049));
#1112=CARTESIAN_POINT('Ctrl Pts',(-2.65018103841549,0.100928722623696,9.99058411791651));
#1113=CARTESIAN_POINT('Ctrl Pts',(-2.64823031999926,0.129459232597821,9.98383315335838));
#1114=CARTESIAN_POINT('Ctrl Pts',(-2.64139553912626,0.203175196463116,9.95941812842308));
#1115=CARTESIAN_POINT('Ctrl Pts',(-2.63545503434712,0.246532214440204,9.9376510343946));
#1116=CARTESIAN_POINT('Ctrl Pts',(-2.62868691921167,0.286010836997444,9.91011925231574));
#1117=CARTESIAN_POINT('',(2.6218105646429,-0.323525941437078,9.88122298621313));
#1118=CARTESIAN_POINT('',(2.65292112321303,-1.0283194282904E-15,10.));
#1119=CARTESIAN_POINT('Ctrl Pts',(2.6218105646429,-0.323525941437078,9.88122298621313));
#1120=CARTESIAN_POINT('Ctrl Pts',(2.61369049125503,-0.365116995451969,9.84592662321259));
#1121=CARTESIAN_POINT('Ctrl Pts',(2.60507670420444,-0.400686656304822,9.80403247506989));
#1122=CARTESIAN_POINT('Ctrl Pts',(2.5896777601046,-0.458747745300754,9.70722625401515));
#1123=CARTESIAN_POINT('Ctrl Pts',(2.58320600615164,-0.479860500700479,9.65225419401848));
#1124=CARTESIAN_POINT('Ctrl Pts',(2.57616208522509,-0.502613530714083,9.5341667931979));
#1125=CARTESIAN_POINT('Ctrl Pts',(2.57602947442835,-0.503010138637726,9.47224613245456));
#1126=CARTESIAN_POINT('Ctrl Pts',(2.58296921621665,-0.480655598927268,9.3477169483709));
#1127=CARTESIAN_POINT('Ctrl Pts',(2.59030327057268,-0.456904336352342,9.28696504621513));
#1128=CARTESIAN_POINT('Ctrl Pts',(2.60792659931452,-0.389343738497168,9.18024020702026));
#1129=CARTESIAN_POINT('Ctrl Pts',(2.61788305856774,-0.346798625243999,9.13453740839266));
#1130=CARTESIAN_POINT('Ctrl Pts',(2.63587567738887,-0.245918913393733,9.06005061794132));
#1131=CARTESIAN_POINT('Ctrl Pts',(2.64366931435091,-0.187938039632709,9.0322643943225));
#1132=CARTESIAN_POINT('Ctrl Pts',(2.64993629189335,-0.103397689761452,9.0102509798747));
#1133=CARTESIAN_POINT('Ctrl Pts',(2.6511848411451,-0.0803995854791077,9.00595212951457));
#1134=CARTESIAN_POINT('Ctrl Pts',(2.65243702945367,-0.043036320206324,9.00165283589658));
#1135=CARTESIAN_POINT('Ctrl Pts',(2.65273651252288,-0.0288508766950542,
9.00063054184286));
#1136=CARTESIAN_POINT('Ctrl Pts',(2.65296577459576,-0.0021145919183952,
8.99984756828315));
#1137=CARTESIAN_POINT('Ctrl Pts',(2.6529352558993,0.0104151660657786,8.99995156947119));
#1138=CARTESIAN_POINT('Ctrl Pts',(2.65256207646302,0.0381936208884215,9.00122673658682));
#1139=CARTESIAN_POINT('Ctrl Pts',(2.65215243078254,0.0534118049592005,9.00262652875337));
#1140=CARTESIAN_POINT('Ctrl Pts',(2.65043710462204,0.0960783053766005,9.00853083671164));
#1141=CARTESIAN_POINT('Ctrl Pts',(2.64867391475032,0.12320652125948,9.0146250175787));
#1142=CARTESIAN_POINT('Ctrl Pts',(2.64171223299064,0.20212563920488,9.0393823431926));
#1143=CARTESIAN_POINT('Ctrl Pts',(2.63486786006158,0.251311002351382,9.06431125460226));
#1144=CARTESIAN_POINT('Ctrl Pts',(2.61940740649223,0.338495728075361,9.12814347436977));
#1145=CARTESIAN_POINT('Ctrl Pts',(2.61093484101351,0.376271489996356,9.16642298927543));
#1146=CARTESIAN_POINT('Ctrl Pts',(2.59481611417141,0.440630965056075,9.25678661034829));
#1147=CARTESIAN_POINT('Ctrl Pts',(2.58742003110339,0.465787690329757,9.30921049375372));
#1148=CARTESIAN_POINT('Ctrl Pts',(2.57773420002731,0.497796831859078,9.4233723934567));
#1149=CARTESIAN_POINT('Ctrl Pts',(2.57586111445375,0.503435587802754,9.48418984352945));
#1150=CARTESIAN_POINT('Ctrl Pts',(2.57939252035577,0.492216753902371,9.60903223178758));
#1151=CARTESIAN_POINT('Ctrl Pts',(2.5851864503539,0.474104690644203,9.67123553783963));
#1152=CARTESIAN_POINT('Ctrl Pts',(2.60130643598768,0.415794560830581,9.78492165286285));
#1153=CARTESIAN_POINT('Ctrl Pts',(2.61138277967883,0.376161945187627,9.83547289457366));
#1154=CARTESIAN_POINT('Ctrl Pts',(2.6301797879724,0.281345027517161,9.91797692786274));
#1155=CARTESIAN_POINT('Ctrl Pts',(2.6387508491263,0.227125602393737,9.94981043407697));
#1156=CARTESIAN_POINT('Ctrl Pts',(2.64754809642261,0.138533329164271,9.98145700380504));
#1157=CARTESIAN_POINT('Ctrl Pts',(2.64979350860699,0.107892480603045,9.98924258750026));
#1158=CARTESIAN_POINT('Ctrl Pts',(2.65191632443794,0.0606979759906995,9.99656479871849));
#1159=CARTESIAN_POINT('Ctrl Pts',(2.65241407033866,0.0446227288818143,9.99826709467454));
#1160=CARTESIAN_POINT('Ctrl Pts',(2.65284175650466,0.0189989462493904,9.99972923829615));
#1161=CARTESIAN_POINT('Ctrl Pts',(2.65292112321303,0.0095004673805579,10.));
#1162=CARTESIAN_POINT('Ctrl Pts',(2.65292112321303,-1.01568907730555E-15,
10.));
#1163=CARTESIAN_POINT('Ctrl Pts',(2.65292112321303,-1.01568907730555E-15,
10.));
#1164=CARTESIAN_POINT('Ctrl Pts',(2.65292112321303,-0.00312361354894387,
10.));
#1165=CARTESIAN_POINT('Ctrl Pts',(2.65291254864207,-0.00624744205550217,
9.99997072929217));
#1166=CARTESIAN_POINT('Ctrl Pts',(2.65282023079129,-0.0230628960111349,
9.99965551525043));
#1167=CARTESIAN_POINT('Ctrl Pts',(2.65258020582783,-0.0367343251157488,
9.99883660938151));
#1168=CARTESIAN_POINT('Ctrl Pts',(2.6515549472288,-0.0714666246907294,9.99532097311416));
#1169=CARTESIAN_POINT('Ctrl Pts',(2.65054322310071,-0.0924010536816651,
9.99184437388775));
#1170=CARTESIAN_POINT('Ctrl Pts',(2.64756007705328,-0.137293071098578,9.98142557742098));
#1171=CARTESIAN_POINT('Ctrl Pts',(2.64545677795775,-0.16105179951049,9.97400268512281));
#1172=CARTESIAN_POINT('Ctrl Pts',(2.63740476013879,-0.235007783846058,9.94470876342979));
#1173=CARTESIAN_POINT('Ctrl Pts',(2.62990624075974,-0.282059850358925,9.91641329907185));
#1174=CARTESIAN_POINT('Ctrl Pts',(2.6218105646429,-0.323525941437078,9.88122298621313));
#1175=CARTESIAN_POINT('Origin',(2.37487256526947E-7,0.,0.));
#1176=CARTESIAN_POINT('',(-10.,1.75,0.));
#1177=CARTESIAN_POINT('',(-10.,1.75,0.));
#1178=CARTESIAN_POINT('',(-10.,-1.75,0.));
#1179=CARTESIAN_POINT('Origin',(-10.,0.,0.));
#1180=CARTESIAN_POINT('',(-10.,-1.75,0.));
#1181=CARTESIAN_POINT('',(-11.25,-1.53080849893419E-16,0.));
#1182=CARTESIAN_POINT('Origin',(-10.,0.,0.));
#1183=CARTESIAN_POINT('Origin',(2.37487256526947E-7,0.,0.));
#1184=CARTESIAN_POINT('',(1.75,10.,0.));
#1185=CARTESIAN_POINT('',(1.75,10.,0.));
#1186=CARTESIAN_POINT('',(-1.75,10.,0.));
#1187=CARTESIAN_POINT('Origin',(0.,10.,0.));
#1188=CARTESIAN_POINT('',(-1.75,10.,0.));
#1189=CARTESIAN_POINT('',(-1.25,10.,0.));
#1190=CARTESIAN_POINT('Origin',(0.,10.,0.));
#1191=CARTESIAN_POINT('Origin',(2.37487256526947E-7,0.,0.));
#1192=CARTESIAN_POINT('',(10.0000004749745,-1.74999991687946,0.));
#1193=CARTESIAN_POINT('',(10.0000004749745,-1.74999991687946,0.));
#1194=CARTESIAN_POINT('',(10.0000004749745,1.75000008312054,0.));
#1195=CARTESIAN_POINT('Origin',(10.0000004749745,8.31205398954538E-8,0.));
#1196=CARTESIAN_POINT('',(10.0000004749745,1.75000008312054,0.));
#1197=CARTESIAN_POINT('',(8.75,-1.53080849893419E-16,0.));
#1198=CARTESIAN_POINT('Origin',(10.,0.,0.));
#1199=CARTESIAN_POINT('Origin',(2.37487256526947E-7,0.,0.));
#1200=CARTESIAN_POINT('',(-1.75,-10.,0.));
#1201=CARTESIAN_POINT('',(-1.75,-10.,0.));
#1202=CARTESIAN_POINT('',(1.75,-10.,0.));
#1203=CARTESIAN_POINT('Origin',(0.,-10.,0.));
#1204=CARTESIAN_POINT('',(1.75,-10.,0.));
#1205=CARTESIAN_POINT('',(-1.25,-10.,0.));
#1206=CARTESIAN_POINT('Origin',(0.,-10.,0.));
#1207=CARTESIAN_POINT('Origin',(0.,-10.,0.));
#1208=CARTESIAN_POINT('',(-1.25,-10.,-2.));
#1209=CARTESIAN_POINT('Origin',(0.,-10.,-2.));
#1210=CARTESIAN_POINT('',(-1.25,-10.,0.));
#1211=CARTESIAN_POINT('Origin',(0.,10.,0.));
#1212=CARTESIAN_POINT('',(-1.25,10.,-2.));
#1213=CARTESIAN_POINT('Origin',(0.,10.,-2.));
#1214=CARTESIAN_POINT('',(-1.25,10.,0.));
#1215=CARTESIAN_POINT('Origin',(10.,0.,0.));
#1216=CARTESIAN_POINT('',(8.75,-1.53080849893419E-16,-2.));
#1217=CARTESIAN_POINT('Origin',(10.,0.,-2.));
#1218=CARTESIAN_POINT('',(8.75,1.53080849893419E-16,0.));
#1219=CARTESIAN_POINT('Origin',(-10.,0.,0.));
#1220=CARTESIAN_POINT('',(-11.25,-1.53080849893419E-16,-2.));
#1221=CARTESIAN_POINT('Origin',(-10.,0.,-2.));
#1222=CARTESIAN_POINT('',(-11.25,1.53080849893419E-16,0.));
#1223=CARTESIAN_POINT('Origin',(-7.806247497998,-1.75,0.));
#1224=CARTESIAN_POINT('',(-10.,-1.75,-2.));
#1225=CARTESIAN_POINT('',(-10.,-1.75,0.));
#1226=CARTESIAN_POINT('',(-10.,-1.75,-2.));
#1227=CARTESIAN_POINT('Origin',(-1.75,-10.,0.));
#1228=CARTESIAN_POINT('',(-1.75,-10.,-2.));
#1229=CARTESIAN_POINT('',(-1.75,-10.,-2.));
#1230=CARTESIAN_POINT('',(-1.75,-10.,0.));
#1231=CARTESIAN_POINT('Origin',(0.,-10.,0.));
#1232=CARTESIAN_POINT('',(1.75,-10.,-2.));
#1233=CARTESIAN_POINT('Origin',(0.,-10.,-2.));
#1234=CARTESIAN_POINT('',(1.75,-10.,0.));
#1235=CARTESIAN_POINT('Origin',(1.75,-7.806247497998,0.));
#1236=CARTESIAN_POINT('',(1.75,-10.,-2.));
#1237=CARTESIAN_POINT('Origin',(10.0000004749745,-1.74999991687946,0.));
#1238=CARTESIAN_POINT('',(10.0000004749745,-1.74999991687946,-2.));
#1239=CARTESIAN_POINT('',(10.0000004749745,-1.74999991687946,-2.));
#1240=CARTESIAN_POINT('',(10.0000004749745,-1.74999991687946,0.));
#1241=CARTESIAN_POINT('Origin',(10.0000004749745,8.31205398954538E-8,0.));
#1242=CARTESIAN_POINT('',(10.0000004749745,1.75000008312054,-2.));
#1243=CARTESIAN_POINT('Origin',(10.0000004749745,8.31205398954538E-8,-2.));
#1244=CARTESIAN_POINT('',(10.0000004749745,1.75000008312054,0.));
#1245=CARTESIAN_POINT('Origin',(7.80624747936408,1.75000008312054,0.));
#1246=CARTESIAN_POINT('',(10.0000004749745,1.75000008312054,-2.));
#1247=CARTESIAN_POINT('Origin',(1.75,10.,0.));
#1248=CARTESIAN_POINT('',(1.75,10.,-2.));
#1249=CARTESIAN_POINT('',(1.75,10.,-2.));
#1250=CARTESIAN_POINT('',(1.75,10.,0.));
#1251=CARTESIAN_POINT('Origin',(0.,10.,0.));
#1252=CARTESIAN_POINT('',(-1.75,10.,-2.));
#1253=CARTESIAN_POINT('Origin',(0.,10.,-2.));
#1254=CARTESIAN_POINT('',(-1.75,10.,0.));
#1255=CARTESIAN_POINT('Origin',(-1.75,7.806247497998,0.));
#1256=CARTESIAN_POINT('',(-1.75,10.,-2.));
#1257=CARTESIAN_POINT('Origin',(-10.,1.75,0.));
#1258=CARTESIAN_POINT('',(-10.,1.75,-2.));
#1259=CARTESIAN_POINT('',(-10.,1.75,-2.));
#1260=CARTESIAN_POINT('',(-10.,1.75,0.));
#1261=CARTESIAN_POINT('Origin',(-10.,0.,0.));
#1262=CARTESIAN_POINT('Origin',(-10.,0.,-2.));
#1263=CARTESIAN_POINT('Origin',(2.37487256526947E-7,0.,-2.));
#1264=CARTESIAN_POINT('Ctrl Pts',(-3.5,0.,15.));
#1265=CARTESIAN_POINT('Ctrl Pts',(-3.5,-3.5,15.));
#1266=CARTESIAN_POINT('Ctrl Pts',(0.,-3.5,15.));
#1267=CARTESIAN_POINT('Ctrl Pts',(3.5,-3.5,15.));
#1268=CARTESIAN_POINT('Ctrl Pts',(3.5,0.,15.));
#1269=CARTESIAN_POINT('Ctrl Pts',(3.5,3.5,15.));
#1270=CARTESIAN_POINT('Ctrl Pts',(0.,3.5,15.));
#1271=CARTESIAN_POINT('Ctrl Pts',(-3.5,3.5,15.));
#1272=CARTESIAN_POINT('Ctrl Pts',(-3.5,0.,15.));
#1273=CARTESIAN_POINT('Ctrl Pts',(-3.5,0.,17.));
#1274=CARTESIAN_POINT('Ctrl Pts',(-3.5,-3.5,17.));
#1275=CARTESIAN_POINT('Ctrl Pts',(0.,-3.5,17.));
#1276=CARTESIAN_POINT('Ctrl Pts',(3.5,-3.5,17.));
#1277=CARTESIAN_POINT('Ctrl Pts',(3.5,0.,17.));
#1278=CARTESIAN_POINT('Ctrl Pts',(3.5,3.5,17.));
#1279=CARTESIAN_POINT('Ctrl Pts',(0.,3.5,17.));
#1280=CARTESIAN_POINT('Ctrl Pts',(-3.5,3.5,17.));
#1281=CARTESIAN_POINT('Ctrl Pts',(-3.5,0.,17.));
#1282=CARTESIAN_POINT('Ctrl Pts',(-1.5,0.,17.));
#1283=CARTESIAN_POINT('Ctrl Pts',(-1.5,-1.5,17.));
#1284=CARTESIAN_POINT('Ctrl Pts',(0.,-1.5,17.));
#1285=CARTESIAN_POINT('Ctrl Pts',(1.5,-1.5,17.));
#1286=CARTESIAN_POINT('Ctrl Pts',(1.5,0.,17.));
#1287=CARTESIAN_POINT('Ctrl Pts',(1.5,1.5,17.));
#1288=CARTESIAN_POINT('Ctrl Pts',(0.,1.5,17.));
#1289=CARTESIAN_POINT('Ctrl Pts',(-1.5,1.5,17.));
#1290=CARTESIAN_POINT('Ctrl Pts',(-1.5,0.,17.));
#1291=CARTESIAN_POINT('',(-1.5,1.83697019872103E-16,17.));
#1292=CARTESIAN_POINT('Origin',(0.,0.,17.));
#1293=CARTESIAN_POINT('',(-3.5,-4.28626379701574E-16,15.));
#1294=CARTESIAN_POINT('Origin',(-1.5,-1.83697019872103E-16,15.));
#1295=CARTESIAN_POINT('Origin',(0.,0.,15.));
#1296=CARTESIAN_POINT('Origin',(0.,0.,17.));
#1297=CARTESIAN_POINT('Origin',(0.,0.,15.));
#1298=CARTESIAN_POINT('',(-3.,-3.67394039744206E-16,15.));
#1299=CARTESIAN_POINT('Origin',(0.,0.,15.));
#1300=CARTESIAN_POINT('Origin',(0.,-9.79717439317883E-16,9.5));
#1301=CARTESIAN_POINT('',(0.,-1.04094977927525E-15,10.));
#1302=CARTESIAN_POINT('Origin',(0.,0.,0.));
#1303=CARTESIAN_POINT('',(-3.,-3.67394039744206E-16,0.));
#1304=UNCERTAINTY_MEASURE_WITH_UNIT(LENGTH_MEASURE(0.01),#1308,
'DISTANCE_ACCURACY_VALUE',
'Maximum model space distance between geometric entities at asserted c
onnectivities');
#1305=UNCERTAINTY_MEASURE_WITH_UNIT(LENGTH_MEASURE(0.01),#1308,
'DISTANCE_ACCURACY_VALUE',
'Maximum model space distance between geometric entities at asserted c
onnectivities');
#1306=(
GEOMETRIC_REPRESENTATION_CONTEXT(3)
GLOBAL_UNCERTAINTY_ASSIGNED_CONTEXT((#1304))
GLOBAL_UNIT_ASSIGNED_CONTEXT((#1308,#1310,#1311))
REPRESENTATION_CONTEXT('','3D')
);
#1307=(
GEOMETRIC_REPRESENTATION_CONTEXT(3)
GLOBAL_UNCERTAINTY_ASSIGNED_CONTEXT((#1305))
GLOBAL_UNIT_ASSIGNED_CONTEXT((#1308,#1310,#1311))
REPRESENTATION_CONTEXT('','3D')
);
#1308=(
LENGTH_UNIT()
NAMED_UNIT(*)
SI_UNIT(.MILLI.,.METRE.)
);
#1309=(
LENGTH_UNIT()
NAMED_UNIT(*)
SI_UNIT($,.METRE.)
);
#1310=(
NAMED_UNIT(*)
PLANE_ANGLE_UNIT()
SI_UNIT($,.RADIAN.)
);
#1311=(
NAMED_UNIT(*)
SI_UNIT($,.STERADIAN.)
SOLID_ANGLE_UNIT()
);
#1312=SHAPE_DEFINITION_REPRESENTATION(#1313,#1314);
#1313=PRODUCT_DEFINITION_SHAPE('',$,#1316);
#1314=SHAPE_REPRESENTATION('',(#650),#1306);
#1315=PRODUCT_DEFINITION_CONTEXT('part definition',#1320,'design');
#1316=PRODUCT_DEFINITION('2026-07-20-17-18-07-001','Tuner',#1317,
#1315);
#1317=PRODUCT_DEFINITION_FORMATION('',$,#1322);
#1318=PRODUCT_RELATED_PRODUCT_CATEGORY('Tuner','Tuner',(#1322));
#1319=APPLICATION_PROTOCOL_DEFINITION('international standard',
'automotive_design',2009,#1320);
#1320=APPLICATION_CONTEXT(
'Core Data for Automotive Mechanical Design Process');
#1321=PRODUCT_CONTEXT('part definition',#1320,'mechanical');
#1322=PRODUCT('2026-07-20-17-18-07-001','Tuner',$,(#1321));
#1323=PRESENTATION_STYLE_ASSIGNMENT((#1324));
#1324=SURFACE_STYLE_USAGE(.BOTH.,#1325);
#1325=SURFACE_SIDE_STYLE('',(#1326));
#1326=SURFACE_STYLE_FILL_AREA(#1327);
#1327=FILL_AREA_STYLE('A\X\E7o - Acetinado',(#1328));
#1328=FILL_AREA_STYLE_COLOUR('A\X\E7o - Acetinado',#1329);
#1329=COLOUR_RGB('A\X\E7o - Acetinado',0.627450980392157,0.627450980392157,
0.627450980392157);
ENDSEC;
END-ISO-10303-21;
